<?xml version="1.0" encoding="utf-8"?>
<!-- Generator: Adobe Illustrator 23.0.0, SVG Export Plug-In . SVG Version: 6.00 Build 0)  -->
<svg version="1.1" id="Layer_1" xmlns="http://www.w3.org/2000/svg" xmlns:xlink="http://www.w3.org/1999/xlink" x="0px" y="0px"
	 viewBox="0 0 262.34 462.27" style="enable-background:new 0 0 262.34 462.27;" xml:space="preserve">
<style type="text/css">
	.st0{fill:#333333;}
	.st1{fill:#292929;}
	.st2{fill:#505353;}
	.st3{fill:#848384;}
	.st4{fill:#00A6CA;}
	.st5{fill:#33B8D5;}
	.st6{fill:#808083;}
	.st7{fill:#33A133;}
	.st8{fill:#008A00;}
	.st9{fill:#CBE3A0;}
	.st10{fill:#A9D161;}
	.st11{fill:#F2C69E;}
	.st12{fill:#EEB482;}
	.st13{fill:#0D0D0D;}
	.st14{fill:#FCD800;}
	.st15{fill:#FDE866;}
	.st16{fill:#F2C69F;}
	.st17{fill:#F16E00;}
	.st18{fill:#EB0000;}
	.st19{fill:#006800;}
	.st20{fill:#FFFFFF;}
	.st21{fill:#F4C7A0;}
	.st22{fill:#EDB888;}
	.st23{fill:#EFB582;}
	.st24{fill:#33859D;}
	.st25{fill:#006685;}
	.st26{fill:#494949;}
</style>
<path class="st0" d="M257.23,163.93c0,4.58-3.71,8.3-8.3,8.3H47.13c-4.58,0-8.3-3.71-8.3-8.3V14.6c0-4.58,3.71-8.3,8.3-8.3h201.8
	c4.58,0,8.3,3.71,8.3,8.3V163.93z"/>
<path d="M47.65,141.58l-0.03,30.64h19.26l0.06-42.36C59.7,125.72,47.68,129.49,47.65,141.58z"/>
<path d="M248.93,6.3h-53.72l-75.2,165.92l128.92,0c4.58,0,8.3-3.71,8.3-8.3V14.6C257.23,10.01,253.51,6.3,248.93,6.3z"/>
<rect x="48.83" y="21.62" class="st7" width="198.41" height="133.47"/>
<polygon class="st8" points="127.78,155.08 247.24,155.08 247.24,21.61 186.87,21.61 "/>
<path class="st6" d="M146.02,14.36c0-1.11,0.9-2.02,2.02-2.02c1.11,0,2.02,0.9,2.02,2.02c0,1.11-0.9,2.02-2.02,2.02
	C146.92,16.37,146.02,15.47,146.02,14.36z"/>
<path class="st8" d="M47.65,142.82l-0.01,12.26h19.27l0.03-25.07C59.7,125.48,47.68,129.6,47.65,142.82z"/>
<polygon class="st9" points="7.1,459.37 57.35,459.37 57.6,203.85 7.28,203.85 "/>
<polygon class="st10" points="25.66,459.37 64.35,459.37 64.6,203.85 25.84,203.85 "/>
<path class="st11" d="M61.37,122.76c-6.75-3.87-14.96-0.35-14.98,10.93l-0.03,19.56l-3.98,3.12l-3.75-2.82v-47.11l-14.75,7.91
	c-0.9,0.5-1.63,1.18-2.2,1.96c-1.83,1.52-3.03,3.79-3.02,6.34l-0.01,2.46c-1.96,1.52-3.25,3.88-3.24,6.53l-0.01,3.56
	c-1.53,1.5-2.49,3.57-2.48,5.87l-0.17,62.78h37.87l0.02-7.16c5.75-6.46,10.6-14.69,10.63-23.52l0.03-13.85L61.37,122.76z"/>
<path class="st12" d="M61.37,122.76l-2.73,49.1c-0.02,8.83-4.87,17.06-10.63,23.52l-0.02,6.27l-35.31-0.19l0.07,2.39h37.87
	l0.02-7.16c5.75-6.46,10.6-14.69,10.63-23.52L61.37,122.76z"/>
<g>
	<polygon points="164.99,155.04 164.99,172.23 149.24,172.23 149.38,155.09 	"/>
	<path class="st19" d="M165.1,146v9.15h-17.18V146c0-4.73,3.85-8.59,8.59-8.59S165.1,141.27,165.1,146z"/>
	<polygon class="st20" points="153.16,155.49 150.68,155.49 151.3,164.6 152.54,164.6 	"/>
	<path class="st21" d="M128.39,233.79c-0.11,10.35,9.37,19.03,19.84,20.36v10.75l49.71,0v-16.16c4.54-4.32,7.37-10.41,7.37-17.16
		v-39.49c0-4.59-3.73-8.32-8.32-8.32c-2.66,0-5.02,1.26-6.55,3.2c-0.64-3.95-4.07-6.98-8.2-6.98c-2.66,0-5.02,1.26-6.55,3.2
		c-0.64-3.95-4.07-6.98-8.2-6.98c-2.59,0-4.9,1.19-6.43,3.05v-39.93c0-4.59-3.73-8.32-8.32-8.32c-4.59,0-8.32,3.73-8.32,8.32v77.21
		h-1.3v-23.04c0-5.48-4.44-9.92-9.92-9.92c-1.76,0-3.4,0.46-4.83,1.26V233.79z"/>
	<rect x="144.19" y="264.91" class="st9" width="61.11" height="194.46"/>
	<rect x="165.02" y="264.91" class="st10" width="40.28" height="194.46"/>
	<g>
		<path class="st22" d="M197,183.79c-0.51,0-1,0.06-1.48,0.15c5.26-0.58,7.64,3.73,7.64,7.8l0.12,39.75
			c0,6.74-3.81,12.95-8.34,17.27v12.73l-46.72,0v3.43l49.72,0v-16.16c4.54-4.32,7.37-10.41,7.37-17.16v-39.49
			C205.32,187.52,201.59,183.79,197,183.79z"/>
		<path class="st22" d="M174.04,183.02c0.58,0.5,1.17,0.59,1.67,0.19c0.33-0.26-0.62-2.06-0.62-2.06c-1.3-2.9-4.2-4.92-7.58-4.92
			c-0.5,0-0.99,0.06-1.47,0.14C170.62,175.86,173.48,179.57,174.04,183.02z"/>
		<path class="st22" d="M188.72,186.6c0.58,0.48,1.17,0.57,1.67,0.18c0.33-0.25-0.62-1.99-0.62-1.99c-1.3-2.8-4.2-4.75-7.58-4.75
			c-0.5,0-0.99,0.06-1.47,0.14C185.31,179.68,188.16,183.27,188.72,186.6z"/>
		<path class="st22" d="M158.08,139.34v36.76c0,0,1.85,3.41,3.02,2.88l-0.02-39.64c0-4.59-3.73-8.32-8.32-8.32
			c-0.51,0-1.01,0.05-1.5,0.14C155.13,131.88,158.08,135.27,158.08,139.34z"/>
		<path class="st22" d="M140.14,193.52l1.46,23.97l2.84-0.92l-1.34-0.14v-20.94c0.44-5.5-1.97-7.95-2.13-8.16
			c-1.82-2.27-4.61-3.72-7.74-3.72c-0.51,0-1.01,0.05-1.5,0.13C136.48,184.45,140.14,188.55,140.14,193.52z"/>
	</g>
</g>
<g>
	<polygon class="st22" points="36.86,107.36 35.62,153.55 42.37,156.36 40.84,155.21 38.62,153.55 38.62,106.44 	"/>
</g>
<g>
	<path class="st20" d="M87.79,57.36h5.26v2.41h-7.96v-12.6h2.7V57.36z"/>
	<path class="st20" d="M98.61,59.96c-2.3,0-4.63-1.51-4.63-4.55c0-3.01,2.27-4.47,4.56-4.48c2.32-0.02,4.65,1.42,4.65,4.48
		C103.18,58.45,100.89,59.96,98.61,59.96z M98.55,57.76c1.06,0.02,2.12-0.77,2.12-2.36c0-1.55-1.01-2.27-2.07-2.27
		c-1.06,0-2.12,0.7-2.12,2.27S97.51,57.76,98.55,57.76z"/>
	<path class="st20" d="M110.7,59.4c-0.77,0.36-1.53,0.52-2.23,0.54c-2.29,0.04-3.96-1.53-3.96-4.38c0-3.29,2.27-4.7,4.93-4.65
		c1.3,0,2.54,0.31,3.69,0.79v8.14c0,3.1-1.93,4.43-4.25,4.43c-1.22,0-2.54-0.32-3.76-0.97l0.32-1.95c0.94,0.5,2.12,0.9,3.13,0.9
		c1.19-0.02,2.12-0.59,2.12-2.32V59.4z M110.67,53.17c-0.49-0.13-0.99-0.18-1.48-0.18c-1.31,0-2.18,0.72-2.18,2.43
		c0,1.62,0.86,2.36,2.03,2.36c0.5,0,1.06-0.14,1.62-0.45V53.17z"/>
	<path class="st20" d="M118.19,48.42c0,1.87-2.95,1.85-2.95,0C115.24,46.49,118.19,46.54,118.19,48.42z M117.97,59.78h-2.52v-8.64
		h2.52V59.78z"/>
	<path class="st20" d="M126.61,59.78v-5.02c0.05-1.19-0.63-1.84-1.64-1.84c-0.95,0-1.84,0.67-1.84,1.89v4.97h-2.52v-6
		c0-0.86-0.04-1.22-0.83-1.13v-1.57c1.15-0.2,3.17-0.4,3.17,1.17c0.49-1.01,1.76-1.33,2.77-1.33c2.45,0,3.42,1.67,3.42,3.83v5.02
		H126.61z"/>
	<path class="st20" d="M138.35,59.96c-2.02,0-3.15-1.06-3.15-2.59c0-1.46,1.15-2.81,3.37-2.81c0.79,0,1.6,0.11,2.3,0.4v-0.85
		c0-0.94-0.88-1.39-1.89-1.39c-1.1,0-2.11,0.29-2.68,0.5l-0.43-1.58c0.99-0.5,2.11-0.7,3.28-0.7c2.23,0,4.14,0.67,4.14,3.17v3.15
		c0,0.74-0.02,1.17,0.81,1.12l0.02,1.4c-1.31,0.29-2.75,0.22-2.75-1.33C140.83,59.53,139.47,59.96,138.35,59.96z M139.05,56.1
		c-0.9,0-1.37,0.45-1.37,1.12c0,0.43,0.38,0.88,1.17,0.88c0.83,0,1.93-0.49,2.02-1.67C140.49,56.25,139.75,56.1,139.05,56.1z"/>
	<path class="st20" d="M148.95,51.12h2.83v1.89h-2.83v3.22c0,1.8,1.49,1.89,2.93,1.37l0.23,1.91c-2.99,0.83-5.64,0.34-5.64-3.22
		v-3.28l-1.64-0.16v-1.73h1.82l0.27-2.7h2.02V51.12z"/>
	<path class="st20" d="M157.05,51.12h2.83v1.89h-2.83v3.22c0,1.8,1.49,1.89,2.94,1.37l0.23,1.91c-2.99,0.83-5.64,0.34-5.64-3.22
		v-3.28l-1.64-0.16v-1.73h1.82l0.27-2.7h2.02V51.12z"/>
	<path class="st20" d="M169.71,56.23h-5.87c0.16,1.42,1.37,1.64,2.3,1.73c1.08,0.05,2.18-0.11,3.22-0.54l0.29,1.78
		c-1.03,0.49-2.21,0.76-3.37,0.76c-2.99,0-4.97-1.69-4.97-4.63s2.32-4.41,4.56-4.41C169.04,50.92,170.37,53.28,169.71,56.23z
		 M163.84,54.66h3.87c0.13-1.13-0.65-1.91-1.84-1.91C164.61,52.75,164.05,53.62,163.84,54.66z"/>
	<path class="st20" d="M183.23,59.78v-5.02c0.05-1.15-0.54-1.84-1.4-1.82c-0.88,0.02-1.58,0.68-1.6,1.84v5.01h-2.48v-5.01
		c0.02-1.17-0.58-1.85-1.49-1.84c-0.92,0.02-1.71,0.72-1.71,1.89v4.95h-2.5v-6.03c0-0.85-0.05-1.1-0.83-1.04v-1.53
		c1.13-0.32,3.13-0.61,3.13,1.12c0.47-0.99,1.71-1.37,2.79-1.37c1.51,0,2.23,0.5,2.65,1.57c0.52-1.06,1.8-1.57,3.01-1.57
		c2.47,0,3.04,1.73,2.99,3.83v5.02H183.23z"/>
	<path class="st20" d="M193.09,50.92c2.54,0,3.91,1.98,3.91,4.45c0,2.65-1.78,4.59-4.09,4.59c-0.67,0-1.37-0.09-2.07-0.45v4.72
		h-2.52V54.07c0-0.83,0.11-1.33-0.81-1.28l-0.02-1.67c1.17-0.25,2.86-0.27,2.86,1.39C190.84,51.42,191.97,50.92,193.09,50.92z
		 M190.76,57.42c0.56,0.32,1.12,0.41,1.64,0.41c1.21,0,2.05-0.95,2.05-2.47c0-1.21-0.61-2.23-1.89-2.23
		c-1.13,0.02-1.78,0.88-1.8,1.91V57.42z"/>
	<path class="st20" d="M202.03,51.12h2.83v1.89h-2.83v3.22c0,1.8,1.49,1.89,2.93,1.37l0.23,1.91c-2.99,0.83-5.64,0.34-5.64-3.22
		v-3.28l-1.64-0.16v-1.73h1.82l0.27-2.7h2.02V51.12z"/>
	<path class="st20" d="M208.8,57.08c0.02,0.72,0.7,1.08,1.42,1.06c0.74,0,1.48-0.25,1.49-1.03c0-0.65-0.63-0.72-1.24-0.81
		c-1.75-0.23-4.02-0.41-4.02-2.52c0-1.94,1.6-2.86,3.73-2.86c2.07,0,3.85,0.94,3.76,2.77h-2.38c-0.02-0.63-0.63-0.92-1.35-0.92
		c-0.77,0-1.33,0.36-1.33,0.94c0,0.65,0.68,0.68,1.24,0.74c1.94,0.23,4.16,0.32,4.1,2.65c-0.05,2.07-1.94,2.86-3.91,2.86
		c-1.96,0-3.96-0.58-4.05-2.88H208.8z"/>
	<path class="st20" d="M85.43,79.47h-1.6v-1.78h1.64l0.02-1.1c0-2.58,1.37-3.48,3.31-3.48c0.72,0,1.48,0.13,2.27,0.36l-0.25,1.8
		c-0.49-0.18-1.03-0.25-1.49-0.25c-0.85,0-1.44,0.45-1.44,1.62v1.04h2.74v1.78h-2.74v6.88h-2.45V79.47z"/>
	<path class="st20" d="M97.17,77.49c0.67-0.02,1.35,0.18,1.85,0.56l-0.56,2.11c-0.52-0.34-1.06-0.49-1.62-0.47
		c-1.1,0-2.03,0.72-2.03,2.05v4.61h-2.47v-6.03c0-0.72-0.07-1.19-0.86-1.06v-1.55c1.26-0.29,3.02-0.29,3.17,1.26
		C95.01,77.98,96.1,77.49,97.17,77.49z"/>
	<path class="st20" d="M104.26,86.53c-2.3,0-4.63-1.51-4.63-4.55c0-3.01,2.27-4.47,4.56-4.48c2.32-0.02,4.65,1.42,4.65,4.48
		C108.83,85.02,106.54,86.53,104.26,86.53z M104.2,84.34c1.06,0.02,2.12-0.77,2.12-2.36c0-1.55-1.01-2.27-2.07-2.27
		c-1.06,0-2.12,0.7-2.12,2.27S103.16,84.34,104.2,84.34z"/>
	<path class="st20" d="M122.13,86.35v-5.02c0.05-1.15-0.54-1.84-1.4-1.82c-0.88,0.02-1.58,0.68-1.6,1.84v5.01h-2.48v-5.01
		c0.02-1.17-0.58-1.85-1.49-1.84c-0.92,0.02-1.71,0.72-1.71,1.89v4.95h-2.5v-6.03c0-0.85-0.05-1.1-0.83-1.04v-1.53
		c1.13-0.32,3.13-0.61,3.13,1.12c0.47-0.99,1.71-1.37,2.79-1.37c1.51,0,2.23,0.5,2.65,1.57c0.52-1.06,1.8-1.57,3.01-1.57
		c2.47,0,3.04,1.73,2.99,3.83v5.02H122.13z"/>
	<path class="st20" d="M134.84,86.53c-2.63,0.05-4.02-2.09-4.02-4.52c0-2.75,1.87-4.52,4.12-4.52c0.56,0,1.42,0.13,2.02,0.41v-4.72
		h2.52v10.28c0,0.85-0.11,1.31,0.81,1.26l0.02,1.64c-1.26,0.29-2.81,0.27-2.86-1.48C136.96,85.97,135.97,86.51,134.84,86.53z
		 M137.04,80.03c-0.54-0.32-1.12-0.4-1.62-0.4c-1.17,0.02-2.09,0.81-2.09,2.38c0,1.24,0.56,2.29,1.91,2.29c1.1,0,1.8-0.88,1.8-1.94
		V80.03z"/>
	<path class="st20" d="M149.98,82.81h-5.87c0.16,1.42,1.37,1.64,2.3,1.73c1.08,0.05,2.18-0.11,3.22-0.54l0.29,1.78
		c-1.03,0.49-2.21,0.76-3.37,0.76c-2.99,0-4.97-1.69-4.97-4.63s2.32-4.41,4.56-4.41C149.31,77.49,150.65,79.85,149.98,82.81z
		 M144.11,81.24h3.87c0.13-1.13-0.65-1.91-1.84-1.91C144.88,79.33,144.32,80.19,144.11,81.24z"/>
	<path class="st20" d="M155.07,86.48l-4.27-8.52v-0.29h2.7l1.03,2.36l1.04,2.77h0.04l1.06-2.77l1.03-2.36h2.68v0.29l-4.27,8.52
		H155.07z"/>
	<path class="st20" d="M164.45,74.99c0,1.87-2.95,1.85-2.95,0C161.5,73.06,164.45,73.12,164.45,74.99z M164.23,86.35h-2.52v-8.64
		h2.52V86.35z"/>
	<path class="st20" d="M172.59,80.81c-0.31-0.81-0.95-1.15-1.82-1.15c-1.19,0-2.2,0.77-2.2,2.32c0,1.57,1.01,2.45,2.2,2.45
		c0.79,0,1.55-0.49,1.85-1.4h2.39c-0.36,2.32-2.32,3.49-4.32,3.51c-2.29,0.02-4.63-1.49-4.63-4.55c0-3.04,2.36-4.48,4.65-4.48
		c1.96,0,3.87,1.04,4.27,3.31H172.59z"/>
	<path class="st20" d="M184.61,82.81h-5.87c0.16,1.42,1.37,1.64,2.3,1.73c1.08,0.05,2.18-0.11,3.22-0.54l0.29,1.78
		c-1.03,0.49-2.21,0.76-3.37,0.76c-2.99,0-4.97-1.69-4.97-4.63s2.32-4.41,4.56-4.41C183.94,77.49,185.28,79.85,184.61,82.81z
		 M178.74,81.24h3.87c0.13-1.13-0.65-1.91-1.84-1.91C179.52,79.33,178.96,80.19,178.74,81.24z"/>
	<path class="st20" d="M188.62,83.65c0.02,0.72,0.7,1.08,1.42,1.06c0.74,0,1.48-0.25,1.49-1.03c0-0.65-0.63-0.72-1.24-0.81
		c-1.75-0.23-4.02-0.42-4.02-2.52c0-1.94,1.6-2.86,3.73-2.86c2.07,0,3.85,0.94,3.76,2.77h-2.38c-0.02-0.63-0.63-0.92-1.35-0.92
		c-0.77,0-1.33,0.36-1.33,0.94c0,0.65,0.68,0.68,1.24,0.74c1.94,0.23,4.16,0.32,4.1,2.65c-0.05,2.07-1.94,2.86-3.91,2.86
		c-1.96,0-3.96-0.58-4.05-2.88H188.62z"/>
	<path class="st20" d="M203,74.99c0,1.87-2.95,1.85-2.95,0C200.05,73.06,203,73.12,203,74.99z M202.79,86.35h-2.52v-8.64h2.52V86.35
		z"/>
	<path class="st20" d="M211.43,86.35v-5.02c0.05-1.19-0.63-1.84-1.64-1.84c-0.95,0-1.84,0.67-1.84,1.89v4.97h-2.52v-6
		c0-0.86-0.04-1.22-0.83-1.13v-1.57c1.15-0.2,3.17-0.4,3.17,1.17c0.49-1.01,1.76-1.33,2.77-1.33c2.45,0,3.42,1.67,3.42,3.83v5.02
		H211.43z"/>
	<path class="st20" d="M73.1,113.11c-2.63,0.05-4.02-2.09-4.02-4.52c0-2.75,1.87-4.52,4.12-4.52c0.56,0,1.42,0.13,2.02,0.41v-4.72
		h2.52v10.28c0,0.85-0.11,1.31,0.81,1.26l0.02,1.64c-1.26,0.29-2.81,0.27-2.86-1.48C75.22,112.55,74.23,113.09,73.1,113.11z
		 M75.3,106.61c-0.54-0.32-1.12-0.4-1.62-0.4c-1.17,0.02-2.09,0.81-2.09,2.38c0,1.24,0.56,2.29,1.91,2.29c1.1,0,1.8-0.88,1.8-1.94
		V106.61z"/>
	<path class="st20" d="M83.22,101.57c0,1.87-2.95,1.85-2.95,0C80.26,99.64,83.22,99.69,83.22,101.57z M83,112.93h-2.52v-8.64H83
		V112.93z"/>
	<path class="st20" d="M86.17,106.05h-1.6v-1.78h1.64l0.02-1.1c0-2.58,1.37-3.48,3.31-3.48c0.72,0,1.48,0.13,2.27,0.36l-0.25,1.8
		c-0.49-0.18-1.03-0.25-1.49-0.25c-0.85,0-1.44,0.45-1.44,1.62v1.04h2.74v1.78h-2.74v6.88h-2.45V106.05z"/>
	<path class="st20" d="M93.56,106.05h-1.6v-1.78h1.64l0.02-1.1c0-2.58,1.37-3.48,3.31-3.48c0.72,0,1.48,0.13,2.27,0.36l-0.25,1.8
		c-0.49-0.18-1.03-0.25-1.49-0.25c-0.85,0-1.44,0.45-1.44,1.62v1.04h2.74v1.78h-2.74v6.88h-2.45V106.05z"/>
	<path class="st20" d="M107.88,109.38h-5.87c0.16,1.42,1.37,1.64,2.3,1.73c1.08,0.05,2.18-0.11,3.22-0.54l0.29,1.78
		c-1.03,0.49-2.21,0.76-3.37,0.76c-2.99,0-4.97-1.69-4.97-4.63s2.32-4.41,4.56-4.41C107.21,104.07,108.54,106.43,107.88,109.38z
		 M102.01,107.81h3.87c0.13-1.13-0.65-1.91-1.84-1.91C102.78,105.91,102.22,106.77,102.01,107.81z"/>
	<path class="st20" d="M115.06,104.07c0.67-0.02,1.35,0.18,1.85,0.56l-0.56,2.11c-0.52-0.34-1.06-0.49-1.62-0.47
		c-1.1,0-2.03,0.72-2.03,2.05v4.61h-2.47v-6.03c0-0.72-0.07-1.19-0.86-1.06v-1.55c1.26-0.29,3.02-0.29,3.17,1.26
		C112.9,104.56,114,104.07,115.06,104.07z"/>
	<path class="st20" d="M125.91,109.38h-5.87c0.16,1.42,1.37,1.64,2.3,1.73c1.08,0.05,2.18-0.11,3.22-0.54l0.29,1.78
		c-1.03,0.49-2.21,0.76-3.37,0.76c-2.99,0-4.97-1.69-4.97-4.63s2.32-4.41,4.56-4.41C125.25,104.07,126.58,106.43,125.91,109.38z
		 M120.04,107.81h3.87c0.13-1.13-0.65-1.91-1.84-1.91C120.82,105.91,120.26,106.77,120.04,107.81z"/>
	<path class="st20" d="M134.23,112.93v-5.02c0.05-1.19-0.63-1.84-1.64-1.84c-0.95,0-1.84,0.67-1.84,1.89v4.97h-2.52v-6
		c0-0.86-0.04-1.22-0.83-1.13v-1.57c1.15-0.2,3.17-0.4,3.17,1.17c0.49-1.01,1.76-1.33,2.77-1.33c2.45,0,3.42,1.67,3.42,3.83v5.02
		H134.23z"/>
	<path class="st20" d="M142.24,104.27h2.83v1.89h-2.83v3.22c0,1.8,1.49,1.89,2.94,1.37l0.23,1.91c-2.99,0.83-5.64,0.34-5.64-3.22
		v-3.28l-1.64-0.16v-1.73h1.82l0.27-2.7h2.02V104.27z"/>
	<path class="st20" d="M153.85,99.75v9.81c0,1.33,0.52,1.6,1.73,1.4l0.09,1.89c-2.68,0.49-4.3-0.18-4.3-3.29v-9.81H153.85z"/>
	<path class="st20" d="M161.1,113.11c-2.3,0-4.63-1.51-4.63-4.55c0-3.01,2.27-4.47,4.56-4.48c2.32-0.02,4.65,1.42,4.65,4.48
		C165.67,111.6,163.39,113.11,161.1,113.11z M161.05,110.91c1.06,0.02,2.12-0.77,2.12-2.36c0-1.55-1.01-2.27-2.07-2.27
		c-1.06,0-2.12,0.7-2.12,2.27S160,110.91,161.05,110.91z"/>
	<path class="st20" d="M173.49,107.38c-0.31-0.81-0.95-1.15-1.82-1.15c-1.19,0-2.2,0.77-2.2,2.32c0,1.57,1.01,2.45,2.2,2.45
		c0.79,0,1.55-0.49,1.85-1.4h2.39c-0.36,2.32-2.32,3.49-4.32,3.51c-2.29,0.02-4.63-1.49-4.63-4.55c0-3.04,2.36-4.48,4.65-4.48
		c1.96,0,3.87,1.04,4.27,3.31H173.49z"/>
	<path class="st20" d="M180.2,113.11c-2.02,0-3.15-1.06-3.15-2.59c0-1.46,1.15-2.81,3.37-2.81c0.79,0,1.6,0.11,2.3,0.4v-0.85
		c0-0.94-0.88-1.39-1.89-1.39c-1.1,0-2.11,0.29-2.68,0.5l-0.43-1.58c0.99-0.5,2.11-0.7,3.28-0.7c2.23,0,4.14,0.67,4.14,3.17v3.15
		c0,0.74-0.02,1.17,0.81,1.12l0.02,1.4c-1.31,0.29-2.75,0.22-2.75-1.33C182.68,112.68,181.31,113.11,180.2,113.11z M180.9,109.25
		c-0.9,0-1.37,0.45-1.37,1.12c0,0.43,0.38,0.88,1.17,0.88c0.83,0,1.93-0.49,2.02-1.67C182.34,109.4,181.6,109.25,180.9,109.25z"/>
	<path class="st20" d="M190.8,104.27h2.83v1.89h-2.83v3.22c0,1.8,1.49,1.89,2.93,1.37l0.23,1.91c-2.99,0.83-5.64,0.34-5.64-3.22
		v-3.28l-1.64-0.16v-1.73h1.82l0.27-2.7h2.02V104.27z"/>
	<path class="st20" d="M198.34,101.57c0,1.87-2.95,1.85-2.95,0C195.39,99.64,198.34,99.69,198.34,101.57z M198.13,112.93h-2.52
		v-8.64h2.52V112.93z"/>
	<path class="st20" d="M204.59,113.11c-2.3,0-4.63-1.51-4.63-4.55c0-3.01,2.27-4.47,4.56-4.48c2.32-0.02,4.65,1.42,4.65,4.48
		C209.16,111.6,206.88,113.11,204.59,113.11z M204.53,110.91c1.06,0.02,2.12-0.77,2.12-2.36c0-1.55-1.01-2.27-2.07-2.27
		c-1.06,0-2.12,0.7-2.12,2.27S203.49,110.91,204.53,110.91z"/>
	<path class="st20" d="M217.26,112.93v-5.02c0.05-1.19-0.63-1.84-1.64-1.84c-0.95,0-1.84,0.67-1.84,1.89v4.97h-2.52v-6
		c0-0.86-0.04-1.22-0.83-1.13v-1.57c1.15-0.2,3.17-0.4,3.17,1.17c0.49-1.01,1.76-1.33,2.77-1.33c2.45,0,3.42,1.67,3.42,3.83v5.02
		H217.26z"/>
	<path class="st20" d="M224.01,110.23c0.02,0.72,0.7,1.08,1.42,1.06c0.74,0,1.48-0.25,1.49-1.03c0-0.65-0.63-0.72-1.24-0.81
		c-1.75-0.23-4.02-0.41-4.02-2.52c0-1.94,1.6-2.86,3.73-2.86c2.07,0,3.85,0.94,3.76,2.77h-2.38c-0.02-0.63-0.63-0.92-1.35-0.92
		c-0.77,0-1.33,0.36-1.33,0.94c0,0.65,0.68,0.68,1.24,0.74c1.94,0.23,4.16,0.32,4.1,2.65c-0.05,2.07-1.94,2.86-3.91,2.86
		c-1.96,0-3.96-0.58-4.05-2.88H224.01z"/>
</g>
</svg>
