<?xml version="1.0" encoding="utf-8"?>
<!-- Generator: Adobe Illustrator 23.0.0, SVG Export Plug-In . SVG Version: 6.00 Build 0)  -->
<svg version="1.1" id="Layer_1" xmlns="http://www.w3.org/2000/svg" xmlns:xlink="http://www.w3.org/1999/xlink" x="0px" y="0px"
	 viewBox="0 0 272.05 521.09" style="enable-background:new 0 0 272.05 521.09;" xml:space="preserve">
<style type="text/css">
	.st0{fill:#333333;}
	.st1{fill:#292929;}
	.st2{fill:#505353;}
	.st3{fill:#848384;}
	.st4{fill:#00A6CA;}
	.st5{fill:#33B8D5;}
	.st6{fill:#808083;}
	.st7{fill:#33A133;}
	.st8{fill:#008A00;}
	.st9{fill:#CBE3A0;}
	.st10{fill:#A9D161;}
	.st11{fill:#F2C69E;}
	.st12{fill:#EEB482;}
	.st13{fill:#0D0D0D;}
	.st14{fill:#FCD800;}
	.st15{fill:#FDE866;}
	.st16{fill:#F2C69F;}
	.st17{fill:#F16E00;}
	.st18{fill:#EB0000;}
	.st19{fill:#006800;}
	.st20{fill:#FFFFFF;}
	.st21{fill:#F4C7A0;}
	.st22{fill:#EDB888;}
	.st23{fill:#EFB582;}
	.st24{fill:#33859D;}
	.st25{fill:#006685;}
	.st26{fill:#494949;}
</style>
<g>
	<path class="st0" d="M39.5,262.96c0,5.52,4.48,10,10,10h206.26c5.52,0,10-4.48,10-10V137.47c0-5.52-4.48-10-10-10H49.5
		c-5.52,0-10,4.48-10,10V262.96z"/>
	<path class="st1" d="M119.84,266.33c0,1.6,1.3,2.9,2.9,2.9h59.77c1.6,0,2.9-1.3,2.9-2.9v-36.36c0-1.6-1.3-2.9-2.9-2.9h-59.77
		c-1.6,0-2.9,1.3-2.9,2.9V266.33z"/>
	<g>
		<path class="st2" d="M235.7,154.81c0,1.18,0.95,2.13,2.13,2.13h12.14c1.18,0,2.13-0.95,2.13-2.13v-4.42
			c0-1.18-0.95-2.13-2.13-2.13h-12.14c-1.18,0-2.13,0.95-2.13,2.13V154.81z"/>
		<path d="M249.97,156.94h-12.14c-1.18,0-2.13-0.95-2.13-2.13v-4.42c0-0.68,0.33-1.29,0.83-1.68l1.21,1.34l11.88,4.38l1.83,1.9
			C251.07,156.71,250.55,156.94,249.97,156.94z"/>
		<path class="st3" d="M237.5,153.1c0,0.92,0.74,1.66,1.66,1.66h9.48c0.92,0,1.66-0.74,1.66-1.66v-2.2c0-0.92-0.74-1.66-1.66-1.66
			h-9.48c-0.92,0-1.66,0.74-1.66,1.66V153.1z"/>
	</g>
	<g>
		<path class="st2" d="M217.43,154.81c0,1.18,0.95,2.13,2.13,2.13h12.14c1.18,0,2.13-0.95,2.13-2.13v-4.42
			c0-1.18-0.95-2.13-2.13-2.13h-12.14c-1.18,0-2.13,0.95-2.13,2.13V154.81z"/>
		<path d="M231.71,156.94h-12.14c-1.18,0-2.13-0.95-2.13-2.13v-4.42c0-0.68,0.33-1.29,0.83-1.68l1.21,1.34l11.88,4.38l1.83,1.9
			C232.8,156.71,232.28,156.94,231.71,156.94z"/>
		<path class="st3" d="M219.23,153.1c0,0.92,0.74,1.66,1.66,1.66h9.48c0.92,0,1.66-0.74,1.66-1.66v-2.2c0-0.92-0.74-1.66-1.66-1.66
			h-9.48c-0.92,0-1.66,0.74-1.66,1.66V153.1z"/>
	</g>
	<g>
		<path class="st2" d="M199.17,154.81c0,1.18,0.95,2.13,2.13,2.13h12.14c1.18,0,2.13-0.95,2.13-2.13v-4.42
			c0-1.18-0.95-2.13-2.13-2.13H201.3c-1.18,0-2.13,0.95-2.13,2.13V154.81z"/>
		<path d="M213.44,156.94H201.3c-1.18,0-2.13-0.95-2.13-2.13v-4.42c0-0.68,0.33-1.29,0.83-1.68l1.21,1.34l11.88,4.38l1.83,1.9
			C214.54,156.71,214.02,156.94,213.44,156.94z"/>
		<path class="st3" d="M200.97,153.1c0,0.92,0.74,1.66,1.66,1.66h9.48c0.92,0,1.66-0.74,1.66-1.66v-2.2c0-0.92-0.74-1.66-1.66-1.66
			h-9.48c-0.92,0-1.66,0.74-1.66,1.66V153.1z"/>
	</g>
	<g>
		<path class="st2" d="M180.9,154.81c0,1.18,0.95,2.13,2.13,2.13h12.14c1.18,0,2.13-0.95,2.13-2.13v-4.42
			c0-1.18-0.95-2.13-2.13-2.13h-12.14c-1.18,0-2.13,0.95-2.13,2.13V154.81z"/>
		<path d="M195.17,156.94h-12.14c-1.18,0-2.13-0.95-2.13-2.13v-4.42c0-0.68,0.33-1.29,0.83-1.68l1.21,1.34l11.88,4.38l1.83,1.9
			C196.27,156.71,195.75,156.94,195.17,156.94z"/>
		<path class="st3" d="M182.7,153.1c0,0.92,0.74,1.66,1.66,1.66h9.48c0.92,0,1.66-0.74,1.66-1.66v-2.2c0-0.92-0.74-1.66-1.66-1.66
			h-9.48c-0.92,0-1.66,0.74-1.66,1.66V153.1z"/>
	</g>
	<g>
		<path class="st2" d="M162.63,154.81c0,1.18,0.95,2.13,2.13,2.13h12.14c1.18,0,2.13-0.95,2.13-2.13v-4.42
			c0-1.18-0.95-2.13-2.13-2.13h-12.14c-1.18,0-2.13,0.95-2.13,2.13V154.81z"/>
		<path d="M176.91,156.94h-12.14c-1.18,0-2.13-0.95-2.13-2.13v-4.42c0-0.68,0.33-1.29,0.83-1.68l1.21,1.34l11.88,4.38l1.83,1.9
			C178,156.71,177.48,156.94,176.91,156.94z"/>
		<path class="st3" d="M164.43,153.1c0,0.92,0.74,1.66,1.66,1.66h9.48c0.92,0,1.66-0.74,1.66-1.66v-2.2c0-0.92-0.74-1.66-1.66-1.66
			h-9.48c-0.92,0-1.66,0.74-1.66,1.66V153.1z"/>
	</g>
	<g>
		<path class="st2" d="M144.37,154.81c0,1.18,0.95,2.13,2.13,2.13h12.14c1.18,0,2.13-0.95,2.13-2.13v-4.42
			c0-1.18-0.95-2.13-2.13-2.13H146.5c-1.18,0-2.13,0.95-2.13,2.13V154.81z"/>
		<path d="M158.64,156.94H146.5c-1.18,0-2.13-0.95-2.13-2.13v-4.42c0-0.68,0.33-1.29,0.83-1.68l1.21,1.34l11.88,4.38l1.83,1.9
			C159.74,156.71,159.22,156.94,158.64,156.94z"/>
		<path class="st3" d="M146.17,153.1c0,0.92,0.74,1.66,1.66,1.66h9.48c0.92,0,1.66-0.74,1.66-1.66v-2.2c0-0.92-0.74-1.66-1.66-1.66
			h-9.48c-0.92,0-1.66,0.74-1.66,1.66V153.1z"/>
	</g>
	<g>
		<path class="st2" d="M126.1,154.81c0,1.18,0.95,2.13,2.13,2.13h12.14c1.18,0,2.13-0.95,2.13-2.13v-4.42
			c0-1.18-0.95-2.13-2.13-2.13h-12.14c-1.18,0-2.13,0.95-2.13,2.13V154.81z"/>
		<path d="M140.37,156.94h-12.14c-1.18,0-2.13-0.95-2.13-2.13v-4.42c0-0.68,0.33-1.29,0.83-1.68l1.21,1.34l11.88,4.38l1.83,1.9
			C141.47,156.71,140.95,156.94,140.37,156.94z"/>
		<path class="st3" d="M127.9,153.1c0,0.92,0.74,1.66,1.66,1.66h9.48c0.92,0,1.66-0.74,1.66-1.66v-2.2c0-0.92-0.74-1.66-1.66-1.66
			h-9.48c-0.92,0-1.66,0.74-1.66,1.66V153.1z"/>
	</g>
	<g>
		<path class="st2" d="M107.83,154.81c0,1.18,0.95,2.13,2.13,2.13h12.14c1.18,0,2.13-0.95,2.13-2.13v-4.42
			c0-1.18-0.95-2.13-2.13-2.13h-12.14c-1.18,0-2.13,0.95-2.13,2.13V154.81z"/>
		<path d="M122.11,156.94h-12.14c-1.18,0-2.13-0.95-2.13-2.13v-4.42c0-0.68,0.33-1.29,0.83-1.68l1.21,1.34l11.88,4.38l1.83,1.9
			C123.2,156.71,122.68,156.94,122.11,156.94z"/>
		<path class="st3" d="M109.64,153.1c0,0.92,0.74,1.66,1.66,1.66h9.48c0.92,0,1.66-0.74,1.66-1.66v-2.2c0-0.92-0.74-1.66-1.66-1.66
			h-9.48c-0.92,0-1.66,0.74-1.66,1.66V153.1z"/>
	</g>
	<g>
		<path class="st2" d="M89.57,154.81c0,1.18,0.95,2.13,2.13,2.13h12.14c1.18,0,2.13-0.95,2.13-2.13v-4.42
			c0-1.18-0.95-2.13-2.13-2.13H91.7c-1.18,0-2.13,0.95-2.13,2.13V154.81z"/>
		<path d="M103.84,156.94H91.7c-1.18,0-2.13-0.95-2.13-2.13v-4.42c0-0.68,0.33-1.29,0.83-1.68l1.21,1.34l11.88,4.38l1.83,1.9
			C104.94,156.71,104.42,156.94,103.84,156.94z"/>
		<path class="st3" d="M91.37,153.1c0,0.92,0.74,1.66,1.66,1.66h9.48c0.92,0,1.66-0.74,1.66-1.66v-2.2c0-0.92-0.74-1.66-1.66-1.66
			h-9.48c-0.92,0-1.66,0.74-1.66,1.66V153.1z"/>
	</g>
	<g>
		<path class="st2" d="M71.3,154.81c0,1.18,0.95,2.13,2.13,2.13h12.14c1.18,0,2.13-0.95,2.13-2.13v-4.42c0-1.18-0.95-2.13-2.13-2.13
			H73.43c-1.18,0-2.13,0.95-2.13,2.13V154.81z"/>
		<path d="M85.58,156.94H73.43c-1.18,0-2.13-0.95-2.13-2.13v-4.42c0-0.68,0.33-1.29,0.83-1.68l1.21,1.34l11.88,4.38l1.83,1.9
			C86.67,156.71,86.15,156.94,85.58,156.94z"/>
		<path class="st3" d="M73.1,153.1c0,0.92,0.74,1.66,1.66,1.66h9.48c0.92,0,1.66-0.74,1.66-1.66v-2.2c0-0.92-0.74-1.66-1.66-1.66
			h-9.48c-0.92,0-1.66,0.74-1.66,1.66V153.1z"/>
	</g>
	<g>
		<path class="st2" d="M53.04,154.81c0,1.18,0.95,2.13,2.13,2.13h12.14c1.18,0,2.13-0.95,2.13-2.13v-4.42
			c0-1.18-0.95-2.13-2.13-2.13H55.16c-1.18,0-2.13,0.95-2.13,2.13V154.81z"/>
		<path d="M67.31,156.94H55.16c-1.18,0-2.13-0.95-2.13-2.13v-4.42c0-0.68,0.33-1.29,0.83-1.68l1.21,1.34l11.88,4.38l1.83,1.9
			C68.41,156.71,67.89,156.94,67.31,156.94z"/>
		<path class="st3" d="M54.84,153.1c0,0.92,0.74,1.66,1.66,1.66h9.48c0.92,0,1.66-0.74,1.66-1.66v-2.2c0-0.92-0.74-1.66-1.66-1.66
			H56.5c-0.92,0-1.66,0.74-1.66,1.66V153.1z"/>
	</g>
	<g>
		<g>
			<path class="st2" d="M235.7,172.98c0,1.18,0.95,2.13,2.13,2.13h12.14c1.18,0,2.13-0.95,2.13-2.13v-10.36
				c0-1.18-0.95-2.13-2.13-2.13h-12.14c-1.18,0-2.13,0.95-2.13,2.13V172.98z"/>
			<path d="M249.97,175.11h-12.14c-1.18,0-2.13-0.95-2.13-2.13v-10.36c0-0.68,0.33-1.29,0.83-1.67l1.21,1.34l11.88,10.32l1.83,1.9
				C251.07,174.88,250.55,175.11,249.97,175.11z"/>
			<path class="st3" d="M237.5,171.27c0,0.92,0.74,1.66,1.66,1.66h9.48c0.92,0,1.66-0.74,1.66-1.66v-8.14
				c0-0.92-0.74-1.66-1.66-1.66h-9.48c-0.92,0-1.66,0.74-1.66,1.66V171.27z"/>
		</g>
		<g>
			<path class="st2" d="M217.43,172.98c0,1.18,0.95,2.13,2.13,2.13h12.14c1.18,0,2.13-0.95,2.13-2.13v-10.36
				c0-1.18-0.95-2.13-2.13-2.13h-12.14c-1.18,0-2.13,0.95-2.13,2.13V172.98z"/>
			<path d="M231.71,175.11h-12.14c-1.18,0-2.13-0.95-2.13-2.13v-10.36c0-0.68,0.33-1.29,0.83-1.67l1.21,1.34l11.88,10.32l1.83,1.9
				C232.8,174.88,232.28,175.11,231.71,175.11z"/>
			<path class="st3" d="M219.23,171.27c0,0.92,0.74,1.66,1.66,1.66h9.48c0.92,0,1.66-0.74,1.66-1.66v-8.14
				c0-0.92-0.74-1.66-1.66-1.66h-9.48c-0.92,0-1.66,0.74-1.66,1.66V171.27z"/>
		</g>
		<g>
			<path class="st2" d="M199.17,172.98c0,1.18,0.95,2.13,2.13,2.13h12.14c1.18,0,2.13-0.95,2.13-2.13v-10.36
				c0-1.18-0.95-2.13-2.13-2.13H201.3c-1.18,0-2.13,0.95-2.13,2.13V172.98z"/>
			<path d="M213.44,175.11H201.3c-1.18,0-2.13-0.95-2.13-2.13v-10.36c0-0.68,0.33-1.29,0.83-1.67l1.21,1.34l11.88,10.32l1.83,1.9
				C214.54,174.88,214.02,175.11,213.44,175.11z"/>
			<path class="st3" d="M200.97,171.27c0,0.92,0.74,1.66,1.66,1.66h9.48c0.92,0,1.66-0.74,1.66-1.66v-8.14
				c0-0.92-0.74-1.66-1.66-1.66h-9.48c-0.92,0-1.66,0.74-1.66,1.66V171.27z"/>
		</g>
		<g>
			<path class="st2" d="M180.9,172.98c0,1.18,0.95,2.13,2.13,2.13h12.14c1.18,0,2.13-0.95,2.13-2.13v-10.36
				c0-1.18-0.95-2.13-2.13-2.13h-12.14c-1.18,0-2.13,0.95-2.13,2.13V172.98z"/>
			<path d="M195.17,175.11h-12.14c-1.18,0-2.13-0.95-2.13-2.13v-10.36c0-0.68,0.33-1.29,0.83-1.67l1.21,1.34l11.88,10.32l1.83,1.9
				C196.27,174.88,195.75,175.11,195.17,175.11z"/>
			<path class="st3" d="M182.7,171.27c0,0.92,0.74,1.66,1.66,1.66h9.48c0.92,0,1.66-0.74,1.66-1.66v-8.14
				c0-0.92-0.74-1.66-1.66-1.66h-9.48c-0.92,0-1.66,0.74-1.66,1.66V171.27z"/>
		</g>
		<g>
			<path class="st2" d="M162.63,172.98c0,1.18,0.95,2.13,2.13,2.13h12.14c1.18,0,2.13-0.95,2.13-2.13v-10.36
				c0-1.18-0.95-2.13-2.13-2.13h-12.14c-1.18,0-2.13,0.95-2.13,2.13V172.98z"/>
			<path d="M176.91,175.11h-12.14c-1.18,0-2.13-0.95-2.13-2.13v-10.36c0-0.68,0.33-1.29,0.83-1.67l1.21,1.34l11.88,10.32l1.83,1.9
				C178,174.88,177.48,175.11,176.91,175.11z"/>
			<path class="st3" d="M164.43,171.27c0,0.92,0.74,1.66,1.66,1.66h9.48c0.92,0,1.66-0.74,1.66-1.66v-8.14
				c0-0.92-0.74-1.66-1.66-1.66h-9.48c-0.92,0-1.66,0.74-1.66,1.66V171.27z"/>
		</g>
		<g>
			<path class="st2" d="M144.37,172.98c0,1.18,0.95,2.13,2.13,2.13h12.14c1.18,0,2.13-0.95,2.13-2.13v-10.36
				c0-1.18-0.95-2.13-2.13-2.13H146.5c-1.18,0-2.13,0.95-2.13,2.13V172.98z"/>
			<path d="M158.64,175.11H146.5c-1.18,0-2.13-0.95-2.13-2.13v-10.36c0-0.68,0.33-1.29,0.83-1.67l1.21,1.34l11.88,10.32l1.83,1.9
				C159.74,174.88,159.22,175.11,158.64,175.11z"/>
			<path class="st3" d="M146.17,171.27c0,0.92,0.74,1.66,1.66,1.66h9.48c0.92,0,1.66-0.74,1.66-1.66v-8.14
				c0-0.92-0.74-1.66-1.66-1.66h-9.48c-0.92,0-1.66,0.74-1.66,1.66V171.27z"/>
		</g>
		<g>
			<path class="st2" d="M126.1,172.98c0,1.18,0.95,2.13,2.13,2.13h12.14c1.18,0,2.13-0.95,2.13-2.13v-10.36
				c0-1.18-0.95-2.13-2.13-2.13h-12.14c-1.18,0-2.13,0.95-2.13,2.13V172.98z"/>
			<path d="M140.37,175.11h-12.14c-1.18,0-2.13-0.95-2.13-2.13v-10.36c0-0.68,0.33-1.29,0.83-1.67l1.21,1.34l11.88,10.32l1.83,1.9
				C141.47,174.88,140.95,175.11,140.37,175.11z"/>
			<path class="st3" d="M127.9,171.27c0,0.92,0.74,1.66,1.66,1.66h9.48c0.92,0,1.66-0.74,1.66-1.66v-8.14
				c0-0.92-0.74-1.66-1.66-1.66h-9.48c-0.92,0-1.66,0.74-1.66,1.66V171.27z"/>
		</g>
		<g>
			<path class="st2" d="M107.83,172.98c0,1.18,0.95,2.13,2.13,2.13h12.14c1.18,0,2.13-0.95,2.13-2.13v-10.36
				c0-1.18-0.95-2.13-2.13-2.13h-12.14c-1.18,0-2.13,0.95-2.13,2.13V172.98z"/>
			<path d="M122.11,175.11h-12.14c-1.18,0-2.13-0.95-2.13-2.13v-10.36c0-0.68,0.33-1.29,0.83-1.67l1.21,1.34l11.88,10.32l1.83,1.9
				C123.2,174.88,122.68,175.11,122.11,175.11z"/>
			<path class="st3" d="M109.64,171.27c0,0.92,0.74,1.66,1.66,1.66h9.48c0.92,0,1.66-0.74,1.66-1.66v-8.14
				c0-0.92-0.74-1.66-1.66-1.66h-9.48c-0.92,0-1.66,0.74-1.66,1.66V171.27z"/>
		</g>
		<g>
			<path class="st2" d="M89.57,172.98c0,1.18,0.95,2.13,2.13,2.13h12.14c1.18,0,2.13-0.95,2.13-2.13v-10.36
				c0-1.18-0.95-2.13-2.13-2.13H91.7c-1.18,0-2.13,0.95-2.13,2.13V172.98z"/>
			<path d="M103.84,175.11H91.7c-1.18,0-2.13-0.95-2.13-2.13v-10.36c0-0.68,0.33-1.29,0.83-1.67l1.21,1.34l11.88,10.32l1.83,1.9
				C104.94,174.88,104.42,175.11,103.84,175.11z"/>
			<path class="st3" d="M91.37,171.27c0,0.92,0.74,1.66,1.66,1.66h9.48c0.92,0,1.66-0.74,1.66-1.66v-8.14
				c0-0.92-0.74-1.66-1.66-1.66h-9.48c-0.92,0-1.66,0.74-1.66,1.66V171.27z"/>
		</g>
		<g>
			<path class="st2" d="M71.3,172.98c0,1.18,0.95,2.13,2.13,2.13h12.14c1.18,0,2.13-0.95,2.13-2.13v-10.36
				c0-1.18-0.95-2.13-2.13-2.13H73.43c-1.18,0-2.13,0.95-2.13,2.13V172.98z"/>
			<path d="M85.58,175.11H73.43c-1.18,0-2.13-0.95-2.13-2.13v-10.36c0-0.68,0.33-1.29,0.83-1.67l1.21,1.34l11.88,10.32l1.83,1.9
				C86.67,174.88,86.15,175.11,85.58,175.11z"/>
			<path class="st3" d="M73.1,171.27c0,0.92,0.74,1.66,1.66,1.66h9.48c0.92,0,1.66-0.74,1.66-1.66v-8.14c0-0.92-0.74-1.66-1.66-1.66
				h-9.48c-0.92,0-1.66,0.74-1.66,1.66V171.27z"/>
		</g>
		<path class="st2" d="M53.04,188.67c0,1.18,0.95,2.13,2.13,2.13h12.14c1.18,0,2.13-0.95,2.13-2.13v-26.04
			c0-1.18-0.95-2.13-2.13-2.13H55.16c-1.18,0-2.13,0.95-2.13,2.13V188.67z"/>
	</g>
	<g>
		<g>
			<path class="st2" d="M235.7,204.89c0,1.18,0.95,2.13,2.13,2.13h12.14c1.18,0,2.13-0.95,2.13-2.13v-10.36
				c0-1.18-0.95-2.13-2.13-2.13h-12.14c-1.18,0-2.13,0.95-2.13,2.13V204.89z"/>
			<path d="M249.97,207.02h-12.14c-1.18,0-2.13-0.95-2.13-2.13v-10.36c0-0.68,0.33-1.29,0.83-1.68l1.21,1.34l11.88,10.32l1.83,1.9
				C251.07,206.79,250.55,207.02,249.97,207.02z"/>
			<path class="st3" d="M237.5,203.18c0,0.92,0.74,1.66,1.66,1.66h9.48c0.92,0,1.66-0.74,1.66-1.66v-8.14
				c0-0.92-0.74-1.66-1.66-1.66h-9.48c-0.92,0-1.66,0.74-1.66,1.66V203.18z"/>
		</g>
		<g>
			<path class="st2" d="M217.43,204.89c0,1.18,0.95,2.13,2.13,2.13h12.14c1.18,0,2.13-0.95,2.13-2.13v-10.36
				c0-1.18-0.95-2.13-2.13-2.13h-12.14c-1.18,0-2.13,0.95-2.13,2.13V204.89z"/>
			<path d="M231.71,207.02h-12.14c-1.18,0-2.13-0.95-2.13-2.13v-10.36c0-0.68,0.33-1.29,0.83-1.68l1.21,1.34l11.88,10.32l1.83,1.9
				C232.8,206.79,232.28,207.02,231.71,207.02z"/>
			<path class="st3" d="M219.23,203.18c0,0.92,0.74,1.66,1.66,1.66h9.48c0.92,0,1.66-0.74,1.66-1.66v-8.14
				c0-0.92-0.74-1.66-1.66-1.66h-9.48c-0.92,0-1.66,0.74-1.66,1.66V203.18z"/>
		</g>
		<g>
			<path class="st2" d="M199.17,204.89c0,1.18,0.95,2.13,2.13,2.13h12.14c1.18,0,2.13-0.95,2.13-2.13v-10.36
				c0-1.18-0.95-2.13-2.13-2.13H201.3c-1.18,0-2.13,0.95-2.13,2.13V204.89z"/>
			<path d="M213.44,207.02H201.3c-1.18,0-2.13-0.95-2.13-2.13v-10.36c0-0.68,0.33-1.29,0.83-1.68l1.21,1.34l11.88,10.32l1.83,1.9
				C214.54,206.79,214.02,207.02,213.44,207.02z"/>
			<path class="st3" d="M200.97,203.18c0,0.92,0.74,1.66,1.66,1.66h9.48c0.92,0,1.66-0.74,1.66-1.66v-8.14
				c0-0.92-0.74-1.66-1.66-1.66h-9.48c-0.92,0-1.66,0.74-1.66,1.66V203.18z"/>
		</g>
		<g>
			<path class="st2" d="M180.9,204.89c0,1.18,0.95,2.13,2.13,2.13h12.14c1.18,0,2.13-0.95,2.13-2.13v-10.36
				c0-1.18-0.95-2.13-2.13-2.13h-12.14c-1.18,0-2.13,0.95-2.13,2.13V204.89z"/>
			<path d="M195.17,207.02h-12.14c-1.18,0-2.13-0.95-2.13-2.13v-10.36c0-0.68,0.33-1.29,0.83-1.68l1.21,1.34l11.88,10.32l1.83,1.9
				C196.27,206.79,195.75,207.02,195.17,207.02z"/>
			<path class="st3" d="M182.7,203.18c0,0.92,0.74,1.66,1.66,1.66h9.48c0.92,0,1.66-0.74,1.66-1.66v-8.14
				c0-0.92-0.74-1.66-1.66-1.66h-9.48c-0.92,0-1.66,0.74-1.66,1.66V203.18z"/>
		</g>
		<g>
			<path class="st2" d="M162.63,204.89c0,1.18,0.95,2.13,2.13,2.13h12.14c1.18,0,2.13-0.95,2.13-2.13v-10.36
				c0-1.18-0.95-2.13-2.13-2.13h-12.14c-1.18,0-2.13,0.95-2.13,2.13V204.89z"/>
			<path d="M176.91,207.02h-12.14c-1.18,0-2.13-0.95-2.13-2.13v-10.36c0-0.68,0.33-1.29,0.83-1.68l1.21,1.34l11.88,10.32l1.83,1.9
				C178,206.79,177.48,207.02,176.91,207.02z"/>
			<path class="st3" d="M164.43,203.18c0,0.92,0.74,1.66,1.66,1.66h9.48c0.92,0,1.66-0.74,1.66-1.66v-8.14
				c0-0.92-0.74-1.66-1.66-1.66h-9.48c-0.92,0-1.66,0.74-1.66,1.66V203.18z"/>
		</g>
		<g>
			<path class="st2" d="M144.37,204.89c0,1.18,0.95,2.13,2.13,2.13h12.14c1.18,0,2.13-0.95,2.13-2.13v-10.36
				c0-1.18-0.95-2.13-2.13-2.13H146.5c-1.18,0-2.13,0.95-2.13,2.13V204.89z"/>
			<path d="M158.64,207.02H146.5c-1.18,0-2.13-0.95-2.13-2.13v-10.36c0-0.68,0.33-1.29,0.83-1.68l1.21,1.34l11.88,10.32l1.83,1.9
				C159.74,206.79,159.22,207.02,158.64,207.02z"/>
			<path class="st3" d="M146.17,203.18c0,0.92,0.74,1.66,1.66,1.66h9.48c0.92,0,1.66-0.74,1.66-1.66v-8.14
				c0-0.92-0.74-1.66-1.66-1.66h-9.48c-0.92,0-1.66,0.74-1.66,1.66V203.18z"/>
		</g>
		<g>
			<path class="st2" d="M126.1,204.89c0,1.18,0.95,2.13,2.13,2.13h12.14c1.18,0,2.13-0.95,2.13-2.13v-10.36
				c0-1.18-0.95-2.13-2.13-2.13h-12.14c-1.18,0-2.13,0.95-2.13,2.13V204.89z"/>
			<path d="M140.37,207.02h-12.14c-1.18,0-2.13-0.95-2.13-2.13v-10.36c0-0.68,0.33-1.29,0.83-1.68l1.21,1.34l11.88,10.32l1.83,1.9
				C141.47,206.79,140.95,207.02,140.37,207.02z"/>
			<path class="st3" d="M127.9,203.18c0,0.92,0.74,1.66,1.66,1.66h9.48c0.92,0,1.66-0.74,1.66-1.66v-8.14
				c0-0.92-0.74-1.66-1.66-1.66h-9.48c-0.92,0-1.66,0.74-1.66,1.66V203.18z"/>
		</g>
		<g>
			<path class="st2" d="M107.83,204.89c0,1.18,0.95,2.13,2.13,2.13h12.14c1.18,0,2.13-0.95,2.13-2.13v-10.36
				c0-1.18-0.95-2.13-2.13-2.13h-12.14c-1.18,0-2.13,0.95-2.13,2.13V204.89z"/>
			<path d="M122.11,207.02h-12.14c-1.18,0-2.13-0.95-2.13-2.13v-10.36c0-0.68,0.33-1.29,0.83-1.68l1.21,1.34l11.88,10.32l1.83,1.9
				C123.2,206.79,122.68,207.02,122.11,207.02z"/>
			<path class="st3" d="M109.64,203.18c0,0.92,0.74,1.66,1.66,1.66h9.48c0.92,0,1.66-0.74,1.66-1.66v-8.14
				c0-0.92-0.74-1.66-1.66-1.66h-9.48c-0.92,0-1.66,0.74-1.66,1.66V203.18z"/>
		</g>
		<g>
			<path class="st2" d="M89.57,204.89c0,1.18,0.95,2.13,2.13,2.13h12.14c1.18,0,2.13-0.95,2.13-2.13v-10.36
				c0-1.18-0.95-2.13-2.13-2.13H91.7c-1.18,0-2.13,0.95-2.13,2.13V204.89z"/>
			<path d="M103.84,207.02H91.7c-1.18,0-2.13-0.95-2.13-2.13v-10.36c0-0.68,0.33-1.29,0.83-1.68l1.21,1.34l11.88,10.32l1.83,1.9
				C104.94,206.79,104.42,207.02,103.84,207.02z"/>
			<path class="st3" d="M91.37,203.18c0,0.92,0.74,1.66,1.66,1.66h9.48c0.92,0,1.66-0.74,1.66-1.66v-8.14
				c0-0.92-0.74-1.66-1.66-1.66h-9.48c-0.92,0-1.66,0.74-1.66,1.66V203.18z"/>
		</g>
		<g>
			<path class="st2" d="M71.3,204.89c0,1.18,0.95,2.13,2.13,2.13h12.14c1.18,0,2.13-0.95,2.13-2.13v-10.36
				c0-1.18-0.95-2.13-2.13-2.13H73.43c-1.18,0-2.13,0.95-2.13,2.13V204.89z"/>
			<path d="M85.58,207.02H73.43c-1.18,0-2.13-0.95-2.13-2.13v-10.36c0-0.68,0.33-1.29,0.83-1.68l1.21,1.34l11.88,10.32l1.83,1.9
				C86.67,206.79,86.15,207.02,85.58,207.02z"/>
			<path class="st3" d="M73.1,203.18c0,0.92,0.74,1.66,1.66,1.66h9.48c0.92,0,1.66-0.74,1.66-1.66v-8.14c0-0.92-0.74-1.66-1.66-1.66
				h-9.48c-0.92,0-1.66,0.74-1.66,1.66V203.18z"/>
		</g>
		<g>
			<path class="st2" d="M53.04,204.89c0,1.18,0.95,2.13,2.13,2.13h12.14c1.18,0,2.13-0.95,2.13-2.13v-10.36
				c0-1.18-0.95-2.13-2.13-2.13H55.16c-1.18,0-2.13,0.95-2.13,2.13V204.89z"/>
			<path d="M67.31,207.02H55.16c-1.18,0-2.13-0.95-2.13-2.13v-10.36c0-0.68,0.33-1.29,0.83-1.68l1.21,1.34l11.88,10.32l1.83,1.9
				C68.41,206.79,67.89,207.02,67.31,207.02z"/>
			<path class="st3" d="M54.84,203.18c0,0.92,0.74,1.66,1.66,1.66h9.48c0.92,0,1.66-0.74,1.66-1.66v-8.14
				c0-0.92-0.74-1.66-1.66-1.66H56.5c-0.92,0-1.66,0.74-1.66,1.66V203.18z"/>
		</g>
	</g>
	<g>
		<g>
			<path class="st2" d="M226.95,221.25c0,1.18,0.95,2.13,2.13,2.13h20.57c1.18,0,2.13-0.95,2.13-2.13v-10.36
				c0-1.18-0.95-2.13-2.13-2.13h-20.57c-1.18,0-2.13,0.95-2.13,2.13V221.25z"/>
			<path d="M249.65,223.38h-20.57c-1.18,0-2.13-0.95-2.13-2.13v-10.36c0-0.68,0.33-1.29,0.83-1.67l1.21,1.34l20.31,10.32l1.83,1.9
				C250.74,223.15,250.22,223.38,249.65,223.38z"/>
			<path class="st3" d="M228.75,219.54c0,0.92,0.74,1.66,1.66,1.66h17.91c0.92,0,1.66-0.74,1.66-1.66v-8.14
				c0-0.92-0.74-1.66-1.66-1.66h-17.91c-0.92,0-1.66,0.74-1.66,1.66V219.54z"/>
		</g>
		<g>
			<path class="st2" d="M208.11,221.25c0,1.18,0.95,2.13,2.13,2.13h12.14c1.18,0,2.13-0.95,2.13-2.13v-10.36
				c0-1.18-0.95-2.13-2.13-2.13h-12.14c-1.18,0-2.13,0.95-2.13,2.13V221.25z"/>
			<path d="M222.39,223.38h-12.14c-1.18,0-2.13-0.95-2.13-2.13v-10.36c0-0.68,0.33-1.29,0.83-1.67l1.21,1.34l11.88,10.32l1.83,1.9
				C223.48,223.15,222.96,223.38,222.39,223.38z"/>
			<path class="st3" d="M209.91,219.54c0,0.92,0.74,1.66,1.66,1.66h9.48c0.92,0,1.66-0.74,1.66-1.66v-8.14
				c0-0.92-0.74-1.66-1.66-1.66h-9.48c-0.92,0-1.66,0.74-1.66,1.66V219.54z"/>
		</g>
		<g>
			<path class="st2" d="M189.85,221.25c0,1.18,0.95,2.13,2.13,2.13h12.14c1.18,0,2.13-0.95,2.13-2.13v-10.36
				c0-1.18-0.95-2.13-2.13-2.13h-12.14c-1.18,0-2.13,0.95-2.13,2.13V221.25z"/>
			<path d="M204.12,223.38h-12.14c-1.18,0-2.13-0.95-2.13-2.13v-10.36c0-0.68,0.33-1.29,0.83-1.67l1.21,1.34l11.88,10.32l1.83,1.9
				C205.22,223.15,204.7,223.38,204.12,223.38z"/>
			<path class="st3" d="M191.65,219.54c0,0.92,0.74,1.66,1.66,1.66h9.48c0.92,0,1.66-0.74,1.66-1.66v-8.14
				c0-0.92-0.74-1.66-1.66-1.66h-9.48c-0.92,0-1.66,0.74-1.66,1.66V219.54z"/>
		</g>
		<g>
			<path class="st2" d="M107.52,221.25c0,1.18,0.95,2.13,2.13,2.13h76.21c1.18,0,2.13-0.95,2.13-2.13v-10.36
				c0-1.18-0.95-2.13-2.13-2.13h-76.21c-1.18,0-2.13,0.95-2.13,2.13V221.25z"/>
			<path d="M185.86,223.38h-76.21c-1.18,0-2.13-0.95-2.13-2.13v-10.36c0-0.68,0.33-1.29,0.83-1.67l1.21,1.34l75.95,10.32l1.83,1.9
				C186.95,223.15,186.43,223.38,185.86,223.38z"/>
			<path class="st3" d="M109.32,219.54c0,0.92,0.74,1.66,1.66,1.66h73.54c0.92,0,1.66-0.74,1.66-1.66v-8.14
				c0-0.92-0.74-1.66-1.66-1.66h-73.54c-0.92,0-1.66,0.74-1.66,1.66V219.54z"/>
		</g>
		<g>
			<path class="st2" d="M89.24,221.25c0,1.18,0.95,2.13,2.13,2.13h12.14c1.18,0,2.13-0.95,2.13-2.13v-10.36
				c0-1.18-0.95-2.13-2.13-2.13H91.37c-1.18,0-2.13,0.95-2.13,2.13V221.25z"/>
			<path d="M103.52,223.38H91.37c-1.18,0-2.13-0.95-2.13-2.13v-10.36c0-0.68,0.33-1.29,0.83-1.67l1.21,1.34l11.88,10.32l1.83,1.9
				C104.61,223.15,104.09,223.38,103.52,223.38z"/>
			<path class="st3" d="M91.04,219.54c0,0.92,0.74,1.66,1.66,1.66h9.48c0.92,0,1.66-0.74,1.66-1.66v-8.14
				c0-0.92-0.74-1.66-1.66-1.66h-9.48c-0.92,0-1.66,0.74-1.66,1.66V219.54z"/>
		</g>
		<g>
			<path class="st2" d="M70.98,221.25c0,1.18,0.95,2.13,2.13,2.13h12.14c1.18,0,2.13-0.95,2.13-2.13v-10.36
				c0-1.18-0.95-2.13-2.13-2.13H73.11c-1.18,0-2.13,0.95-2.13,2.13V221.25z"/>
			<path d="M85.25,223.38H73.11c-1.18,0-2.13-0.95-2.13-2.13v-10.36c0-0.68,0.33-1.29,0.83-1.67l1.21,1.34l11.88,10.32l1.83,1.9
				C86.35,223.15,85.83,223.38,85.25,223.38z"/>
			<path class="st3" d="M72.78,219.54c0,0.92,0.74,1.66,1.66,1.66h9.48c0.92,0,1.66-0.74,1.66-1.66v-8.14
				c0-0.92-0.74-1.66-1.66-1.66h-9.48c-0.92,0-1.66,0.74-1.66,1.66V219.54z"/>
		</g>
		<g>
			<path class="st2" d="M52.71,221.25c0,1.18,0.95,2.13,2.13,2.13h12.14c1.18,0,2.13-0.95,2.13-2.13v-10.36
				c0-1.18-0.95-2.13-2.13-2.13H54.84c-1.18,0-2.13,0.95-2.13,2.13V221.25z"/>
			<path d="M66.98,223.38H54.84c-1.18,0-2.13-0.95-2.13-2.13v-10.36c0-0.68,0.33-1.29,0.83-1.67l1.21,1.34l11.88,10.32l1.83,1.9
				C68.08,223.15,67.56,223.38,66.98,223.38z"/>
			<path class="st3" d="M54.51,219.54c0,0.92,0.74,1.66,1.66,1.66h9.48c0.92,0,1.66-0.74,1.66-1.66v-8.14
				c0-0.92-0.74-1.66-1.66-1.66h-9.48c-0.92,0-1.66,0.74-1.66,1.66V219.54z"/>
		</g>
	</g>
	<g>
		<g>
			<path class="st2" d="M225.63,188.72c0,1.18,0.95,2.13,2.13,2.13h22.36c1.18,0,2.13-0.95,2.13-2.13v-10.36
				c0-1.18-0.95-2.13-2.13-2.13h-22.36c-1.18,0-2.13,0.95-2.13,2.13V188.72z"/>
			<path d="M250.13,190.85h-22.36c-1.18,0-2.13-0.95-2.13-2.13v-10.36c0-0.68,0.33-1.29,0.83-1.67l1.21,1.34l22.1,10.32l1.83,1.9
				C251.22,190.62,250.7,190.85,250.13,190.85z"/>
			<path class="st3" d="M227.43,187.01c0,0.92,0.74,1.66,1.66,1.66h19.7c0.92,0,1.66-0.74,1.66-1.66v-8.14
				c0-0.92-0.74-1.66-1.66-1.66h-19.7c-0.92,0-1.66,0.74-1.66,1.66V187.01z"/>
		</g>
		<g>
			<path class="st2" d="M207.37,188.72c0,1.18,0.95,2.13,2.13,2.13h12.14c1.18,0,2.13-0.95,2.13-2.13v-10.36
				c0-1.18-0.95-2.13-2.13-2.13H209.5c-1.18,0-2.13,0.95-2.13,2.13V188.72z"/>
			<path d="M221.64,190.85H209.5c-1.18,0-2.13-0.95-2.13-2.13v-10.36c0-0.68,0.33-1.29,0.83-1.67l1.21,1.34l11.88,10.32l1.83,1.9
				C222.74,190.62,222.22,190.85,221.64,190.85z"/>
			<path class="st3" d="M209.17,187.01c0,0.92,0.74,1.66,1.66,1.66h9.48c0.92,0,1.66-0.74,1.66-1.66v-8.14
				c0-0.92-0.74-1.66-1.66-1.66h-9.48c-0.92,0-1.66,0.74-1.66,1.66V187.01z"/>
		</g>
		<g>
			<path class="st2" d="M189.1,188.72c0,1.18,0.95,2.13,2.13,2.13h12.14c1.18,0,2.13-0.95,2.13-2.13v-10.36
				c0-1.18-0.95-2.13-2.13-2.13h-12.14c-1.18,0-2.13,0.95-2.13,2.13V188.72z"/>
			<path d="M203.37,190.85h-12.14c-1.18,0-2.13-0.95-2.13-2.13v-10.36c0-0.68,0.33-1.29,0.83-1.67l1.21,1.34l11.88,10.32l1.83,1.9
				C204.47,190.62,203.95,190.85,203.37,190.85z"/>
			<path class="st3" d="M190.9,187.01c0,0.92,0.74,1.66,1.66,1.66h9.48c0.92,0,1.66-0.74,1.66-1.66v-8.14
				c0-0.92-0.74-1.66-1.66-1.66h-9.48c-0.92,0-1.66,0.74-1.66,1.66V187.01z"/>
		</g>
		<g>
			<path class="st2" d="M170.84,188.72c0,1.18,0.95,2.13,2.13,2.13h12.14c1.18,0,2.13-0.95,2.13-2.13v-10.36
				c0-1.18-0.95-2.13-2.13-2.13h-12.14c-1.18,0-2.13,0.95-2.13,2.13V188.72z"/>
			<path d="M185.11,190.85h-12.14c-1.18,0-2.13-0.95-2.13-2.13v-10.36c0-0.68,0.33-1.29,0.83-1.67l1.21,1.34l11.88,10.32l1.83,1.9
				C186.21,190.62,185.68,190.85,185.11,190.85z"/>
			<path class="st3" d="M172.64,187.01c0,0.92,0.74,1.66,1.66,1.66h9.48c0.92,0,1.66-0.74,1.66-1.66v-8.14
				c0-0.92-0.74-1.66-1.66-1.66h-9.48c-0.92,0-1.66,0.74-1.66,1.66V187.01z"/>
		</g>
		<g>
			<path class="st2" d="M152.57,188.72c0,1.18,0.95,2.13,2.13,2.13h12.14c1.18,0,2.13-0.95,2.13-2.13v-10.36
				c0-1.18-0.95-2.13-2.13-2.13H154.7c-1.18,0-2.13,0.95-2.13,2.13V188.72z"/>
			<path d="M166.84,190.85H154.7c-1.18,0-2.13-0.95-2.13-2.13v-10.36c0-0.68,0.33-1.29,0.83-1.67l1.21,1.34l11.88,10.32l1.83,1.9
				C167.94,190.62,167.42,190.85,166.84,190.85z"/>
			<path class="st3" d="M154.37,187.01c0,0.92,0.74,1.66,1.66,1.66h9.48c0.92,0,1.66-0.74,1.66-1.66v-8.14
				c0-0.92-0.74-1.66-1.66-1.66h-9.48c-0.92,0-1.66,0.74-1.66,1.66V187.01z"/>
		</g>
		<g>
			<path class="st2" d="M134.3,188.72c0,1.18,0.95,2.13,2.13,2.13h12.14c1.18,0,2.13-0.95,2.13-2.13v-10.36
				c0-1.18-0.95-2.13-2.13-2.13h-12.14c-1.18,0-2.13,0.95-2.13,2.13V188.72z"/>
			<path d="M148.58,190.85h-12.14c-1.18,0-2.13-0.95-2.13-2.13v-10.36c0-0.68,0.33-1.29,0.83-1.67l1.21,1.34l11.88,10.32l1.83,1.9
				C149.67,190.62,149.15,190.85,148.58,190.85z"/>
			<path class="st3" d="M136.1,187.01c0,0.92,0.74,1.66,1.66,1.66h9.48c0.92,0,1.66-0.74,1.66-1.66v-8.14
				c0-0.92-0.74-1.66-1.66-1.66h-9.48c-0.92,0-1.66,0.74-1.66,1.66V187.01z"/>
		</g>
		<g>
			<path class="st2" d="M116.04,188.72c0,1.18,0.95,2.13,2.13,2.13h12.14c1.18,0,2.13-0.95,2.13-2.13v-10.36
				c0-1.18-0.95-2.13-2.13-2.13h-12.14c-1.18,0-2.13,0.95-2.13,2.13V188.72z"/>
			<path d="M130.31,190.85h-12.14c-1.18,0-2.13-0.95-2.13-2.13v-10.36c0-0.68,0.33-1.29,0.83-1.67l1.21,1.34l11.88,10.32l1.83,1.9
				C131.41,190.62,130.89,190.85,130.31,190.85z"/>
			<path class="st3" d="M117.84,187.01c0,0.92,0.74,1.66,1.66,1.66h9.48c0.92,0,1.66-0.74,1.66-1.66v-8.14
				c0-0.92-0.74-1.66-1.66-1.66h-9.48c-0.92,0-1.66,0.74-1.66,1.66V187.01z"/>
		</g>
		<g>
			<path class="st2" d="M97.77,188.72c0,1.18,0.95,2.13,2.13,2.13h12.14c1.18,0,2.13-0.95,2.13-2.13v-10.36
				c0-1.18-0.95-2.13-2.13-2.13H99.9c-1.18,0-2.13,0.95-2.13,2.13V188.72z"/>
			<path d="M112.04,190.85H99.9c-1.18,0-2.13-0.95-2.13-2.13v-10.36c0-0.68,0.33-1.29,0.83-1.67l1.21,1.34l11.88,10.32l1.83,1.9
				C113.14,190.62,112.62,190.85,112.04,190.85z"/>
			<path class="st3" d="M99.57,187.01c0,0.92,0.74,1.66,1.66,1.66h9.48c0.92,0,1.66-0.74,1.66-1.66v-8.14
				c0-0.92-0.74-1.66-1.66-1.66h-9.48c-0.92,0-1.66,0.74-1.66,1.66V187.01z"/>
		</g>
		<g>
			<path class="st2" d="M79.5,188.72c0,1.18,0.95,2.13,2.13,2.13h12.14c1.18,0,2.13-0.95,2.13-2.13v-10.36
				c0-1.18-0.95-2.13-2.13-2.13H81.63c-1.18,0-2.13,0.95-2.13,2.13V188.72z"/>
			<path d="M93.78,190.85H81.63c-1.18,0-2.13-0.95-2.13-2.13v-10.36c0-0.68,0.33-1.29,0.83-1.67l1.21,1.34l11.88,10.32l1.83,1.9
				C94.87,190.62,94.35,190.85,93.78,190.85z"/>
			<path class="st3" d="M81.3,187.01c0,0.92,0.74,1.66,1.66,1.66h9.48c0.92,0,1.66-0.74,1.66-1.66v-8.14c0-0.92-0.74-1.66-1.66-1.66
				h-9.48c-0.92,0-1.66,0.74-1.66,1.66V187.01z"/>
		</g>
		<g>
			<path class="st2" d="M61.24,188.72c0,1.18,0.95,2.13,2.13,2.13h12.14c1.18,0,2.13-0.95,2.13-2.13v-10.36
				c0-1.18-0.95-2.13-2.13-2.13H63.37c-1.18,0-2.13,0.95-2.13,2.13V188.72z"/>
			<path d="M53.87,160.95l1.21,1.34l0.06,0.14l20.02,25.91l1.83,1.9c-0.38,0.37-0.9,0.6-1.48,0.6h-8.2h-3.94h-8.2
				c-1.18,0-2.13-0.95-2.13-2.13v-26.1C53.04,161.94,53.36,161.34,53.87,160.95z"/>
			<path class="st3" d="M56.5,161.47h9.48c0.92,0,1.66,0.74,1.66,1.66v14.07h6.54c0.92,0,1.66,0.74,1.66,1.66v8.14
				c0,0.92-0.74,1.66-1.66,1.66l-17.68-0.03c-0.92,0-1.66-0.74-1.66-1.66v-23.85C54.84,162.21,55.58,161.47,56.5,161.47z"/>
		</g>
	</g>
	<path class="st1" d="M156.82,138.93c0-2.23-1.81-4.04-4.04-4.04c-2.23,0-4.04,1.81-4.04,4.04s1.81,4.04,4.04,4.04
		C155.01,142.97,156.82,141.16,156.82,138.93z"/>
</g>
<g>
	<g>
		<path d="M31.33,18.79c-0.4,2.95,236.27,3.32,235.8,0.37l-1.06-6.68c-0.56-3.54-4.96-6.42-9.81-6.42H42.42
			c-4.86,0-9.18,2.87-9.66,6.42L31.33,18.79z"/>
		<path class="st0" d="M40.13,121.13c-0.35,3.13,3.15,5.67,7.82,5.67h205.61c4.67,0,8.11-2.54,7.69-5.67l5.88-101.97
			c-0.6-3.76-5.05-6.8-9.94-6.8H41.64c-4.89,0-9.27,3.05-9.78,6.8L40.13,121.13z"/>
		<path d="M41.07,12.37h57.38l79.08,114.42H47.95c-4.67,0-8.19-2.39-7.86-5.35L31.33,18.79C31.82,15.24,36.18,12.37,41.07,12.37z"/>
		<polygon class="st4" points="50.78,115.75 250.47,115.75 256.76,21.83 42.29,21.83 		"/>
		<polygon class="st5" points="168.96,115.75 50.78,115.75 42.29,21.83 104.27,21.83 		"/>
		<path class="st6" d="M150.01,17.16c-0.01-0.86-0.99-1.56-2.18-1.56c-1.19,0-2.16,0.7-2.15,1.56c0.01,0.86,0.98,1.56,2.18,1.56
			C149.06,18.72,150.02,18.02,150.01,17.16z"/>
	</g>
</g>
<g>
	<path class="st13" d="M42.12,182.31c3.25,2.4,4.46,6.85,2.66,10.64l-2.66,6.77V182.31z"/>
	<path class="st13" d="M42.12,215.35l1.84,7.07l9.86,20.18l25.86,23.2l1.46-0.46l-0.18-12.35l-7.55-9.7
		c-4.41-5.2-3.78-12.99,1.42-17.4c1.67-1.41,3.6-2.3,5.6-2.7l17.09,22.73c2.12,2.57,3.69,6.53,3.72,10.76l-0.02,16.27H52.12
		c-5.52,0-10-4.48-10-10V215.35z"/>
</g>
<path class="st16" d="M10.55,270.66l23.29-39.51l-3.32-7.99l-4.7-18.07c-0.46-1.78-0.15-3.56,0.38-5.2l6.66-16.36
	c2.04-4.3,7.2-6.14,11.5-4.09c4.3,2.04,6.13,7.2,4.09,11.5l-5.1,12.99l4.28,16.48l9.86,20.18l25.86,23.2l1.46-0.46l-0.18-12.35
	l-7.55-9.7c-4.41-5.2-3.78-12.99,1.42-17.4c1.67-1.41,3.6-2.3,5.6-2.7l17.09,22.73c2.12,2.57,3.69,6.53,3.72,10.76l-0.05,36.19
	c0.04,6.89-3,13.07-7.81,17.27l0.15,27.42H48.45l-0.18-10.74c-5,1.21-10.15-3.71-11.92-6.54l-25.06-39.54
	C9.41,275.77,9.43,272.79,10.55,270.66z"/>
<polygon class="st24" points="42.72,521.09 103.92,521.09 104.23,335.56 42.95,335.56 "/>
<polygon class="st25" points="61.17,521.09 103.64,521.09 103.96,335.56 61.39,335.56 "/>
<g>
	<path class="st23" d="M80.57,223.34c-5.2,4.41-5.83,12.2-1.42,17.4l8.55,10.25l0.18,12.35l-4.54,0.46l1.46-0.46l-0.18-12.35
		l-7.55-9.7c-4.41-5.2-3.78-12.99,1.42-17.4c1.67-1.41,3.6-2.3,5.6-2.7l-0.41,0.24C82.58,221.91,81.53,222.53,80.57,223.34z"/>
	<path class="st23" d="M10.55,270.66l23.29-39.51l-3.32-7.99l-4.7-18.07c-0.46-1.78-0.15-3.56,0.38-5.2l6.66-16.36
		c1.71-3.6,5.6-5.46,9.34-4.78c-2.64,0.48-5.02,2.17-6.26,4.78l-6.66,16.36c-0.53,1.65-0.84,3.42-0.38,5.2l4.7,18.07l3.32,7.99
		l-23.29,39.51c-1.12,2.13-1.14,5.11,0.75,8.08l25.06,39.54c1.11,1.77,3.53,4.34,6.41,5.73c0.76,0.37,3.92,0.75,5.67-0.25
		l0.03,11.79h-3.09l-0.17-10.41c-1.35,0.15-2.88-0.05-4.44-0.55c-3.92-1.25-6.61-4.91-7.49-6.31l-25.06-39.54
		C9.41,275.77,9.43,272.79,10.55,270.66z"/>
</g>
<g>
	<path class="st20" d="M73.56,47.33l-0.97,2.09h-2.81v-0.36l5.8-12.35h1.24l5.76,12.35v0.36h-2.79l-0.99-2.09H73.56z M74.44,45.06
		h3.49l-1.75-4.16L74.44,45.06z"/>
	<path class="st20" d="M89.53,43.87c-0.31-0.81-0.95-1.15-1.82-1.15c-1.19,0-2.2,0.77-2.2,2.32c0,1.57,1.01,2.45,2.2,2.45
		c0.79,0,1.55-0.49,1.85-1.4h2.39c-0.36,2.32-2.32,3.49-4.32,3.51c-2.29,0.02-4.63-1.49-4.63-4.55c0-3.04,2.36-4.48,4.65-4.48
		c1.96,0,3.87,1.04,4.27,3.31H89.53z"/>
	<path class="st20" d="M99.68,43.87c-0.31-0.81-0.95-1.15-1.82-1.15c-1.19,0-2.2,0.77-2.2,2.32c0,1.57,1.01,2.45,2.2,2.45
		c0.79,0,1.55-0.49,1.85-1.4h2.39c-0.36,2.32-2.32,3.49-4.32,3.51c-2.29,0.02-4.63-1.49-4.63-4.55c0-3.04,2.36-4.48,4.65-4.48
		c1.96,0,3.87,1.04,4.27,3.31H99.68z"/>
	<path class="st20" d="M111.71,45.87h-5.87c0.16,1.42,1.37,1.64,2.3,1.73c1.08,0.05,2.18-0.11,3.22-0.54l0.29,1.78
		c-1.03,0.49-2.21,0.76-3.37,0.76c-2.99,0-4.97-1.69-4.97-4.63s2.32-4.41,4.56-4.41C111.04,40.56,112.37,42.92,111.71,45.87z
		 M105.84,44.3h3.87c0.13-1.13-0.65-1.91-1.84-1.91C106.61,42.39,106.05,43.26,105.84,44.3z"/>
	<path class="st20" d="M115.72,46.71c0.02,0.72,0.7,1.08,1.42,1.06c0.74,0,1.48-0.25,1.49-1.03c0-0.65-0.63-0.72-1.24-0.81
		c-1.75-0.23-4.02-0.41-4.02-2.52c0-1.94,1.6-2.86,3.73-2.86c2.07,0,3.85,0.94,3.76,2.77h-2.38c-0.02-0.63-0.63-0.92-1.35-0.92
		c-0.77,0-1.33,0.36-1.33,0.94c0,0.65,0.68,0.68,1.24,0.74c1.94,0.23,4.16,0.32,4.1,2.65c-0.05,2.07-1.94,2.86-3.91,2.86
		c-1.96,0-3.96-0.58-4.05-2.88H115.72z"/>
	<path class="st20" d="M124.92,46.71c0.02,0.72,0.7,1.08,1.42,1.06c0.74,0,1.48-0.25,1.5-1.03c0-0.65-0.63-0.72-1.24-0.81
		c-1.75-0.23-4.01-0.41-4.01-2.52c0-1.94,1.6-2.86,3.73-2.86c2.07,0,3.85,0.94,3.76,2.77h-2.38c-0.02-0.63-0.63-0.92-1.35-0.92
		c-0.77,0-1.33,0.36-1.33,0.94c0,0.65,0.68,0.68,1.24,0.74c1.94,0.23,4.16,0.32,4.11,2.65c-0.05,2.07-1.94,2.86-3.91,2.86
		s-3.96-0.58-4.05-2.88H124.92z"/>
	<path class="st20" d="M134.89,38.05c0,1.87-2.95,1.85-2.95,0C131.93,36.13,134.89,36.18,134.89,38.05z M134.67,49.42h-2.52v-8.64
		h2.52V49.42z"/>
	<path class="st20" d="M143.31,49.42v-5.02c0.05-1.19-0.63-1.84-1.64-1.84c-0.96,0-1.84,0.67-1.84,1.89v4.97h-2.52v-6
		c0-0.86-0.04-1.22-0.83-1.13v-1.57c1.15-0.2,3.17-0.4,3.17,1.17c0.49-1.01,1.76-1.33,2.77-1.33c2.45,0,3.42,1.67,3.42,3.83v5.02
		H143.31z"/>
	<path class="st20" d="M153.79,49.04c-0.77,0.36-1.53,0.52-2.23,0.54c-2.29,0.04-3.96-1.53-3.96-4.38c0-3.29,2.27-4.7,4.93-4.65
		c1.3,0,2.54,0.31,3.69,0.79v8.14c0,3.1-1.93,4.43-4.25,4.43c-1.22,0-2.54-0.32-3.76-0.97l0.32-1.95c0.94,0.5,2.12,0.9,3.13,0.9
		c1.19-0.02,2.12-0.59,2.12-2.32V49.04z M153.75,42.81c-0.49-0.13-0.99-0.18-1.48-0.18c-1.31,0-2.18,0.72-2.18,2.43
		c0,1.62,0.86,2.36,2.03,2.36c0.5,0,1.06-0.14,1.62-0.45V42.81z"/>
	<path class="st20" d="M165.86,40.75h2.83v1.89h-2.83v3.22c0,1.8,1.49,1.89,2.93,1.37l0.23,1.91c-2.99,0.83-5.64,0.34-5.64-3.22
		v-3.28l-1.64-0.16v-1.73h1.82l0.27-2.7h2.02V40.75z"/>
	<path class="st20" d="M176.65,49.42v-5.02c0.05-1.22-0.67-1.84-1.6-1.84c-1.01-0.02-1.85,0.68-1.85,1.89v4.97h-2.54V36.27h2.54v5.4
		c0.56-0.77,1.49-1.12,2.57-1.12c2.49,0,3.42,1.6,3.42,3.83v5.02H176.65z"/>
	<path class="st20" d="M186.56,40.56c0.67-0.02,1.35,0.18,1.85,0.56l-0.56,2.11c-0.52-0.34-1.06-0.49-1.62-0.47
		c-1.1,0-2.03,0.72-2.03,2.05v4.61h-2.47v-6.03c0-0.72-0.07-1.19-0.86-1.06v-1.55c1.26-0.29,3.03-0.29,3.17,1.26
		C184.4,41.04,185.5,40.56,186.56,40.56z"/>
	<path class="st20" d="M193.66,49.59c-2.3,0-4.63-1.51-4.63-4.55c0-3.01,2.27-4.47,4.56-4.48c2.32-0.02,4.65,1.42,4.65,4.48
		C198.23,48.08,195.94,49.59,193.66,49.59z M193.6,47.4c1.06,0.02,2.12-0.77,2.12-2.36c0-1.55-1.01-2.27-2.07-2.27
		c-1.06,0-2.12,0.7-2.12,2.27S192.56,47.4,193.6,47.4z"/>
	<path class="st20" d="M208.29,40.74v6.09c0,0.81,0.04,1.1,0.81,1.04l0.02,1.53c-1.22,0.29-3.17,0.45-3.17-1.22
		c-0.49,1.01-1.75,1.42-2.77,1.42c-2.5,0-3.22-1.71-3.22-3.87v-4.99h2.54v4.99c0,1.39,0.61,1.89,1.49,1.89
		c1.01,0.02,1.78-0.77,1.78-1.94v-4.93H208.29z"/>
	<path class="st20" d="M216.64,49.04c-0.77,0.36-1.53,0.52-2.23,0.54c-2.29,0.04-3.96-1.53-3.96-4.38c0-3.29,2.27-4.7,4.93-4.65
		c1.3,0,2.54,0.31,3.69,0.79v8.14c0,3.1-1.93,4.43-4.25,4.43c-1.22,0-2.54-0.32-3.76-0.97l0.32-1.95c0.94,0.5,2.12,0.9,3.13,0.9
		c1.19-0.02,2.12-0.59,2.12-2.32V49.04z M216.61,42.81c-0.49-0.13-0.99-0.18-1.48-0.18c-1.31,0-2.18,0.72-2.18,2.43
		c0,1.62,0.86,2.36,2.03,2.36c0.5,0,1.06-0.14,1.62-0.45V42.81z"/>
	<path class="st20" d="M227.37,49.42v-5.02c0.05-1.22-0.67-1.84-1.6-1.84c-1.01-0.02-1.85,0.68-1.85,1.89v4.97h-2.54V36.27h2.54v5.4
		c0.56-0.77,1.49-1.12,2.57-1.12c2.49,0,3.42,1.6,3.42,3.83v5.02H227.37z"/>
	<path class="st20" d="M80.23,72.17c-2.3,0-4.63-1.51-4.63-4.55c0-3.01,2.27-4.47,4.56-4.48c2.32-0.02,4.65,1.42,4.65,4.48
		C84.8,70.66,82.52,72.17,80.23,72.17z M80.18,69.97c1.06,0.02,2.12-0.77,2.12-2.36c0-1.55-1.01-2.27-2.07-2.27s-2.12,0.7-2.12,2.27
		S79.13,69.97,80.18,69.97z"/>
	<path class="st20" d="M89.03,58.81v9.81c0,1.33,0.52,1.6,1.73,1.4l0.09,1.89c-2.68,0.49-4.3-0.18-4.3-3.29v-9.81H89.03z"/>
	<path class="st20" d="M95.69,72.17c-2.63,0.05-4.01-2.09-4.01-4.52c0-2.75,1.87-4.52,4.12-4.52c0.56,0,1.42,0.13,2.02,0.41v-4.72
		h2.52v10.28c0,0.85-0.11,1.31,0.81,1.26l0.02,1.64c-1.26,0.29-2.81,0.27-2.86-1.48C97.82,71.61,96.83,72.15,95.69,72.17z
		 M97.89,65.67c-0.54-0.32-1.12-0.4-1.62-0.4c-1.17,0.02-2.09,0.81-2.09,2.38c0,1.24,0.56,2.29,1.91,2.29c1.1,0,1.8-0.88,1.8-1.94
		V65.67z"/>
	<path class="st20" d="M110.83,68.44h-5.87c0.16,1.42,1.37,1.64,2.3,1.73c1.08,0.05,2.18-0.11,3.22-0.54l0.29,1.78
		c-1.03,0.49-2.21,0.76-3.37,0.76c-2.99,0-4.97-1.69-4.97-4.63s2.32-4.41,4.56-4.41C110.17,63.13,111.5,65.49,110.83,68.44z
		 M104.96,66.88h3.87c0.13-1.13-0.65-1.91-1.84-1.91C105.74,64.97,105.18,65.83,104.96,66.88z"/>
	<path class="st20" d="M118.01,63.13c0.67-0.02,1.35,0.18,1.85,0.56l-0.56,2.11c-0.52-0.34-1.06-0.49-1.62-0.47
		c-1.1,0-2.03,0.72-2.03,2.05v4.61h-2.47v-6.03c0-0.72-0.07-1.19-0.86-1.06v-1.55c1.26-0.29,3.03-0.29,3.17,1.26
		C115.85,63.62,116.95,63.13,118.01,63.13z"/>
	<path class="st20" d="M125.1,58.85h2.5v4.7c0.7-0.29,1.39-0.41,2.02-0.41c2.41-0.02,4.16,1.64,4.16,4.65
		c0,3.38-2.36,4.41-5.01,4.39c-1.24-0.02-2.52-0.27-3.67-0.68V58.85z M127.55,69.92c0.54,0.14,1.04,0.23,1.51,0.22
		c1.28-0.02,2.2-0.59,2.2-2.36c0-1.95-0.9-2.56-2.07-2.61c-0.5-0.02-1.06,0.13-1.64,0.45V69.92z"/>
	<path class="st20" d="M140.78,63.13c0.67-0.02,1.35,0.18,1.85,0.56l-0.56,2.11c-0.52-0.34-1.06-0.49-1.62-0.47
		c-1.1,0-2.03,0.72-2.03,2.05v4.61h-2.47v-6.03c0-0.72-0.07-1.19-0.86-1.06v-1.55c1.26-0.29,3.03-0.29,3.17,1.26
		C138.62,63.62,139.72,63.13,140.78,63.13z"/>
	<path class="st20" d="M147.87,72.17c-2.3,0-4.63-1.51-4.63-4.55c0-3.01,2.27-4.47,4.56-4.48c2.32-0.02,4.65,1.42,4.65,4.48
		C152.45,70.66,150.16,72.17,147.87,72.17z M147.82,69.97c1.06,0.02,2.12-0.77,2.12-2.36c0-1.55-1.01-2.27-2.07-2.27
		c-1.06,0-2.12,0.7-2.12,2.27S146.78,69.97,147.82,69.97z"/>
	<path class="st20" d="M156.66,72.12l-3.57-8.52v-0.29h2.68l0.92,2.54l0.67,1.98h0.04l1.94-4.32h0.95l1.96,4.32h0.05l0.65-1.98
		l0.85-2.54h2.72v0.29l-3.6,8.52h-0.95l-1.08-2.12l-1.08-2.29l-1.04,2.36l-0.99,2.05H156.66z"/>
	<path class="st20" d="M169.74,69.29c0.02,0.72,0.7,1.08,1.42,1.06c0.74,0,1.48-0.25,1.49-1.03c0-0.65-0.63-0.72-1.24-0.81
		c-1.75-0.23-4.02-0.42-4.02-2.52c0-1.94,1.6-2.86,3.73-2.86c2.07,0,3.85,0.94,3.76,2.77h-2.38c-0.02-0.63-0.63-0.92-1.35-0.92
		c-0.77,0-1.33,0.36-1.33,0.94c0,0.65,0.68,0.68,1.24,0.74c1.94,0.23,4.16,0.32,4.1,2.65c-0.05,2.07-1.94,2.86-3.91,2.86
		c-1.96,0-3.96-0.58-4.05-2.88H169.74z"/>
	<path class="st20" d="M184.83,68.44h-5.87c0.16,1.42,1.37,1.64,2.3,1.73c1.08,0.05,2.18-0.11,3.22-0.54l0.29,1.78
		c-1.03,0.49-2.21,0.76-3.37,0.76c-2.99,0-4.97-1.69-4.97-4.63s2.32-4.41,4.56-4.41C184.16,63.13,185.49,65.49,184.83,68.44z
		 M178.96,66.88h3.87c0.13-1.13-0.65-1.91-1.84-1.91C179.73,64.97,179.17,65.83,178.96,66.88z"/>
	<path class="st20" d="M192.01,63.13c0.67-0.02,1.35,0.18,1.85,0.56l-0.56,2.11c-0.52-0.34-1.06-0.49-1.62-0.47
		c-1.1,0-2.03,0.72-2.03,2.05v4.61h-2.47v-6.03c0-0.72-0.07-1.19-0.86-1.06v-1.55c1.26-0.29,3.03-0.29,3.17,1.26
		C189.85,63.62,190.95,63.13,192.01,63.13z"/>
	<path class="st20" d="M197.08,69.29c0.02,0.72,0.7,1.08,1.42,1.06c0.74,0,1.48-0.25,1.49-1.03c0-0.65-0.63-0.72-1.24-0.81
		c-1.75-0.23-4.02-0.42-4.02-2.52c0-1.94,1.6-2.86,3.73-2.86c2.07,0,3.85,0.94,3.76,2.77h-2.38c-0.02-0.63-0.63-0.92-1.35-0.92
		c-0.77,0-1.33,0.36-1.33,0.94c0,0.65,0.68,0.68,1.24,0.74c1.94,0.23,4.16,0.32,4.1,2.65c-0.05,2.07-1.94,2.86-3.91,2.86
		c-1.96,0-3.96-0.58-4.05-2.88H197.08z"/>
	<path class="st20" d="M212.82,72.17c-2.3,0-4.63-1.51-4.63-4.55c0-3.01,2.27-4.47,4.56-4.48c2.32-0.02,4.65,1.42,4.65,4.48
		C217.39,70.66,215.1,72.17,212.82,72.17z M212.76,69.97c1.06,0.02,2.12-0.77,2.12-2.36c0-1.55-1.01-2.27-2.07-2.27
		s-2.12,0.7-2.12,2.27S211.72,69.97,212.76,69.97z"/>
	<path class="st20" d="M224.35,63.13c0.67-0.02,1.35,0.18,1.85,0.56l-0.56,2.11c-0.52-0.34-1.06-0.49-1.62-0.47
		c-1.1,0-2.04,0.72-2.04,2.05v4.61h-2.47v-6.03c0-0.72-0.07-1.19-0.86-1.06v-1.55c1.26-0.29,3.02-0.29,3.17,1.26
		C222.19,63.62,223.29,63.13,224.35,63.13z"/>
	<path class="st20" d="M75.84,94.74c-2.3,0-4.63-1.51-4.63-4.55c0-3.01,2.27-4.47,4.56-4.48c2.32-0.02,4.65,1.42,4.65,4.48
		C80.41,93.23,78.13,94.74,75.84,94.74z M75.79,92.55c1.06,0.02,2.12-0.77,2.12-2.36c0-1.55-1.01-2.27-2.07-2.27
		s-2.12,0.7-2.12,2.27S74.74,92.55,75.79,92.55z"/>
	<path class="st20" d="M87.3,85.71c2.54,0,3.91,1.98,3.91,4.45c0,2.65-1.78,4.59-4.09,4.59c-0.67,0-1.37-0.09-2.07-0.45v4.72h-2.52
		V88.86c0-0.83,0.11-1.33-0.81-1.28l-0.02-1.67c1.17-0.25,2.86-0.27,2.86,1.39C85.05,86.21,86.19,85.71,87.3,85.71z M84.98,92.21
		c0.56,0.32,1.12,0.41,1.64,0.41c1.21,0,2.05-0.95,2.05-2.47c0-1.21-0.61-2.23-1.89-2.23c-1.13,0.02-1.78,0.88-1.8,1.91V92.21z"/>
	<path class="st20" d="M100.91,91.02h-5.87c0.16,1.42,1.37,1.64,2.3,1.73c1.08,0.05,2.18-0.11,3.22-0.54l0.29,1.78
		c-1.03,0.49-2.21,0.76-3.37,0.76c-2.99,0-4.97-1.69-4.97-4.63s2.32-4.41,4.56-4.41C100.25,85.71,101.58,88.07,100.91,91.02z
		 M95.04,89.45h3.87c0.13-1.13-0.65-1.91-1.84-1.91C95.82,87.54,95.26,88.41,95.04,89.45z"/>
	<path class="st20" d="M108.09,85.71c0.67-0.02,1.35,0.18,1.85,0.56l-0.56,2.11c-0.52-0.34-1.06-0.49-1.62-0.47
		c-1.1,0-2.04,0.72-2.04,2.05v4.61h-2.47v-6.03c0-0.72-0.07-1.19-0.86-1.06v-1.55c1.26-0.29,3.02-0.29,3.17,1.26
		C105.93,86.19,107.03,85.71,108.09,85.71z"/>
	<path class="st20" d="M113.67,94.74c-2.02,0-3.15-1.06-3.15-2.59c0-1.46,1.15-2.81,3.37-2.81c0.79,0,1.6,0.11,2.3,0.4v-0.85
		c0-0.94-0.88-1.39-1.89-1.39c-1.1,0-2.11,0.29-2.68,0.5l-0.43-1.58c0.99-0.5,2.11-0.7,3.28-0.7c2.23,0,4.14,0.67,4.14,3.17v3.15
		c0,0.74-0.02,1.17,0.81,1.12l0.02,1.4c-1.31,0.29-2.75,0.22-2.75-1.33C116.16,94.31,114.79,94.74,113.67,94.74z M114.38,90.89
		c-0.9,0-1.37,0.45-1.37,1.12c0,0.43,0.38,0.88,1.17,0.88c0.83,0,1.93-0.49,2.02-1.67C115.82,91.04,115.08,90.89,114.38,90.89z"/>
	<path class="st20" d="M124.28,85.9h2.83v1.89h-2.83v3.22c0,1.8,1.49,1.89,2.93,1.37l0.23,1.91c-2.99,0.83-5.64,0.34-5.64-3.22V87.8
		l-1.64-0.16V85.9h1.82l0.27-2.7h2.02V85.9z"/>
	<path class="st20" d="M131.82,83.2c0,1.87-2.95,1.85-2.95,0C128.87,81.28,131.82,81.33,131.82,83.2z M131.6,94.57h-2.52v-8.64h2.52
		V94.57z"/>
	<path class="st20" d="M140.24,94.57v-5.02c0.05-1.19-0.63-1.84-1.64-1.84c-0.95,0-1.84,0.67-1.84,1.89v4.97h-2.52v-6
		c0-0.86-0.04-1.22-0.83-1.13v-1.57c1.15-0.2,3.17-0.4,3.17,1.17c0.49-1.01,1.76-1.33,2.77-1.33c2.45,0,3.42,1.67,3.42,3.83v5.02
		H140.24z"/>
	<path class="st20" d="M150.72,94.19c-0.77,0.36-1.53,0.52-2.23,0.54c-2.29,0.04-3.96-1.53-3.96-4.38c0-3.29,2.27-4.7,4.93-4.65
		c1.3,0,2.54,0.31,3.69,0.79v8.14c0,3.1-1.93,4.43-4.25,4.43c-1.22,0-2.54-0.32-3.76-0.97l0.32-1.95c0.94,0.5,2.12,0.9,3.13,0.9
		c1.19-0.02,2.12-0.59,2.12-2.32V94.19z M150.68,87.96c-0.49-0.13-0.99-0.18-1.48-0.18c-1.31,0-2.18,0.72-2.18,2.43
		c0,1.62,0.86,2.36,2.04,2.36c0.5,0,1.06-0.14,1.62-0.45V87.96z"/>
	<path class="st20" d="M161.84,91.86c0.02,0.72,0.7,1.08,1.42,1.06c0.74,0,1.48-0.25,1.49-1.03c0-0.65-0.63-0.72-1.24-0.81
		c-1.75-0.23-4.02-0.41-4.02-2.52c0-1.94,1.6-2.86,3.73-2.86c2.07,0,3.85,0.94,3.76,2.77h-2.38c-0.02-0.63-0.63-0.92-1.35-0.92
		c-0.77,0-1.33,0.36-1.33,0.94c0,0.65,0.68,0.68,1.24,0.74c1.94,0.23,4.16,0.32,4.1,2.65c-0.05,2.07-1.94,2.86-3.91,2.86
		c-1.96,0-3.96-0.58-4.05-2.88H161.84z"/>
	<path class="st20" d="M173.85,95.41c-1.1,2.83-2.3,4.32-5.46,3.17l0.27-1.75c1.42,0.63,2.16,0.09,2.67-1.35l0.32-0.9l-3.8-8.41
		v-0.29h2.65l1.17,2.93l1.13,3.21h0.05l0.99-3.19l1.04-2.95h2.56v0.29L173.85,95.41z"/>
	<path class="st20" d="M180.78,91.86c0.02,0.72,0.7,1.08,1.42,1.06c0.74,0,1.48-0.25,1.5-1.03c0-0.65-0.63-0.72-1.24-0.81
		c-1.75-0.23-4.01-0.41-4.01-2.52c0-1.94,1.6-2.86,3.73-2.86c2.07,0,3.85,0.94,3.76,2.77h-2.38c-0.02-0.63-0.63-0.92-1.35-0.92
		c-0.77,0-1.33,0.36-1.33,0.94c0,0.65,0.68,0.68,1.24,0.74c1.94,0.23,4.16,0.32,4.11,2.65c-0.05,2.07-1.94,2.86-3.91,2.86
		s-3.96-0.58-4.05-2.88H180.78z"/>
	<path class="st20" d="M191.31,85.9h2.83v1.89h-2.83v3.22c0,1.8,1.49,1.89,2.93,1.37l0.23,1.91c-2.99,0.83-5.64,0.34-5.64-3.22V87.8
		l-1.64-0.16V85.9h1.82l0.27-2.7h2.02V85.9z"/>
	<path class="st20" d="M203.96,91.02h-5.87c0.16,1.42,1.37,1.64,2.3,1.73c1.08,0.05,2.18-0.11,3.22-0.54l0.29,1.78
		c-1.03,0.49-2.21,0.76-3.37,0.76c-2.99,0-4.97-1.69-4.97-4.63s2.32-4.41,4.56-4.41C203.3,85.71,204.63,88.07,203.96,91.02z
		 M198.09,89.45h3.87c0.13-1.13-0.65-1.91-1.84-1.91C198.87,87.54,198.31,88.41,198.09,89.45z"/>
	<path class="st20" d="M217.48,94.57v-5.02c0.05-1.15-0.54-1.84-1.4-1.82c-0.88,0.02-1.58,0.68-1.6,1.84v5.01h-2.48v-5.01
		c0.02-1.17-0.58-1.85-1.49-1.84c-0.92,0.02-1.71,0.72-1.71,1.89v4.95h-2.5v-6.03c0-0.85-0.05-1.1-0.83-1.04v-1.53
		c1.13-0.32,3.13-0.61,3.13,1.12c0.47-0.99,1.71-1.37,2.79-1.37c1.51,0,2.23,0.5,2.65,1.57c0.52-1.06,1.8-1.57,3.01-1.57
		c2.47,0,3.04,1.73,2.99,3.83v5.02H217.48z"/>
	<path class="st20" d="M224.25,91.86c0.02,0.72,0.7,1.08,1.42,1.06c0.74,0,1.48-0.25,1.5-1.03c0-0.65-0.63-0.72-1.24-0.81
		c-1.75-0.23-4.01-0.41-4.01-2.52c0-1.94,1.6-2.86,3.73-2.86c2.07,0,3.85,0.94,3.76,2.77h-2.38c-0.02-0.63-0.63-0.92-1.35-0.92
		c-0.77,0-1.33,0.36-1.33,0.94c0,0.65,0.68,0.68,1.24,0.74c1.94,0.23,4.16,0.32,4.11,2.65c-0.05,2.07-1.94,2.86-3.91,2.86
		s-3.96-0.58-4.05-2.88H224.25z"/>
</g>
</svg>
