<?xml version="1.0" encoding="utf-8"?>
<!-- Generator: Adobe Illustrator 23.0.0, SVG Export Plug-In . SVG Version: 6.00 Build 0)  -->
<svg version="1.1" id="Layer_1" xmlns="http://www.w3.org/2000/svg" xmlns:xlink="http://www.w3.org/1999/xlink" x="0px" y="0px"
	 viewBox="0 0 225.27 471.49" style="enable-background:new 0 0 225.27 471.49;" xml:space="preserve">
<style type="text/css">
	.st0{fill:#333333;}
	.st1{fill:#292929;}
	.st2{fill:#505353;}
	.st3{fill:#848384;}
	.st4{fill:#00A6CA;}
	.st5{fill:#33B8D5;}
	.st6{fill:#808083;}
	.st7{fill:#33A133;}
	.st8{fill:#008A00;}
	.st9{fill:#CBE3A0;}
	.st10{fill:#A9D161;}
	.st11{fill:#F2C69E;}
	.st12{fill:#EEB482;}
	.st13{fill:#0D0D0D;}
	.st14{fill:#FCD800;}
	.st15{fill:#FDE866;}
	.st16{fill:#F2C69F;}
	.st17{fill:#F16E00;}
	.st18{fill:#EB0000;}
	.st19{fill:#006800;}
	.st20{fill:#FFFFFF;}
	.st21{fill:#F4C7A0;}
	.st22{fill:#EDB888;}
	.st23{fill:#EFB582;}
	.st24{fill:#33859D;}
	.st25{fill:#006685;}
	.st26{fill:#494949;}
</style>
<g>
	<path class="st0" d="M216.37,206.37c-0.07,4.58-4.16,8.23-9.13,8.16L66.28,212.4c-4.98-0.08-8.95-3.85-8.88-8.43l2.87-189.31
		c0.07-4.58,4.16-8.23,9.13-8.16l140.96,2.14c4.98,0.08,8.95,3.85,8.88,8.43L216.37,206.37z"/>
	<path d="M210.36,8.63L184.6,8.24l-82.89,204.69l105.53,1.6c4.98,0.08,9.07-3.58,9.13-8.16l2.87-189.31
		C219.31,12.48,215.33,8.71,210.36,8.63z"/>
	
		<rect x="51.6" y="40.96" transform="matrix(0.0152 -0.9999 0.9999 0.0152 26.647 246.255)" class="st17" width="173.47" height="137.29"/>
	<polygon class="st18" points="108.51,195.89 205.65,197.36 208.28,23.92 175.3,23.42 	"/>
	<path class="st6" d="M141.06,15.49c0.02-1.11,1.01-2,2.22-1.98c1.21,0.02,2.18,0.94,2.16,2.05c-0.02,1.11-1.01,2-2.22,1.98
		C142.01,17.52,141.04,16.6,141.06,15.49z"/>
</g>
<g>
	<path d="M65.57,212.39l18.97,0.29L73.5,195.36l-5.98-0.09l0.14-9.08l-1.3-2.04l-4.07-22.09l0.68-45.04
		c-0.16-2.81-1.73-5.39-4.15-6.87l-1.42,93.82C57.33,208.55,60.98,212.32,65.57,212.39z"/>
	<polygon points="87.28,195.57 89.69,201.45 86.73,212.71 98.19,212.88 104.56,195.83 	"/>
	<path d="M108.22,210.46c1.12-4.09,0.66-8.32-0.69-11.37l-1.26-3.24l-1.71-0.03l-6.37,17.05l0,0l9.32,0.14L108.22,210.46z"/>
	<polygon class="st18" points="73.5,195.36 67.66,186.19 67.52,195.27 	"/>
	<path class="st18" d="M106.27,195.86L106.27,195.86l-1.81-0.03l0.86-2.4l-8.13-20.82c-2.03-0.16-4.13,0.18-6.12,1.09
		c-6.19,2.85-8.9,10.18-6.05,16.38l2.25,5.49l17.28,0.26L106.27,195.86z"/>
	<polygon class="st18" points="106.27,195.86 105.32,193.43 104.47,195.83 	"/>
</g>
<path class="st16" d="M103.31,196.88l-10.34-26.49c-2.03-0.16-4.13,0.18-6.12,1.09c-6.19,2.85-8.9,10.18-6.05,16.38l4.66,11.38
	l-3.14,11.94l-1.52,0.05l-18.67-29.29l-4.07-22.09l0.68-45.04l0,0c-0.2-3.6-2.73-6.83-6.39-7.86c-4.61-1.29-9.39,1.41-10.68,6.02
	c-0.19,0.67-0.28,1.33-0.31,2l0,0l-0.51,42.93l-0.19,9.78l-31.82,30.6c-1.65,1.75-2.47,4.61-1.45,7.99l13.5,44.82
	c0.95,3.2,2.58,9.32,7.73,9.5l-0.95,19.26l51.5,5.75l2.88-27.97c5.76-2.75,10.35-7.89,12.17-14.53l9.78-34.84
	C105.11,204.16,104.66,199.92,103.31,196.88z"/>
<path class="st23" d="M62.13,181.93l-4.07-22.09l0.31-17.03l-0.05-0.03l0.42-27.99c-0.2-3.6-2.73-6.83-6.39-7.86
	c-1.58-0.44-3.17-0.41-4.64,0c0.37,0.05,0.74,0.12,1.11,0.23c3.67,1.02,6.19,4.26,6.39,7.86l-0.58,38.12c0.01,0,0.02,0.01,0.03,0.01
	L54.58,158l4.07,22.09l18.67,29.29l3.48,1.84L62.13,181.93z"/>
<path class="st23" d="M103.31,196.88l-10.34-26.49c-0.9-0.07,6.87,24.64,6.87,24.64c1.35,3.04,1.8,7.28,0.69,11.37l-9.78,34.84
	c-1.82,6.65-6.4,11.78-12.17,14.54l-2.9,26.56l-47.19-1.64l-0.58,2.14l51.41,1.35l2.74-26.57c5.76-2.75,10.35-7.89,12.17-14.53
	l9.78-34.84C105.11,204.16,104.66,199.92,103.31,196.88z"/>
<polygon class="st17" points="21.5,471.49 82.69,471.49 83.01,275.61 21.72,275.61 "/>
<polygon class="st18" points="40.22,471.49 82.69,471.49 83.01,275.61 40.44,275.61 "/>
<g>
	<path class="st20" d="M105.1,43.39c2.54,0.04,5.22,1.46,5.74,4.58l-2.61-0.04c-0.53-1.43-1.66-2.08-3.17-2.11
		c-2.23-0.04-3.76,1.61-3.8,4.01c-0.04,2.16,1.39,4.04,3.64,4.08c1.57,0.03,2.86-0.69,3.31-2.21l2.59,0.04
		c-0.6,3.32-3.3,4.66-5.93,4.62c-3.31-0.06-6.41-2.4-6.33-6.57C98.62,45.58,101.79,43.28,105.1,43.39z"/>
	<path class="st20" d="M118.54,56.4l0.09-5.02c0.07-1.22-0.63-1.85-1.57-1.86c-1.01-0.03-1.87,0.65-1.89,1.86l-0.08,4.97l-2.54-0.04
		l0.22-13.14l2.54,0.04l-0.09,5.4c0.57-0.76,1.51-1.09,2.59-1.07c2.48,0.04,3.39,1.66,3.36,3.89l-0.09,5.02L118.54,56.4z"/>
	<path class="st20" d="M125.86,56.71c-2.02-0.03-3.13-1.12-3.11-2.65c0.02-1.46,1.2-2.79,3.41-2.75c0.79,0.01,1.6,0.14,2.3,0.44
		l0.01-0.85c0.02-0.94-0.86-1.4-1.87-1.42c-1.1-0.02-2.11,0.25-2.69,0.46l-0.41-1.59c1-0.49,2.12-0.67,3.29-0.65
		c2.23,0.04,4.13,0.74,4.09,3.24l-0.05,3.15c-0.01,0.74-0.04,1.17,0.79,1.13l-0.01,1.4c-1.32,0.27-2.76,0.17-2.73-1.38
		C128.35,56.32,126.98,56.73,125.86,56.71z M126.63,52.87c-0.9-0.01-1.38,0.43-1.39,1.09c-0.01,0.43,0.36,0.89,1.16,0.9
		c0.83,0.01,1.93-0.45,2.04-1.64C128.07,53.04,127.33,52.88,126.63,52.87z"/>
	<path class="st20" d="M139.56,56.76l0.09-5.02c0.07-1.19-0.6-1.85-1.61-1.86c-0.95-0.02-1.85,0.63-1.87,1.86l-0.08,4.97l-2.52-0.04
		l0.1-6c0.01-0.86-0.02-1.22-0.81-1.15l0.03-1.57c1.16-0.18,3.18-0.34,3.15,1.22c0.5-1,1.79-1.3,2.79-1.28
		c2.45,0.04,3.39,1.73,3.36,3.89l-0.09,5.02L139.56,56.76z"/>
	<path class="st20" d="M150.04,56.56c-0.78,0.35-1.54,0.5-2.24,0.5c-2.29,0-3.93-1.6-3.89-4.44c0.06-3.29,2.35-4.66,5.01-4.56
		c1.3,0.02,2.53,0.35,3.68,0.85l-0.14,8.14c-0.05,3.1-2,4.39-4.32,4.36c-1.22-0.02-2.53-0.37-3.75-1.04l0.36-1.94
		c0.93,0.52,2.11,0.94,3.12,0.95c1.19,0,2.13-0.56,2.16-2.29L150.04,56.56z M150.11,50.33c-0.48-0.13-0.99-0.2-1.47-0.21
		c-1.31-0.02-2.19,0.68-2.22,2.39c-0.03,1.62,0.82,2.37,1.99,2.39c0.5,0.01,1.06-0.13,1.63-0.42L150.11,50.33z"/>
	<path class="st20" d="M157.72,45.71c-0.03,1.87-2.98,1.8-2.95-0.05C154.8,43.73,157.75,43.84,157.72,45.71z M157.31,57.06
		l-2.52-0.04l0.15-8.64l2.52,0.04L157.31,57.06z"/>
	<path class="st20" d="M165.95,57.21l0.09-5.02c0.07-1.19-0.6-1.85-1.61-1.86c-0.95-0.02-1.85,0.63-1.87,1.86l-0.08,4.97l-2.52-0.04
		l0.1-6c0.01-0.86-0.02-1.22-0.81-1.15l0.03-1.57c1.16-0.18,3.18-0.34,3.15,1.22c0.5-1,1.79-1.3,2.79-1.28
		c2.45,0.04,3.39,1.73,3.36,3.89l-0.09,5.02L165.95,57.21z"/>
	<path class="st20" d="M176.43,57.01c-0.78,0.35-1.54,0.5-2.24,0.5c-2.29,0-3.93-1.6-3.89-4.44c0.06-3.29,2.35-4.66,5.01-4.56
		c1.3,0.02,2.53,0.35,3.68,0.85l-0.14,8.14c-0.05,3.1-2,4.4-4.32,4.36c-1.22-0.02-2.53-0.37-3.75-1.04l0.36-1.94
		c0.93,0.52,2.11,0.94,3.12,0.95c1.19,0,2.13-0.56,2.16-2.29L176.43,57.01z M176.5,50.78c-0.48-0.13-0.99-0.2-1.47-0.21
		c-1.31-0.02-2.19,0.68-2.22,2.39c-0.03,1.62,0.82,2.37,1.99,2.39c0.5,0.01,1.06-0.13,1.63-0.42L176.5,50.78z"/>
	<path class="st20" d="M106.74,83.09c-2.02-0.03-3.13-1.11-3.11-2.65c0.02-1.46,1.2-2.79,3.41-2.75c0.79,0.01,1.6,0.14,2.3,0.44
		l0.01-0.85c0.02-0.94-0.86-1.4-1.87-1.42c-1.1-0.02-2.11,0.25-2.69,0.46l-0.41-1.59c1-0.49,2.12-0.67,3.29-0.65
		c2.23,0.04,4.13,0.74,4.09,3.24l-0.05,3.15c-0.01,0.74-0.04,1.17,0.79,1.13l-0.01,1.4c-1.32,0.27-2.76,0.17-2.73-1.38
		C109.23,82.7,107.85,83.11,106.74,83.09z M107.5,79.25c-0.9-0.02-1.38,0.43-1.39,1.09c-0.01,0.43,0.36,0.89,1.16,0.9
		c0.83,0.01,1.93-0.45,2.04-1.64C108.94,79.42,108.2,79.26,107.5,79.25z"/>
	<path class="st20" d="M120.24,77.6c-0.29-0.81-0.93-1.17-1.8-1.18c-1.19-0.02-2.21,0.74-2.24,2.29c-0.03,1.57,0.97,2.47,2.15,2.49
		c0.79,0.01,1.56-0.46,1.88-1.37l2.39,0.04c-0.4,2.32-2.38,3.45-4.38,3.44c-2.29-0.02-4.6-1.57-4.55-4.63
		c0.05-3.04,2.43-4.44,4.72-4.4c1.96,0.03,3.85,1.11,4.21,3.38L120.24,77.6z"/>
	<path class="st20" d="M130.39,77.77c-0.29-0.81-0.93-1.17-1.8-1.18c-1.19-0.02-2.21,0.74-2.24,2.29c-0.03,1.57,0.97,2.47,2.15,2.49
		c0.79,0.01,1.56-0.46,1.88-1.37l2.39,0.04c-0.4,2.32-2.38,3.45-4.38,3.44c-2.29-0.02-4.6-1.57-4.55-4.63
		c0.05-3.04,2.43-4.44,4.72-4.4c1.96,0.03,3.85,1.11,4.21,3.38L130.39,77.77z"/>
	<path class="st20" d="M138.55,83.63c-2.3-0.04-4.6-1.59-4.55-4.63c0.05-3.01,2.34-4.43,4.63-4.41c2.32,0.02,4.62,1.5,4.57,4.56
		C143.15,82.2,140.84,83.67,138.55,83.63z M138.54,81.44c1.06,0.04,2.14-0.74,2.17-2.32c0.03-1.55-0.97-2.29-2.03-2.3
		c-1.06-0.02-2.14,0.67-2.16,2.23C136.48,80.61,137.49,81.42,138.54,81.44z"/>
	<path class="st20" d="M153.34,75.03l-0.1,6.08c-0.01,0.81,0.02,1.1,0.79,1.06l-0.01,1.53c-1.23,0.27-3.18,0.4-3.15-1.28
		c-0.5,1-1.77,1.39-2.8,1.37c-2.5-0.04-3.19-1.76-3.16-3.92l0.08-4.99l2.54,0.04l-0.08,4.99c-0.02,1.39,0.58,1.9,1.46,1.92
		c1.01,0.04,1.8-0.74,1.82-1.91l0.08-4.93L153.34,75.03z"/>
	<path class="st20" d="M162.12,83.85l0.09-5.02c0.07-1.19-0.6-1.85-1.61-1.86c-0.95-0.02-1.85,0.64-1.87,1.86l-0.08,4.97l-2.52-0.04
		l0.1-6c0.01-0.86-0.02-1.22-0.81-1.15l0.03-1.57c1.16-0.18,3.18-0.34,3.15,1.22c0.5-1,1.79-1.3,2.79-1.28
		c2.45,0.04,3.39,1.73,3.36,3.89l-0.09,5.02L162.12,83.85z"/>
	<path class="st20" d="M170.27,75.33l2.83,0.05l-0.03,1.89l-2.83-0.05l-0.05,3.22c-0.03,1.8,1.46,1.92,2.91,1.42l0.2,1.91
		c-3,0.78-5.64,0.25-5.58-3.32l0.06-3.28l-1.64-0.19l0.03-1.73l1.82,0.03l0.32-2.7l2.02,0.03L170.27,75.33z"/>
	<path class="st20" d="M105.68,106.9c0.01,0.72,0.68,1.09,1.4,1.09c0.74,0.01,1.48-0.23,1.51-1c0.01-0.65-0.62-0.73-1.23-0.83
		c-1.74-0.26-4.01-0.48-3.97-2.59c0.03-1.94,1.65-2.83,3.78-2.8c2.07,0.04,3.84,1,3.72,2.84l-2.38-0.04
		c-0.01-0.63-0.61-0.93-1.33-0.94c-0.77-0.01-1.34,0.34-1.35,0.91c-0.01,0.65,0.67,0.7,1.23,0.76c1.94,0.27,4.15,0.39,4.06,2.72
		c-0.09,2.07-1.99,2.83-3.95,2.79c-1.96-0.03-3.95-0.64-4-2.95L105.68,106.9z"/>
	<path class="st20" d="M120.78,106.31l-5.87-0.1c0.14,1.42,1.34,1.66,2.27,1.77c1.08,0.07,2.18-0.07,3.23-0.49l0.26,1.79
		c-1.03,0.47-2.23,0.72-3.38,0.7c-2.99-0.05-4.94-1.78-4.89-4.71s2.4-4.37,4.63-4.33C120.2,100.99,121.5,103.37,120.78,106.31z
		 M114.94,104.65l3.87,0.07c0.15-1.13-0.62-1.92-1.8-1.94C115.74,102.75,115.17,103.6,114.94,104.65z"/>
	<path class="st20" d="M126.21,101.29l2.83,0.05l-0.03,1.89l-2.83-0.05l-0.05,3.22c-0.03,1.8,1.46,1.92,2.91,1.42l0.2,1.91
		c-3,0.78-5.64,0.25-5.58-3.32l0.06-3.28l-1.64-0.19l0.03-1.73l1.82,0.03l0.32-2.7l2.02,0.03L126.21,101.29z"/>
	<path class="st20" d="M134.31,101.43l2.83,0.05l-0.03,1.89l-2.83-0.05l-0.05,3.22c-0.03,1.8,1.46,1.92,2.91,1.42l0.2,1.91
		c-3,0.78-5.64,0.25-5.58-3.32l0.06-3.28l-1.64-0.19l0.03-1.73l1.82,0.03l0.32-2.7l2.02,0.04L134.31,101.43z"/>
	<path class="st20" d="M141.9,98.86c-0.03,1.87-2.98,1.8-2.95-0.05C138.98,96.88,141.93,96.98,141.9,98.86z M141.49,110.21
		l-2.52-0.04l0.15-8.64l2.52,0.04L141.49,110.21z"/>
	<path class="st20" d="M150.13,110.36l0.09-5.02c0.07-1.19-0.6-1.85-1.61-1.87c-0.95-0.02-1.85,0.63-1.87,1.86l-0.08,4.97
		l-2.52-0.04l0.1-6c0.01-0.86-0.02-1.22-0.81-1.15l0.03-1.57c1.16-0.18,3.18-0.34,3.15,1.22c0.5-1,1.79-1.3,2.79-1.28
		c2.45,0.04,3.39,1.73,3.36,3.89l-0.09,5.02L150.13,110.36z"/>
	<path class="st20" d="M160.61,110.16c-0.78,0.35-1.54,0.5-2.24,0.5c-2.29,0-3.94-1.6-3.89-4.44c0.06-3.29,2.35-4.66,5.01-4.56
		c1.3,0.02,2.53,0.35,3.68,0.85l-0.14,8.14c-0.05,3.1-2,4.4-4.32,4.36c-1.22-0.02-2.53-0.37-3.75-1.04l0.36-1.94
		c0.93,0.52,2.11,0.94,3.12,0.95c1.19,0,2.13-0.56,2.16-2.29L160.61,110.16z M160.68,103.93c-0.48-0.13-0.99-0.2-1.47-0.21
		c-1.31-0.02-2.19,0.68-2.22,2.39c-0.03,1.62,0.82,2.37,1.99,2.39c0.5,0.01,1.06-0.13,1.63-0.42L160.68,103.93z"/>
	<path class="st20" d="M167.36,107.95c0.01,0.72,0.68,1.09,1.4,1.09c0.74,0.01,1.48-0.23,1.51-1c0.01-0.65-0.62-0.73-1.23-0.83
		c-1.74-0.26-4.01-0.48-3.97-2.59c0.03-1.94,1.65-2.83,3.78-2.8c2.07,0.04,3.84,1,3.72,2.84l-2.38-0.04
		c-0.01-0.63-0.61-0.93-1.33-0.94c-0.77-0.01-1.34,0.34-1.35,0.91c-0.01,0.65,0.67,0.7,1.23,0.76c1.94,0.27,4.15,0.39,4.06,2.72
		c-0.09,2.07-1.99,2.83-3.96,2.79c-1.96-0.03-3.95-0.64-4-2.95L167.36,107.95z"/>
	<path class="st20" d="M111.63,136.59c-2.02-0.04-3.13-1.12-3.11-2.65c0.02-1.46,1.2-2.79,3.41-2.75c0.79,0.01,1.6,0.14,2.3,0.44
		l0.01-0.85c0.02-0.94-0.86-1.4-1.87-1.42c-1.1-0.02-2.11,0.25-2.69,0.46l-0.41-1.59c1-0.49,2.12-0.67,3.29-0.65
		c2.23,0.04,4.13,0.74,4.09,3.24l-0.05,3.15c-0.01,0.74-0.04,1.17,0.79,1.13l-0.01,1.4c-1.32,0.27-2.76,0.17-2.73-1.38
		C114.12,136.2,112.75,136.61,111.63,136.59z M112.4,132.75c-0.9-0.02-1.38,0.43-1.39,1.09c-0.01,0.43,0.36,0.89,1.16,0.9
		c0.83,0.01,1.93-0.45,2.04-1.64C113.83,132.92,113.1,132.76,112.4,132.75z"/>
	<path class="st20" d="M125.33,136.64l0.09-5.02c0.07-1.19-0.6-1.85-1.61-1.86c-0.95-0.02-1.85,0.63-1.87,1.86l-0.08,4.97
		l-2.52-0.04l0.1-6c0.02-0.86-0.02-1.22-0.81-1.15l0.03-1.57c1.16-0.18,3.18-0.34,3.15,1.22c0.5-1,1.79-1.3,2.79-1.28
		c2.45,0.04,3.39,1.73,3.36,3.89l-0.09,5.02L125.33,136.64z"/>
	<path class="st20" d="M133.6,136.97c-2.63,0.01-3.98-2.16-3.94-4.59c0.05-2.75,1.95-4.49,4.2-4.45c0.56,0.01,1.42,0.15,2.01,0.45
		l0.08-4.72l2.52,0.04l-0.17,10.28c-0.01,0.85-0.13,1.31,0.79,1.27l-0.01,1.64c-1.27,0.27-2.81,0.22-2.84-1.52
		C135.74,136.44,134.74,136.97,133.6,136.97z M135.91,130.5c-0.53-0.33-1.11-0.41-1.61-0.42c-1.17,0-2.1,0.77-2.13,2.34
		c-0.02,1.24,0.52,2.3,1.87,2.32c1.1,0.02,1.82-0.85,1.83-1.91L135.91,130.5z"/>
	<path class="st20" d="M146.6,124.4l2.59,0.04l-6.3,12.48l-2.59-0.04L146.6,124.4z"/>
	<path class="st20" d="M153.94,137.31c-2.3-0.04-4.6-1.59-4.55-4.63c0.05-3.01,2.34-4.43,4.63-4.41c2.32,0.02,4.62,1.5,4.57,4.56
		C158.54,135.88,156.23,137.35,153.94,137.31z M153.92,135.12c1.06,0.04,2.14-0.74,2.16-2.32c0.03-1.55-0.97-2.29-2.03-2.3
		c-1.06-0.02-2.14,0.67-2.16,2.23S152.88,135.1,153.92,135.12z"/>
	<path class="st20" d="M165.63,128.47c0.67-0.01,1.35,0.2,1.84,0.59l-0.59,2.1c-0.52-0.35-1.05-0.5-1.61-0.5
		c-1.1-0.02-2.05,0.69-2.07,2.02l-0.08,4.61l-2.47-0.04l0.1-6.03c0.01-0.72-0.05-1.19-0.85-1.08l0.03-1.55
		c1.27-0.27,3.03-0.24,3.15,1.31C163.46,128.92,164.57,128.45,165.63,128.47z"/>
	<path class="st20" d="M99.94,154.06c2.54,0.04,3.87,2.05,3.83,4.51c-0.04,2.65-1.86,4.56-4.16,4.52c-0.67-0.01-1.37-0.11-2.06-0.49
		l-0.08,4.72l-2.52-0.04l0.17-10.15c0.01-0.83,0.13-1.33-0.79-1.29l0.01-1.67c1.17-0.23,2.87-0.22,2.84,1.43
		C97.68,154.53,98.82,154.04,99.94,154.06z M97.5,160.52c0.55,0.33,1.11,0.43,1.63,0.44c1.21,0.02,2.07-0.92,2.09-2.43
		c0.02-1.21-0.57-2.24-1.85-2.26c-1.13,0-1.8,0.85-1.83,1.88L97.5,160.52z"/>
	<path class="st20" d="M108.08,163.24c-2.02-0.04-3.13-1.12-3.11-2.65c0.02-1.46,1.2-2.79,3.41-2.75c0.79,0.01,1.6,0.14,2.3,0.44
		l0.01-0.85c0.02-0.94-0.86-1.4-1.87-1.42c-1.1-0.02-2.11,0.25-2.69,0.46l-0.41-1.59c1-0.49,2.12-0.67,3.29-0.65
		c2.23,0.04,4.13,0.74,4.09,3.24l-0.05,3.15c-0.01,0.74-0.04,1.17,0.79,1.13l-0.01,1.4c-1.32,0.27-2.76,0.17-2.73-1.38
		C110.57,162.85,109.2,163.26,108.08,163.24z M108.85,159.4c-0.9-0.02-1.38,0.43-1.39,1.09c-0.01,0.43,0.36,0.89,1.16,0.9
		c0.83,0.01,1.93-0.45,2.04-1.64C110.28,159.57,109.55,159.41,108.85,159.4z"/>
	<path class="st20" d="M117.52,160.52c0.01,0.72,0.68,1.09,1.4,1.09c0.74,0.01,1.48-0.23,1.51-1c0.01-0.65-0.62-0.73-1.23-0.83
		c-1.74-0.26-4.01-0.48-3.97-2.59c0.03-1.94,1.65-2.83,3.78-2.8c2.07,0.04,3.84,1,3.71,2.83l-2.38-0.04
		c-0.01-0.63-0.61-0.93-1.33-0.94c-0.77-0.01-1.34,0.34-1.35,0.91c-0.01,0.65,0.67,0.7,1.23,0.76c1.94,0.27,4.15,0.39,4.06,2.72
		c-0.09,2.07-1.99,2.83-3.96,2.79s-3.95-0.64-4-2.95L117.52,160.52z"/>
	<path class="st20" d="M126.72,160.68c0.01,0.72,0.68,1.09,1.4,1.09c0.74,0.01,1.48-0.23,1.51-1c0.01-0.65-0.62-0.73-1.23-0.83
		c-1.74-0.26-4.01-0.48-3.97-2.59c0.03-1.94,1.65-2.83,3.78-2.8c2.07,0.04,3.84,1,3.72,2.84l-2.38-0.04
		c-0.01-0.63-0.61-0.93-1.33-0.94c-0.77-0.01-1.34,0.34-1.35,0.91c-0.01,0.65,0.67,0.7,1.23,0.76c1.94,0.27,4.15,0.4,4.06,2.72
		c-0.09,2.07-1.99,2.83-3.96,2.79c-1.96-0.03-3.95-0.64-4-2.95L126.72,160.68z"/>
	<path class="st20" d="M136.35,163.67l-3.42-8.58l0-0.29l2.68,0.04l0.87,2.55l0.63,1.99l0.04,0l2.02-4.29l0.95,0.02l1.89,4.35
		l0.05,0l0.68-1.97l0.89-2.53l2.72,0.05l0,0.29l-3.75,8.45l-0.95-0.02l-1.04-2.14l-1.04-2.3l-1.08,2.34l-1.02,2.04L136.35,163.67z"
		/>
	<path class="st20" d="M151.49,163.98c-2.3-0.04-4.6-1.59-4.55-4.63c0.05-3.01,2.34-4.43,4.63-4.41c2.32,0.02,4.62,1.5,4.57,4.56
		C156.09,162.54,153.77,164.02,151.49,163.98z M151.47,161.78c1.06,0.04,2.14-0.74,2.16-2.32c0.03-1.55-0.97-2.29-2.03-2.3
		c-1.06-0.02-2.14,0.67-2.16,2.23C149.41,160.96,150.43,161.76,151.47,161.78z"/>
	<path class="st20" d="M163.18,155.14c0.67-0.01,1.35,0.2,1.85,0.59l-0.59,2.1c-0.52-0.35-1.05-0.5-1.61-0.5
		c-1.1-0.02-2.05,0.69-2.07,2.02l-0.08,4.61l-2.47-0.04l0.1-6.03c0.01-0.72-0.05-1.19-0.85-1.08l0.03-1.55
		c1.27-0.27,3.03-0.24,3.15,1.31C161.01,155.59,162.12,155.12,163.18,155.14z"/>
	<path class="st20" d="M169.5,164.29c-2.63,0.01-3.98-2.16-3.94-4.59c0.05-2.75,1.95-4.49,4.2-4.45c0.56,0.01,1.42,0.15,2.01,0.45
		l0.08-4.72l2.52,0.04l-0.18,10.28c-0.01,0.85-0.13,1.31,0.79,1.27l-0.01,1.64c-1.27,0.27-2.81,0.22-2.84-1.52
		C171.64,163.76,170.64,164.29,169.5,164.29z M171.81,157.82c-0.53-0.33-1.11-0.41-1.61-0.42c-1.17,0-2.1,0.77-2.13,2.34
		c-0.02,1.24,0.52,2.29,1.87,2.32c1.1,0.02,1.81-0.85,1.83-1.91L171.81,157.82z"/>
	<path class="st20" d="M178.89,161.56c0.01,0.72,0.68,1.09,1.4,1.09c0.74,0.01,1.48-0.23,1.51-1c0.01-0.65-0.62-0.73-1.23-0.83
		c-1.74-0.26-4.01-0.48-3.97-2.59c0.03-1.94,1.65-2.83,3.78-2.8c2.07,0.04,3.84,1,3.71,2.84l-2.38-0.04
		c-0.01-0.63-0.61-0.93-1.33-0.94c-0.77-0.01-1.34,0.34-1.35,0.91c-0.01,0.65,0.67,0.7,1.23,0.76c1.94,0.27,4.15,0.4,4.06,2.72
		c-0.09,2.07-1.99,2.83-3.96,2.79c-1.96-0.03-3.95-0.64-4-2.95L178.89,161.56z"/>
</g>
</svg>
