<?xml version="1.0" encoding="utf-8"?>
<!-- Generator: Adobe Illustrator 23.0.0, SVG Export Plug-In . SVG Version: 6.00 Build 0)  -->
<svg version="1.1" id="Layer_1" xmlns="http://www.w3.org/2000/svg" xmlns:xlink="http://www.w3.org/1999/xlink" x="0px" y="0px"
	 viewBox="0 0 280.87 521.09" style="enable-background:new 0 0 280.87 521.09;" xml:space="preserve">
<style type="text/css">
	.st0{fill:#333333;}
	.st1{fill:#292929;}
	.st2{fill:#505353;}
	.st3{fill:#848384;}
	.st4{fill:#00A6CA;}
	.st5{fill:#33B8D5;}
	.st6{fill:#808083;}
	.st7{fill:#33A133;}
	.st8{fill:#008A00;}
	.st9{fill:#CBE3A0;}
	.st10{fill:#A9D161;}
	.st11{fill:#F2C69E;}
	.st12{fill:#EEB482;}
	.st13{fill:#0D0D0D;}
	.st14{fill:#FCD800;}
	.st15{fill:#FDE866;}
	.st16{fill:#F2C69F;}
	.st17{fill:#F16E00;}
	.st18{fill:#EB0000;}
	.st19{fill:#006800;}
	.st20{fill:#FFFFFF;}
	.st21{fill:#F4C7A0;}
	.st22{fill:#EDB888;}
	.st23{fill:#EFB582;}
	.st24{fill:#33859D;}
	.st25{fill:#006685;}
	.st26{fill:#494949;}
</style>
<g>
	<path class="st0" d="M16.1,262.96c0,5.52,4.48,10,10,10h206.26c5.52,0,10-4.48,10-10V137.47c0-5.52-4.48-10-10-10H26.09
		c-5.52,0-10,4.48-10,10V262.96z"/>
	<path class="st1" d="M96.44,266.33c0,1.6,1.3,2.9,2.9,2.9h59.77c1.6,0,2.9-1.3,2.9-2.9v-36.36c0-1.6-1.3-2.9-2.9-2.9H99.33
		c-1.6,0-2.9,1.3-2.9,2.9V266.33z"/>
	<g>
		<path class="st2" d="M212.3,154.81c0,1.18,0.95,2.13,2.13,2.13h12.14c1.18,0,2.13-0.95,2.13-2.13v-4.42
			c0-1.18-0.95-2.13-2.13-2.13h-12.14c-1.18,0-2.13,0.95-2.13,2.13V154.81z"/>
		<path d="M226.57,156.94h-12.14c-1.18,0-2.13-0.95-2.13-2.13v-4.42c0-0.68,0.33-1.29,0.83-1.68l1.21,1.34l11.88,4.38l1.83,1.9
			C227.67,156.71,227.15,156.94,226.57,156.94z"/>
		<path class="st3" d="M214.1,153.1c0,0.92,0.74,1.66,1.66,1.66h9.48c0.92,0,1.66-0.74,1.66-1.66v-2.2c0-0.92-0.74-1.66-1.66-1.66
			h-9.48c-0.92,0-1.66,0.74-1.66,1.66V153.1z"/>
	</g>
	<g>
		<path class="st2" d="M194.03,154.81c0,1.18,0.95,2.13,2.13,2.13h12.14c1.18,0,2.13-0.95,2.13-2.13v-4.42
			c0-1.18-0.95-2.13-2.13-2.13h-12.14c-1.18,0-2.13,0.95-2.13,2.13V154.81z"/>
		<path d="M208.3,156.94h-12.14c-1.18,0-2.13-0.95-2.13-2.13v-4.42c0-0.68,0.33-1.29,0.83-1.68l1.21,1.34l11.88,4.38l1.83,1.9
			C209.4,156.71,208.88,156.94,208.3,156.94z"/>
		<path class="st3" d="M195.83,153.1c0,0.92,0.74,1.66,1.66,1.66h9.48c0.92,0,1.66-0.74,1.66-1.66v-2.2c0-0.92-0.74-1.66-1.66-1.66
			h-9.48c-0.92,0-1.66,0.74-1.66,1.66V153.1z"/>
	</g>
	<g>
		<path class="st2" d="M175.76,154.81c0,1.18,0.95,2.13,2.13,2.13h12.14c1.18,0,2.13-0.95,2.13-2.13v-4.42
			c0-1.18-0.95-2.13-2.13-2.13h-12.14c-1.18,0-2.13,0.95-2.13,2.13V154.81z"/>
		<path d="M190.04,156.94h-12.14c-1.18,0-2.13-0.95-2.13-2.13v-4.42c0-0.68,0.33-1.29,0.83-1.68l1.21,1.34l11.88,4.38l1.83,1.9
			C191.13,156.71,190.61,156.94,190.04,156.94z"/>
		<path class="st3" d="M177.56,153.1c0,0.92,0.74,1.66,1.66,1.66h9.48c0.92,0,1.66-0.74,1.66-1.66v-2.2c0-0.92-0.74-1.66-1.66-1.66
			h-9.48c-0.92,0-1.66,0.74-1.66,1.66V153.1z"/>
	</g>
	<g>
		<path class="st2" d="M157.5,154.81c0,1.18,0.95,2.13,2.13,2.13h12.14c1.18,0,2.13-0.95,2.13-2.13v-4.42
			c0-1.18-0.95-2.13-2.13-2.13h-12.14c-1.18,0-2.13,0.95-2.13,2.13V154.81z"/>
		<path d="M171.77,156.94h-12.14c-1.18,0-2.13-0.95-2.13-2.13v-4.42c0-0.68,0.33-1.29,0.83-1.68l1.21,1.34l11.88,4.38l1.83,1.9
			C172.87,156.71,172.35,156.94,171.77,156.94z"/>
		<path class="st3" d="M159.3,153.1c0,0.92,0.74,1.66,1.66,1.66h9.48c0.92,0,1.66-0.74,1.66-1.66v-2.2c0-0.92-0.74-1.66-1.66-1.66
			h-9.48c-0.92,0-1.66,0.74-1.66,1.66V153.1z"/>
	</g>
	<g>
		<path class="st2" d="M139.23,154.81c0,1.18,0.95,2.13,2.13,2.13h12.14c1.18,0,2.13-0.95,2.13-2.13v-4.42
			c0-1.18-0.95-2.13-2.13-2.13h-12.14c-1.18,0-2.13,0.95-2.13,2.13V154.81z"/>
		<path d="M153.5,156.94h-12.14c-1.18,0-2.13-0.95-2.13-2.13v-4.42c0-0.68,0.33-1.29,0.83-1.68l1.21,1.34l11.88,4.38l1.83,1.9
			C154.6,156.71,154.08,156.94,153.5,156.94z"/>
		<path class="st3" d="M141.03,153.1c0,0.92,0.74,1.66,1.66,1.66h9.48c0.92,0,1.66-0.74,1.66-1.66v-2.2c0-0.92-0.74-1.66-1.66-1.66
			h-9.48c-0.92,0-1.66,0.74-1.66,1.66V153.1z"/>
	</g>
	<g>
		<path class="st2" d="M120.96,154.81c0,1.18,0.95,2.13,2.13,2.13h12.14c1.18,0,2.13-0.95,2.13-2.13v-4.42
			c0-1.18-0.95-2.13-2.13-2.13h-12.14c-1.18,0-2.13,0.95-2.13,2.13V154.81z"/>
		<path d="M135.24,156.94h-12.14c-1.18,0-2.13-0.95-2.13-2.13v-4.42c0-0.68,0.33-1.29,0.83-1.68l1.21,1.34l11.88,4.38l1.83,1.9
			C136.33,156.71,135.81,156.94,135.24,156.94z"/>
		<path class="st3" d="M122.76,153.1c0,0.92,0.74,1.66,1.66,1.66h9.48c0.92,0,1.66-0.74,1.66-1.66v-2.2c0-0.92-0.74-1.66-1.66-1.66
			h-9.48c-0.92,0-1.66,0.74-1.66,1.66V153.1z"/>
	</g>
	<g>
		<path class="st2" d="M102.7,154.81c0,1.18,0.95,2.13,2.13,2.13h12.14c1.18,0,2.13-0.95,2.13-2.13v-4.42
			c0-1.18-0.95-2.13-2.13-2.13h-12.14c-1.18,0-2.13,0.95-2.13,2.13V154.81z"/>
		<path d="M116.97,156.94h-12.14c-1.18,0-2.13-0.95-2.13-2.13v-4.42c0-0.68,0.33-1.29,0.83-1.68l1.21,1.34l11.88,4.38l1.83,1.9
			C118.07,156.71,117.55,156.94,116.97,156.94z"/>
		<path class="st3" d="M104.5,153.1c0,0.92,0.74,1.66,1.66,1.66h9.48c0.92,0,1.66-0.74,1.66-1.66v-2.2c0-0.92-0.74-1.66-1.66-1.66
			h-9.48c-0.92,0-1.66,0.74-1.66,1.66V153.1z"/>
	</g>
	<g>
		<path class="st2" d="M84.43,154.81c0,1.18,0.95,2.13,2.13,2.13h12.14c1.18,0,2.13-0.95,2.13-2.13v-4.42
			c0-1.18-0.95-2.13-2.13-2.13H86.56c-1.18,0-2.13,0.95-2.13,2.13V154.81z"/>
		<path d="M98.71,156.94H86.56c-1.18,0-2.13-0.95-2.13-2.13v-4.42c0-0.68,0.33-1.29,0.83-1.68l1.21,1.34l11.88,4.38l1.83,1.9
			C99.8,156.71,99.28,156.94,98.71,156.94z"/>
		<path class="st3" d="M86.23,153.1c0,0.92,0.74,1.66,1.66,1.66h9.48c0.92,0,1.66-0.74,1.66-1.66v-2.2c0-0.92-0.74-1.66-1.66-1.66
			h-9.48c-0.92,0-1.66,0.74-1.66,1.66V153.1z"/>
	</g>
	<g>
		<path class="st2" d="M66.17,154.81c0,1.18,0.95,2.13,2.13,2.13h12.14c1.18,0,2.13-0.95,2.13-2.13v-4.42
			c0-1.18-0.95-2.13-2.13-2.13H68.29c-1.18,0-2.13,0.95-2.13,2.13V154.81z"/>
		<path d="M80.44,156.94H68.29c-1.18,0-2.13-0.95-2.13-2.13v-4.42c0-0.68,0.33-1.29,0.83-1.68l1.21,1.34l11.88,4.38l1.83,1.9
			C81.54,156.71,81.02,156.94,80.44,156.94z"/>
		<path class="st3" d="M67.97,153.1c0,0.92,0.74,1.66,1.66,1.66h9.48c0.92,0,1.66-0.74,1.66-1.66v-2.2c0-0.92-0.74-1.66-1.66-1.66
			h-9.48c-0.92,0-1.66,0.74-1.66,1.66V153.1z"/>
	</g>
	<g>
		<path class="st2" d="M47.9,154.81c0,1.18,0.95,2.13,2.13,2.13h12.14c1.18,0,2.13-0.95,2.13-2.13v-4.42c0-1.18-0.95-2.13-2.13-2.13
			H50.03c-1.18,0-2.13,0.95-2.13,2.13V154.81z"/>
		<path d="M62.17,156.94H50.03c-1.18,0-2.13-0.95-2.13-2.13v-4.42c0-0.68,0.33-1.29,0.83-1.68l1.21,1.34l11.88,4.38l1.83,1.9
			C63.27,156.71,62.75,156.94,62.17,156.94z"/>
		<path class="st3" d="M49.7,153.1c0,0.92,0.74,1.66,1.66,1.66h9.48c0.92,0,1.66-0.74,1.66-1.66v-2.2c0-0.92-0.74-1.66-1.66-1.66
			h-9.48c-0.92,0-1.66,0.74-1.66,1.66V153.1z"/>
	</g>
	<g>
		<path class="st2" d="M29.63,154.81c0,1.18,0.95,2.13,2.13,2.13h12.14c1.18,0,2.13-0.95,2.13-2.13v-4.42
			c0-1.18-0.95-2.13-2.13-2.13H31.76c-1.18,0-2.13,0.95-2.13,2.13V154.81z"/>
		<path d="M43.91,156.94H31.76c-1.18,0-2.13-0.95-2.13-2.13v-4.42c0-0.68,0.33-1.29,0.83-1.68l1.21,1.34l11.88,4.38l1.83,1.9
			C45,156.71,44.48,156.94,43.91,156.94z"/>
		<path class="st3" d="M31.43,153.1c0,0.92,0.74,1.66,1.66,1.66h9.48c0.92,0,1.66-0.74,1.66-1.66v-2.2c0-0.92-0.74-1.66-1.66-1.66
			h-9.48c-0.92,0-1.66,0.74-1.66,1.66V153.1z"/>
	</g>
	<g>
		<g>
			<path class="st2" d="M212.3,172.98c0,1.18,0.95,2.13,2.13,2.13h12.14c1.18,0,2.13-0.95,2.13-2.13v-10.36
				c0-1.18-0.95-2.13-2.13-2.13h-12.14c-1.18,0-2.13,0.95-2.13,2.13V172.98z"/>
			<path d="M226.57,175.11h-12.14c-1.18,0-2.13-0.95-2.13-2.13v-10.36c0-0.68,0.33-1.29,0.83-1.67l1.21,1.34l11.88,10.32l1.83,1.9
				C227.67,174.88,227.15,175.11,226.57,175.11z"/>
			<path class="st3" d="M214.1,171.27c0,0.92,0.74,1.66,1.66,1.66h9.48c0.92,0,1.66-0.74,1.66-1.66v-8.14
				c0-0.92-0.74-1.66-1.66-1.66h-9.48c-0.92,0-1.66,0.74-1.66,1.66V171.27z"/>
		</g>
		<g>
			<path class="st2" d="M194.03,172.98c0,1.18,0.95,2.13,2.13,2.13h12.14c1.18,0,2.13-0.95,2.13-2.13v-10.36
				c0-1.18-0.95-2.13-2.13-2.13h-12.14c-1.18,0-2.13,0.95-2.13,2.13V172.98z"/>
			<path d="M208.3,175.11h-12.14c-1.18,0-2.13-0.95-2.13-2.13v-10.36c0-0.68,0.33-1.29,0.83-1.67l1.21,1.34l11.88,10.32l1.83,1.9
				C209.4,174.88,208.88,175.11,208.3,175.11z"/>
			<path class="st3" d="M195.83,171.27c0,0.92,0.74,1.66,1.66,1.66h9.48c0.92,0,1.66-0.74,1.66-1.66v-8.14
				c0-0.92-0.74-1.66-1.66-1.66h-9.48c-0.92,0-1.66,0.74-1.66,1.66V171.27z"/>
		</g>
		<g>
			<path class="st2" d="M175.76,172.98c0,1.18,0.95,2.13,2.13,2.13h12.14c1.18,0,2.13-0.95,2.13-2.13v-10.36
				c0-1.18-0.95-2.13-2.13-2.13h-12.14c-1.18,0-2.13,0.95-2.13,2.13V172.98z"/>
			<path d="M190.04,175.11h-12.14c-1.18,0-2.13-0.95-2.13-2.13v-10.36c0-0.68,0.33-1.29,0.83-1.67l1.21,1.34l11.88,10.32l1.83,1.9
				C191.13,174.88,190.61,175.11,190.04,175.11z"/>
			<path class="st3" d="M177.56,171.27c0,0.92,0.74,1.66,1.66,1.66h9.48c0.92,0,1.66-0.74,1.66-1.66v-8.14
				c0-0.92-0.74-1.66-1.66-1.66h-9.48c-0.92,0-1.66,0.74-1.66,1.66V171.27z"/>
		</g>
		<g>
			<path class="st2" d="M157.5,172.98c0,1.18,0.95,2.13,2.13,2.13h12.14c1.18,0,2.13-0.95,2.13-2.13v-10.36
				c0-1.18-0.95-2.13-2.13-2.13h-12.14c-1.18,0-2.13,0.95-2.13,2.13V172.98z"/>
			<path d="M171.77,175.11h-12.14c-1.18,0-2.13-0.95-2.13-2.13v-10.36c0-0.68,0.33-1.29,0.83-1.67l1.21,1.34l11.88,10.32l1.83,1.9
				C172.87,174.88,172.35,175.11,171.77,175.11z"/>
			<path class="st3" d="M159.3,171.27c0,0.92,0.74,1.66,1.66,1.66h9.48c0.92,0,1.66-0.74,1.66-1.66v-8.14
				c0-0.92-0.74-1.66-1.66-1.66h-9.48c-0.92,0-1.66,0.74-1.66,1.66V171.27z"/>
		</g>
		<g>
			<path class="st2" d="M139.23,172.98c0,1.18,0.95,2.13,2.13,2.13h12.14c1.18,0,2.13-0.95,2.13-2.13v-10.36
				c0-1.18-0.95-2.13-2.13-2.13h-12.14c-1.18,0-2.13,0.95-2.13,2.13V172.98z"/>
			<path d="M153.5,175.11h-12.14c-1.18,0-2.13-0.95-2.13-2.13v-10.36c0-0.68,0.33-1.29,0.83-1.67l1.21,1.34l11.88,10.32l1.83,1.9
				C154.6,174.88,154.08,175.11,153.5,175.11z"/>
			<path class="st3" d="M141.03,171.27c0,0.92,0.74,1.66,1.66,1.66h9.48c0.92,0,1.66-0.74,1.66-1.66v-8.14
				c0-0.92-0.74-1.66-1.66-1.66h-9.48c-0.92,0-1.66,0.74-1.66,1.66V171.27z"/>
		</g>
		<g>
			<path class="st2" d="M120.96,172.98c0,1.18,0.95,2.13,2.13,2.13h12.14c1.18,0,2.13-0.95,2.13-2.13v-10.36
				c0-1.18-0.95-2.13-2.13-2.13h-12.14c-1.18,0-2.13,0.95-2.13,2.13V172.98z"/>
			<path d="M135.24,175.11h-12.14c-1.18,0-2.13-0.95-2.13-2.13v-10.36c0-0.68,0.33-1.29,0.83-1.67l1.21,1.34l11.88,10.32l1.83,1.9
				C136.33,174.88,135.81,175.11,135.24,175.11z"/>
			<path class="st3" d="M122.76,171.27c0,0.92,0.74,1.66,1.66,1.66h9.48c0.92,0,1.66-0.74,1.66-1.66v-8.14
				c0-0.92-0.74-1.66-1.66-1.66h-9.48c-0.92,0-1.66,0.74-1.66,1.66V171.27z"/>
		</g>
		<g>
			<path class="st2" d="M102.7,172.98c0,1.18,0.95,2.13,2.13,2.13h12.14c1.18,0,2.13-0.95,2.13-2.13v-10.36
				c0-1.18-0.95-2.13-2.13-2.13h-12.14c-1.18,0-2.13,0.95-2.13,2.13V172.98z"/>
			<path d="M116.97,175.11h-12.14c-1.18,0-2.13-0.95-2.13-2.13v-10.36c0-0.68,0.33-1.29,0.83-1.67l1.21,1.34l11.88,10.32l1.83,1.9
				C118.07,174.88,117.55,175.11,116.97,175.11z"/>
			<path class="st3" d="M104.5,171.27c0,0.92,0.74,1.66,1.66,1.66h9.48c0.92,0,1.66-0.74,1.66-1.66v-8.14
				c0-0.92-0.74-1.66-1.66-1.66h-9.48c-0.92,0-1.66,0.74-1.66,1.66V171.27z"/>
		</g>
		<g>
			<path class="st2" d="M84.43,172.98c0,1.18,0.95,2.13,2.13,2.13h12.14c1.18,0,2.13-0.95,2.13-2.13v-10.36
				c0-1.18-0.95-2.13-2.13-2.13H86.56c-1.18,0-2.13,0.95-2.13,2.13V172.98z"/>
			<path d="M98.71,175.11H86.56c-1.18,0-2.13-0.95-2.13-2.13v-10.36c0-0.68,0.33-1.29,0.83-1.67l1.21,1.34l11.88,10.32l1.83,1.9
				C99.8,174.88,99.28,175.11,98.71,175.11z"/>
			<path class="st3" d="M86.23,171.27c0,0.92,0.74,1.66,1.66,1.66h9.48c0.92,0,1.66-0.74,1.66-1.66v-8.14
				c0-0.92-0.74-1.66-1.66-1.66h-9.48c-0.92,0-1.66,0.74-1.66,1.66V171.27z"/>
		</g>
		<g>
			<path class="st2" d="M66.17,172.98c0,1.18,0.95,2.13,2.13,2.13h12.14c1.18,0,2.13-0.95,2.13-2.13v-10.36
				c0-1.18-0.95-2.13-2.13-2.13H68.29c-1.18,0-2.13,0.95-2.13,2.13V172.98z"/>
			<path d="M80.44,175.11H68.29c-1.18,0-2.13-0.95-2.13-2.13v-10.36c0-0.68,0.33-1.29,0.83-1.67l1.21,1.34l11.88,10.32l1.83,1.9
				C81.54,174.88,81.02,175.11,80.44,175.11z"/>
			<path class="st3" d="M67.97,171.27c0,0.92,0.74,1.66,1.66,1.66h9.48c0.92,0,1.66-0.74,1.66-1.66v-8.14
				c0-0.92-0.74-1.66-1.66-1.66h-9.48c-0.92,0-1.66,0.74-1.66,1.66V171.27z"/>
		</g>
		<g>
			<path class="st2" d="M47.9,172.98c0,1.18,0.95,2.13,2.13,2.13h12.14c1.18,0,2.13-0.95,2.13-2.13v-10.36
				c0-1.18-0.95-2.13-2.13-2.13H50.03c-1.18,0-2.13,0.95-2.13,2.13V172.98z"/>
			<path d="M62.17,175.11H50.03c-1.18,0-2.13-0.95-2.13-2.13v-10.36c0-0.68,0.33-1.29,0.83-1.67l1.21,1.34l11.88,10.32l1.83,1.9
				C63.27,174.88,62.75,175.11,62.17,175.11z"/>
			<path class="st3" d="M49.7,171.27c0,0.92,0.74,1.66,1.66,1.66h9.48c0.92,0,1.66-0.74,1.66-1.66v-8.14c0-0.92-0.74-1.66-1.66-1.66
				h-9.48c-0.92,0-1.66,0.74-1.66,1.66V171.27z"/>
		</g>
		<path class="st2" d="M29.63,188.67c0,1.18,0.95,2.13,2.13,2.13h12.14c1.18,0,2.13-0.95,2.13-2.13v-26.04
			c0-1.18-0.95-2.13-2.13-2.13H31.76c-1.18,0-2.13,0.95-2.13,2.13V188.67z"/>
	</g>
	<g>
		<g>
			<path class="st2" d="M212.3,204.89c0,1.18,0.95,2.13,2.13,2.13h12.14c1.18,0,2.13-0.95,2.13-2.13v-10.36
				c0-1.18-0.95-2.13-2.13-2.13h-12.14c-1.18,0-2.13,0.95-2.13,2.13V204.89z"/>
			<path d="M226.57,207.02h-12.14c-1.18,0-2.13-0.95-2.13-2.13v-10.36c0-0.68,0.33-1.29,0.83-1.68l1.21,1.34l11.88,10.32l1.83,1.9
				C227.67,206.79,227.15,207.02,226.57,207.02z"/>
			<path class="st3" d="M214.1,203.18c0,0.92,0.74,1.66,1.66,1.66h9.48c0.92,0,1.66-0.74,1.66-1.66v-8.14
				c0-0.92-0.74-1.66-1.66-1.66h-9.48c-0.92,0-1.66,0.74-1.66,1.66V203.18z"/>
		</g>
		<g>
			<path class="st2" d="M194.03,204.89c0,1.18,0.95,2.13,2.13,2.13h12.14c1.18,0,2.13-0.95,2.13-2.13v-10.36
				c0-1.18-0.95-2.13-2.13-2.13h-12.14c-1.18,0-2.13,0.95-2.13,2.13V204.89z"/>
			<path d="M208.3,207.02h-12.14c-1.18,0-2.13-0.95-2.13-2.13v-10.36c0-0.68,0.33-1.29,0.83-1.68l1.21,1.34l11.88,10.32l1.83,1.9
				C209.4,206.79,208.88,207.02,208.3,207.02z"/>
			<path class="st3" d="M195.83,203.18c0,0.92,0.74,1.66,1.66,1.66h9.48c0.92,0,1.66-0.74,1.66-1.66v-8.14
				c0-0.92-0.74-1.66-1.66-1.66h-9.48c-0.92,0-1.66,0.74-1.66,1.66V203.18z"/>
		</g>
		<g>
			<path class="st2" d="M175.76,204.89c0,1.18,0.95,2.13,2.13,2.13h12.14c1.18,0,2.13-0.95,2.13-2.13v-10.36
				c0-1.18-0.95-2.13-2.13-2.13h-12.14c-1.18,0-2.13,0.95-2.13,2.13V204.89z"/>
			<path d="M190.04,207.02h-12.14c-1.18,0-2.13-0.95-2.13-2.13v-10.36c0-0.68,0.33-1.29,0.83-1.68l1.21,1.34l11.88,10.32l1.83,1.9
				C191.13,206.79,190.61,207.02,190.04,207.02z"/>
			<path class="st3" d="M177.56,203.18c0,0.92,0.74,1.66,1.66,1.66h9.48c0.92,0,1.66-0.74,1.66-1.66v-8.14
				c0-0.92-0.74-1.66-1.66-1.66h-9.48c-0.92,0-1.66,0.74-1.66,1.66V203.18z"/>
		</g>
		<g>
			<path class="st2" d="M157.5,204.89c0,1.18,0.95,2.13,2.13,2.13h12.14c1.18,0,2.13-0.95,2.13-2.13v-10.36
				c0-1.18-0.95-2.13-2.13-2.13h-12.14c-1.18,0-2.13,0.95-2.13,2.13V204.89z"/>
			<path d="M171.77,207.02h-12.14c-1.18,0-2.13-0.95-2.13-2.13v-10.36c0-0.68,0.33-1.29,0.83-1.68l1.21,1.34l11.88,10.32l1.83,1.9
				C172.87,206.79,172.35,207.02,171.77,207.02z"/>
			<path class="st3" d="M159.3,203.18c0,0.92,0.74,1.66,1.66,1.66h9.48c0.92,0,1.66-0.74,1.66-1.66v-8.14
				c0-0.92-0.74-1.66-1.66-1.66h-9.48c-0.92,0-1.66,0.74-1.66,1.66V203.18z"/>
		</g>
		<g>
			<path class="st2" d="M139.23,204.89c0,1.18,0.95,2.13,2.13,2.13h12.14c1.18,0,2.13-0.95,2.13-2.13v-10.36
				c0-1.18-0.95-2.13-2.13-2.13h-12.14c-1.18,0-2.13,0.95-2.13,2.13V204.89z"/>
			<path d="M153.5,207.02h-12.14c-1.18,0-2.13-0.95-2.13-2.13v-10.36c0-0.68,0.33-1.29,0.83-1.68l1.21,1.34l11.88,10.32l1.83,1.9
				C154.6,206.79,154.08,207.02,153.5,207.02z"/>
			<path class="st3" d="M141.03,203.18c0,0.92,0.74,1.66,1.66,1.66h9.48c0.92,0,1.66-0.74,1.66-1.66v-8.14
				c0-0.92-0.74-1.66-1.66-1.66h-9.48c-0.92,0-1.66,0.74-1.66,1.66V203.18z"/>
		</g>
		<g>
			<path class="st2" d="M120.96,204.89c0,1.18,0.95,2.13,2.13,2.13h12.14c1.18,0,2.13-0.95,2.13-2.13v-10.36
				c0-1.18-0.95-2.13-2.13-2.13h-12.14c-1.18,0-2.13,0.95-2.13,2.13V204.89z"/>
			<path d="M135.24,207.02h-12.14c-1.18,0-2.13-0.95-2.13-2.13v-10.36c0-0.68,0.33-1.29,0.83-1.68l1.21,1.34l11.88,10.32l1.83,1.9
				C136.33,206.79,135.81,207.02,135.24,207.02z"/>
			<path class="st3" d="M122.76,203.18c0,0.92,0.74,1.66,1.66,1.66h9.48c0.92,0,1.66-0.74,1.66-1.66v-8.14
				c0-0.92-0.74-1.66-1.66-1.66h-9.48c-0.92,0-1.66,0.74-1.66,1.66V203.18z"/>
		</g>
		<g>
			<path class="st2" d="M102.7,204.89c0,1.18,0.95,2.13,2.13,2.13h12.14c1.18,0,2.13-0.95,2.13-2.13v-10.36
				c0-1.18-0.95-2.13-2.13-2.13h-12.14c-1.18,0-2.13,0.95-2.13,2.13V204.89z"/>
			<path d="M116.97,207.02h-12.14c-1.18,0-2.13-0.95-2.13-2.13v-10.36c0-0.68,0.33-1.29,0.83-1.68l1.21,1.34l11.88,10.32l1.83,1.9
				C118.07,206.79,117.55,207.02,116.97,207.02z"/>
			<path class="st3" d="M104.5,203.18c0,0.92,0.74,1.66,1.66,1.66h9.48c0.92,0,1.66-0.74,1.66-1.66v-8.14
				c0-0.92-0.74-1.66-1.66-1.66h-9.48c-0.92,0-1.66,0.74-1.66,1.66V203.18z"/>
		</g>
		<g>
			<path class="st2" d="M84.43,204.89c0,1.18,0.95,2.13,2.13,2.13h12.14c1.18,0,2.13-0.95,2.13-2.13v-10.36
				c0-1.18-0.95-2.13-2.13-2.13H86.56c-1.18,0-2.13,0.95-2.13,2.13V204.89z"/>
			<path d="M98.71,207.02H86.56c-1.18,0-2.13-0.95-2.13-2.13v-10.36c0-0.68,0.33-1.29,0.83-1.68l1.21,1.34l11.88,10.32l1.83,1.9
				C99.8,206.79,99.28,207.02,98.71,207.02z"/>
			<path class="st3" d="M86.23,203.18c0,0.92,0.74,1.66,1.66,1.66h9.48c0.92,0,1.66-0.74,1.66-1.66v-8.14
				c0-0.92-0.74-1.66-1.66-1.66h-9.48c-0.92,0-1.66,0.74-1.66,1.66V203.18z"/>
		</g>
		<g>
			<path class="st2" d="M66.17,204.89c0,1.18,0.95,2.13,2.13,2.13h12.14c1.18,0,2.13-0.95,2.13-2.13v-10.36
				c0-1.18-0.95-2.13-2.13-2.13H68.29c-1.18,0-2.13,0.95-2.13,2.13V204.89z"/>
			<path d="M80.44,207.02H68.29c-1.18,0-2.13-0.95-2.13-2.13v-10.36c0-0.68,0.33-1.29,0.83-1.68l1.21,1.34l11.88,10.32l1.83,1.9
				C81.54,206.79,81.02,207.02,80.44,207.02z"/>
			<path class="st3" d="M67.97,203.18c0,0.92,0.74,1.66,1.66,1.66h9.48c0.92,0,1.66-0.74,1.66-1.66v-8.14
				c0-0.92-0.74-1.66-1.66-1.66h-9.48c-0.92,0-1.66,0.74-1.66,1.66V203.18z"/>
		</g>
		<g>
			<path class="st2" d="M47.9,204.89c0,1.18,0.95,2.13,2.13,2.13h12.14c1.18,0,2.13-0.95,2.13-2.13v-10.36
				c0-1.18-0.95-2.13-2.13-2.13H50.03c-1.18,0-2.13,0.95-2.13,2.13V204.89z"/>
			<path d="M62.17,207.02H50.03c-1.18,0-2.13-0.95-2.13-2.13v-10.36c0-0.68,0.33-1.29,0.83-1.68l1.21,1.34l11.88,10.32l1.83,1.9
				C63.27,206.79,62.75,207.02,62.17,207.02z"/>
			<path class="st3" d="M49.7,203.18c0,0.92,0.74,1.66,1.66,1.66h9.48c0.92,0,1.66-0.74,1.66-1.66v-8.14c0-0.92-0.74-1.66-1.66-1.66
				h-9.48c-0.92,0-1.66,0.74-1.66,1.66V203.18z"/>
		</g>
		<g>
			<path class="st2" d="M29.63,204.89c0,1.18,0.95,2.13,2.13,2.13h12.14c1.18,0,2.13-0.95,2.13-2.13v-10.36
				c0-1.18-0.95-2.13-2.13-2.13H31.76c-1.18,0-2.13,0.95-2.13,2.13V204.89z"/>
			<path d="M43.91,207.02H31.76c-1.18,0-2.13-0.95-2.13-2.13v-10.36c0-0.68,0.33-1.29,0.83-1.68l1.21,1.34l11.88,10.32l1.83,1.9
				C45,206.79,44.48,207.02,43.91,207.02z"/>
			<path class="st3" d="M31.43,203.18c0,0.92,0.74,1.66,1.66,1.66h9.48c0.92,0,1.66-0.74,1.66-1.66v-8.14
				c0-0.92-0.74-1.66-1.66-1.66h-9.48c-0.92,0-1.66,0.74-1.66,1.66V203.18z"/>
		</g>
	</g>
	<g>
		<g>
			<path class="st2" d="M203.54,221.25c0,1.18,0.95,2.13,2.13,2.13h20.57c1.18,0,2.13-0.95,2.13-2.13v-10.36
				c0-1.18-0.95-2.13-2.13-2.13h-20.57c-1.18,0-2.13,0.95-2.13,2.13V221.25z"/>
			<path d="M226.25,223.38h-20.57c-1.18,0-2.13-0.95-2.13-2.13v-10.36c0-0.68,0.33-1.29,0.83-1.67l1.21,1.34l20.31,10.32l1.83,1.9
				C227.34,223.15,226.82,223.38,226.25,223.38z"/>
			<path class="st3" d="M205.34,219.54c0,0.92,0.74,1.66,1.66,1.66h17.91c0.92,0,1.66-0.74,1.66-1.66v-8.14
				c0-0.92-0.74-1.66-1.66-1.66H207c-0.92,0-1.66,0.74-1.66,1.66V219.54z"/>
		</g>
		<g>
			<path class="st2" d="M184.71,221.25c0,1.18,0.95,2.13,2.13,2.13h12.14c1.18,0,2.13-0.95,2.13-2.13v-10.36
				c0-1.18-0.95-2.13-2.13-2.13h-12.14c-1.18,0-2.13,0.95-2.13,2.13V221.25z"/>
			<path d="M198.99,223.38h-12.14c-1.18,0-2.13-0.95-2.13-2.13v-10.36c0-0.68,0.33-1.29,0.83-1.67l1.21,1.34l11.88,10.32l1.83,1.9
				C200.08,223.15,199.56,223.38,198.99,223.38z"/>
			<path class="st3" d="M186.51,219.54c0,0.92,0.74,1.66,1.66,1.66h9.48c0.92,0,1.66-0.74,1.66-1.66v-8.14
				c0-0.92-0.74-1.66-1.66-1.66h-9.48c-0.92,0-1.66,0.74-1.66,1.66V219.54z"/>
		</g>
		<g>
			<path class="st2" d="M166.45,221.25c0,1.18,0.95,2.13,2.13,2.13h12.14c1.18,0,2.13-0.95,2.13-2.13v-10.36
				c0-1.18-0.95-2.13-2.13-2.13h-12.14c-1.18,0-2.13,0.95-2.13,2.13V221.25z"/>
			<path d="M180.72,223.38h-12.14c-1.18,0-2.13-0.95-2.13-2.13v-10.36c0-0.68,0.33-1.29,0.83-1.67l1.21,1.34l11.88,10.32l1.83,1.9
				C181.82,223.15,181.29,223.38,180.72,223.38z"/>
			<path class="st3" d="M168.25,219.54c0,0.92,0.74,1.66,1.66,1.66h9.48c0.92,0,1.66-0.74,1.66-1.66v-8.14
				c0-0.92-0.74-1.66-1.66-1.66h-9.48c-0.92,0-1.66,0.74-1.66,1.66V219.54z"/>
		</g>
		<g>
			<path class="st2" d="M84.11,221.25c0,1.18,0.95,2.13,2.13,2.13h76.21c1.18,0,2.13-0.95,2.13-2.13v-10.36
				c0-1.18-0.95-2.13-2.13-2.13H86.24c-1.18,0-2.13,0.95-2.13,2.13V221.25z"/>
			<path d="M162.45,223.38H86.24c-1.18,0-2.13-0.95-2.13-2.13v-10.36c0-0.68,0.33-1.29,0.83-1.67l1.21,1.34l75.95,10.32l1.83,1.9
				C163.55,223.15,163.03,223.38,162.45,223.38z"/>
			<path class="st3" d="M85.91,219.54c0,0.92,0.74,1.66,1.66,1.66h73.54c0.92,0,1.66-0.74,1.66-1.66v-8.14
				c0-0.92-0.74-1.66-1.66-1.66H87.58c-0.92,0-1.66,0.74-1.66,1.66V219.54z"/>
		</g>
		<g>
			<path class="st2" d="M65.84,221.25c0,1.18,0.95,2.13,2.13,2.13h12.14c1.18,0,2.13-0.95,2.13-2.13v-10.36
				c0-1.18-0.95-2.13-2.13-2.13H67.97c-1.18,0-2.13,0.95-2.13,2.13V221.25z"/>
			<path d="M80.11,223.38H67.97c-1.18,0-2.13-0.95-2.13-2.13v-10.36c0-0.68,0.33-1.29,0.83-1.67l1.21,1.34l11.88,10.32l1.83,1.9
				C81.21,223.15,80.69,223.38,80.11,223.38z"/>
			<path class="st3" d="M67.64,219.54c0,0.92,0.74,1.66,1.66,1.66h9.48c0.92,0,1.66-0.74,1.66-1.66v-8.14
				c0-0.92-0.74-1.66-1.66-1.66H69.3c-0.92,0-1.66,0.74-1.66,1.66V219.54z"/>
		</g>
		<g>
			<path class="st2" d="M47.57,221.25c0,1.18,0.95,2.13,2.13,2.13h12.14c1.18,0,2.13-0.95,2.13-2.13v-10.36
				c0-1.18-0.95-2.13-2.13-2.13H49.7c-1.18,0-2.13,0.95-2.13,2.13V221.25z"/>
			<path d="M61.85,223.38H49.7c-1.18,0-2.13-0.95-2.13-2.13v-10.36c0-0.68,0.33-1.29,0.83-1.67l1.21,1.34l11.88,10.32l1.83,1.9
				C62.94,223.15,62.42,223.38,61.85,223.38z"/>
			<path class="st3" d="M49.37,219.54c0,0.92,0.74,1.66,1.66,1.66h9.48c0.92,0,1.66-0.74,1.66-1.66v-8.14
				c0-0.92-0.74-1.66-1.66-1.66h-9.48c-0.92,0-1.66,0.74-1.66,1.66V219.54z"/>
		</g>
		<g>
			<path class="st2" d="M29.31,221.25c0,1.18,0.95,2.13,2.13,2.13h12.14c1.18,0,2.13-0.95,2.13-2.13v-10.36
				c0-1.18-0.95-2.13-2.13-2.13H31.44c-1.18,0-2.13,0.95-2.13,2.13V221.25z"/>
			<path d="M43.58,223.38H31.44c-1.18,0-2.13-0.95-2.13-2.13v-10.36c0-0.68,0.33-1.29,0.83-1.67l1.21,1.34l11.88,10.32l1.83,1.9
				C44.68,223.15,44.16,223.38,43.58,223.38z"/>
			<path class="st3" d="M31.11,219.54c0,0.92,0.74,1.66,1.66,1.66h9.48c0.92,0,1.66-0.74,1.66-1.66v-8.14
				c0-0.92-0.74-1.66-1.66-1.66h-9.48c-0.92,0-1.66,0.74-1.66,1.66V219.54z"/>
		</g>
	</g>
	<g>
		<g>
			<path class="st2" d="M202.23,188.72c0,1.18,0.95,2.13,2.13,2.13h22.36c1.18,0,2.13-0.95,2.13-2.13v-10.36
				c0-1.18-0.95-2.13-2.13-2.13h-22.36c-1.18,0-2.13,0.95-2.13,2.13V188.72z"/>
			<path d="M226.72,190.85h-22.36c-1.18,0-2.13-0.95-2.13-2.13v-10.36c0-0.68,0.33-1.29,0.83-1.67l1.21,1.34l22.1,10.32l1.83,1.9
				C227.82,190.62,227.3,190.85,226.72,190.85z"/>
			<path class="st3" d="M204.03,187.01c0,0.92,0.74,1.66,1.66,1.66h19.7c0.92,0,1.66-0.74,1.66-1.66v-8.14
				c0-0.92-0.74-1.66-1.66-1.66h-19.7c-0.92,0-1.66,0.74-1.66,1.66V187.01z"/>
		</g>
		<g>
			<path class="st2" d="M183.96,188.72c0,1.18,0.95,2.13,2.13,2.13h12.14c1.18,0,2.13-0.95,2.13-2.13v-10.36
				c0-1.18-0.95-2.13-2.13-2.13h-12.14c-1.18,0-2.13,0.95-2.13,2.13V188.72z"/>
			<path d="M198.24,190.85h-12.14c-1.18,0-2.13-0.95-2.13-2.13v-10.36c0-0.68,0.33-1.29,0.83-1.67l1.21,1.34l11.88,10.32l1.83,1.9
				C199.33,190.62,198.81,190.85,198.24,190.85z"/>
			<path class="st3" d="M185.76,187.01c0,0.92,0.74,1.66,1.66,1.66h9.48c0.92,0,1.66-0.74,1.66-1.66v-8.14
				c0-0.92-0.74-1.66-1.66-1.66h-9.48c-0.92,0-1.66,0.74-1.66,1.66V187.01z"/>
		</g>
		<g>
			<path class="st2" d="M165.7,188.72c0,1.18,0.95,2.13,2.13,2.13h12.14c1.18,0,2.13-0.95,2.13-2.13v-10.36
				c0-1.18-0.95-2.13-2.13-2.13h-12.14c-1.18,0-2.13,0.95-2.13,2.13V188.72z"/>
			<path d="M179.97,190.85h-12.14c-1.18,0-2.13-0.95-2.13-2.13v-10.36c0-0.68,0.33-1.29,0.83-1.67l1.21,1.34l11.88,10.32l1.83,1.9
				C181.07,190.62,180.55,190.85,179.97,190.85z"/>
			<path class="st3" d="M167.5,187.01c0,0.92,0.74,1.66,1.66,1.66h9.48c0.92,0,1.66-0.74,1.66-1.66v-8.14
				c0-0.92-0.74-1.66-1.66-1.66h-9.48c-0.92,0-1.66,0.74-1.66,1.66V187.01z"/>
		</g>
		<g>
			<path class="st2" d="M147.43,188.72c0,1.18,0.95,2.13,2.13,2.13h12.14c1.18,0,2.13-0.95,2.13-2.13v-10.36
				c0-1.18-0.95-2.13-2.13-2.13h-12.14c-1.18,0-2.13,0.95-2.13,2.13V188.72z"/>
			<path d="M161.71,190.85h-12.14c-1.18,0-2.13-0.95-2.13-2.13v-10.36c0-0.68,0.33-1.29,0.83-1.67l1.21,1.34l11.88,10.32l1.83,1.9
				C162.8,190.62,162.28,190.85,161.71,190.85z"/>
			<path class="st3" d="M149.23,187.01c0,0.92,0.74,1.66,1.66,1.66h9.48c0.92,0,1.66-0.74,1.66-1.66v-8.14
				c0-0.92-0.74-1.66-1.66-1.66h-9.48c-0.92,0-1.66,0.74-1.66,1.66V187.01z"/>
		</g>
		<g>
			<path class="st2" d="M129.17,188.72c0,1.18,0.95,2.13,2.13,2.13h12.14c1.18,0,2.13-0.95,2.13-2.13v-10.36
				c0-1.18-0.95-2.13-2.13-2.13h-12.14c-1.18,0-2.13,0.95-2.13,2.13V188.72z"/>
			<path d="M143.44,190.85h-12.14c-1.18,0-2.13-0.95-2.13-2.13v-10.36c0-0.68,0.33-1.29,0.83-1.67l1.21,1.34l11.88,10.32l1.83,1.9
				C144.54,190.62,144.02,190.85,143.44,190.85z"/>
			<path class="st3" d="M130.97,187.01c0,0.92,0.74,1.66,1.66,1.66h9.48c0.92,0,1.66-0.74,1.66-1.66v-8.14
				c0-0.92-0.74-1.66-1.66-1.66h-9.48c-0.92,0-1.66,0.74-1.66,1.66V187.01z"/>
		</g>
		<g>
			<path class="st2" d="M110.9,188.72c0,1.18,0.95,2.13,2.13,2.13h12.14c1.18,0,2.13-0.95,2.13-2.13v-10.36
				c0-1.18-0.95-2.13-2.13-2.13h-12.14c-1.18,0-2.13,0.95-2.13,2.13V188.72z"/>
			<path d="M125.17,190.85h-12.14c-1.18,0-2.13-0.95-2.13-2.13v-10.36c0-0.68,0.33-1.29,0.83-1.67l1.21,1.34l11.88,10.32l1.83,1.9
				C126.27,190.62,125.75,190.85,125.17,190.85z"/>
			<path class="st3" d="M112.7,187.01c0,0.92,0.74,1.66,1.66,1.66h9.48c0.92,0,1.66-0.74,1.66-1.66v-8.14
				c0-0.92-0.74-1.66-1.66-1.66h-9.48c-0.92,0-1.66,0.74-1.66,1.66V187.01z"/>
		</g>
		<g>
			<path class="st2" d="M92.63,188.72c0,1.18,0.95,2.13,2.13,2.13h12.14c1.18,0,2.13-0.95,2.13-2.13v-10.36
				c0-1.18-0.95-2.13-2.13-2.13H94.76c-1.18,0-2.13,0.95-2.13,2.13V188.72z"/>
			<path d="M106.91,190.85H94.76c-1.18,0-2.13-0.95-2.13-2.13v-10.36c0-0.68,0.33-1.29,0.83-1.67l1.21,1.34l11.88,10.32l1.83,1.9
				C108,190.62,107.48,190.85,106.91,190.85z"/>
			<path class="st3" d="M94.43,187.01c0,0.92,0.74,1.66,1.66,1.66h9.48c0.92,0,1.66-0.74,1.66-1.66v-8.14
				c0-0.92-0.74-1.66-1.66-1.66h-9.48c-0.92,0-1.66,0.74-1.66,1.66V187.01z"/>
		</g>
		<g>
			<path class="st2" d="M74.37,188.72c0,1.18,0.95,2.13,2.13,2.13h12.14c1.18,0,2.13-0.95,2.13-2.13v-10.36
				c0-1.18-0.95-2.13-2.13-2.13H76.5c-1.18,0-2.13,0.95-2.13,2.13V188.72z"/>
			<path d="M88.64,190.85H76.5c-1.18,0-2.13-0.95-2.13-2.13v-10.36c0-0.68,0.33-1.29,0.83-1.67l1.21,1.34l11.88,10.32l1.83,1.9
				C89.74,190.62,89.22,190.85,88.64,190.85z"/>
			<path class="st3" d="M76.17,187.01c0,0.92,0.74,1.66,1.66,1.66h9.48c0.92,0,1.66-0.74,1.66-1.66v-8.14
				c0-0.92-0.74-1.66-1.66-1.66h-9.48c-0.92,0-1.66,0.74-1.66,1.66V187.01z"/>
		</g>
		<g>
			<path class="st2" d="M56.1,188.72c0,1.18,0.95,2.13,2.13,2.13h12.14c1.18,0,2.13-0.95,2.13-2.13v-10.36
				c0-1.18-0.95-2.13-2.13-2.13H58.23c-1.18,0-2.13,0.95-2.13,2.13V188.72z"/>
			<path d="M70.37,190.85H58.23c-1.18,0-2.13-0.95-2.13-2.13v-10.36c0-0.68,0.33-1.29,0.83-1.67l1.21,1.34l11.88,10.32l1.83,1.9
				C71.47,190.62,70.95,190.85,70.37,190.85z"/>
			<path class="st3" d="M57.9,187.01c0,0.92,0.74,1.66,1.66,1.66h9.48c0.92,0,1.66-0.74,1.66-1.66v-8.14c0-0.92-0.74-1.66-1.66-1.66
				h-9.48c-0.92,0-1.66,0.74-1.66,1.66V187.01z"/>
		</g>
		<g>
			<path class="st2" d="M37.83,188.72c0,1.18,0.95,2.13,2.13,2.13h12.14c1.18,0,2.13-0.95,2.13-2.13v-10.36
				c0-1.18-0.95-2.13-2.13-2.13H39.96c-1.18,0-2.13,0.95-2.13,2.13V188.72z"/>
			<path d="M30.46,160.95l1.21,1.34l0.06,0.14l20.02,25.91l1.83,1.9c-0.38,0.37-0.9,0.6-1.48,0.6h-8.2h-3.94h-8.2
				c-1.18,0-2.13-0.95-2.13-2.13v-26.1C29.63,161.94,29.96,161.34,30.46,160.95z"/>
			<path class="st3" d="M33.09,161.47h9.48c0.92,0,1.66,0.74,1.66,1.66v14.07h6.54c0.92,0,1.66,0.74,1.66,1.66v8.14
				c0,0.92-0.74,1.66-1.66,1.66l-17.68-0.03c-0.92,0-1.66-0.74-1.66-1.66v-23.85C31.43,162.21,32.18,161.47,33.09,161.47z"/>
		</g>
	</g>
	<path class="st1" d="M133.41,138.93c0-2.23-1.81-4.04-4.04-4.04c-2.23,0-4.04,1.81-4.04,4.04s1.81,4.04,4.04,4.04
		C131.6,142.97,133.41,141.16,133.41,138.93z"/>
</g>
<g>
	<path class="st13" d="M242.35,182.31c-3.25,2.4-4.46,6.85-2.66,10.64l2.66,6.77V182.31z"/>
	<path class="st13" d="M242.35,215.35l-1.84,7.07l-9.86,20.18l-25.86,23.2l-1.46-0.46l0.18-12.35l7.55-9.7
		c4.41-5.2,3.77-12.99-1.42-17.4c-1.67-1.41-3.6-2.3-5.6-2.7l-17.09,22.73c-2.12,2.57-3.69,6.53-3.72,10.76l0.02,16.27h49.08
		c5.52,0,10-4.48,10-10V215.35z"/>
</g>
<g>
	<g>
		<path d="M7.93,18.79c-0.4,2.95,236.27,3.32,235.8,0.37l-1.06-6.68c-0.56-3.54-4.96-6.42-9.81-6.42H19.02
			c-4.86,0-9.18,2.87-9.66,6.42L7.93,18.79z"/>
		<path class="st0" d="M16.73,121.13c-0.35,3.13,3.15,5.67,7.82,5.67h205.61c4.67,0,8.11-2.54,7.69-5.67l5.88-101.97
			c-0.6-3.76-5.05-6.8-9.94-6.8H18.23c-4.89,0-9.27,3.05-9.78,6.8L16.73,121.13z"/>
		<path d="M17.67,12.37h57.38l79.08,114.42H24.55c-4.67,0-8.19-2.39-7.86-5.35L7.93,18.79C8.41,15.24,12.77,12.37,17.67,12.37z"/>
		<polygon class="st14" points="27.38,115.75 227.07,115.75 233.36,21.83 18.89,21.83 		"/>
		<polygon class="st15" points="145.55,115.75 27.38,115.75 18.89,21.83 80.87,21.83 		"/>
		<path class="st6" d="M126.61,17.16c-0.01-0.86-0.99-1.56-2.18-1.56c-1.19,0-2.16,0.7-2.15,1.56c0.01,0.86,0.98,1.56,2.18,1.56
			C125.65,18.72,126.62,18.02,126.61,17.16z"/>
	</g>
</g>
<path class="st16" d="M273.92,270.66l-23.29-39.51l3.32-7.99l4.7-18.07c0.46-1.78,0.15-3.56-0.38-5.2l-6.66-16.36
	c-2.04-4.3-7.2-6.14-11.5-4.09c-4.3,2.04-6.13,7.2-4.09,11.5l5.1,12.99l-4.28,16.48l-9.86,20.18l-25.86,23.2l-1.46-0.46l0.18-12.35
	l7.55-9.7c4.41-5.2,3.78-12.99-1.42-17.4c-1.67-1.41-3.6-2.3-5.6-2.7l-17.09,22.73c-2.12,2.57-3.69,6.53-3.72,10.76l0.05,36.19
	c-0.04,6.89,3,13.07,7.81,17.27l-0.15,27.42h48.72l0.18-10.74c5,1.21,10.15-3.71,11.92-6.54l25.06-39.54
	C275.06,275.77,275.04,272.79,273.92,270.66z"/>
<polygon class="st5" points="241.75,521.09 180.55,521.09 180.23,335.56 241.52,335.56 "/>
<polygon class="st4" points="241.75,521.09 199.27,521.09 198.95,335.56 241.52,335.56 "/>
<g>
	<path class="st23" d="M203.9,223.34c5.2,4.41,5.83,12.2,1.42,17.4l-8.55,10.25l-0.18,12.35l4.54,0.46l-1.46-0.46l0.18-12.35
		l7.55-9.7c4.41-5.2,3.78-12.99-1.42-17.4c-1.67-1.41-3.6-2.3-5.6-2.7l0.41,0.24C201.89,221.91,202.94,222.53,203.9,223.34z"/>
	<path class="st23" d="M273.92,270.66l-23.29-39.51l3.32-7.99l4.7-18.07c0.46-1.78,0.15-3.56-0.38-5.2l-6.66-16.36
		c-1.71-3.6-5.6-5.46-9.34-4.78c2.64,0.48,5.02,2.17,6.26,4.78l6.66,16.36c0.53,1.65,0.84,3.42,0.38,5.2l-4.7,18.07l-3.32,7.99
		l23.29,39.51c1.12,2.13,1.14,5.11-0.75,8.08l-25.06,39.54c-1.11,1.77-3.53,4.34-6.41,5.73c-0.76,0.37-3.92,0.75-5.67-0.25
		l-0.03,11.79h3.09l0.17-10.41c1.35,0.15,2.88-0.05,4.44-0.55c3.92-1.25,6.61-4.91,7.49-6.31l25.06-39.54
		C275.06,275.77,275.04,272.79,273.92,270.66z"/>
</g>
<g>
	<path class="st26" d="M53.5,36.78h0.97v12.64h-2.7v-6.82l-3.17,3.96h-0.34l-3.17-3.96v6.82h-2.7V36.78h0.99l5.06,6L53.5,36.78z"/>
	<path class="st26" d="M65.34,40.74v6.09c0,0.81,0.04,1.1,0.81,1.04l0.02,1.53C64.94,49.69,63,49.85,63,48.17
		c-0.49,1.01-1.75,1.42-2.77,1.42c-2.5,0-3.22-1.71-3.22-3.87v-4.99h2.54v4.99c0,1.39,0.61,1.89,1.49,1.89
		c1.01,0.02,1.78-0.77,1.78-1.94v-4.93H65.34z"/>
	<path class="st26" d="M70.4,36.24v9.81c0,1.33,0.52,1.6,1.73,1.4l0.09,1.89c-2.68,0.49-4.3-0.18-4.3-3.29v-9.81H70.4z"/>
	<path class="st26" d="M76.7,40.75h2.83v1.89H76.7v3.22c0,1.8,1.49,1.89,2.93,1.37l0.23,1.91c-2.99,0.83-5.64,0.34-5.64-3.22v-3.28
		l-1.64-0.16v-1.73h1.82l0.27-2.7h2.02V40.75z"/>
	<path class="st26" d="M84.24,38.05c0,1.87-2.95,1.85-2.95,0C81.29,36.13,84.24,36.18,84.24,38.05z M84.02,49.42H81.5v-8.64h2.52
		V49.42z"/>
	<path class="st26" d="M91.46,40.56c2.54,0,3.91,1.98,3.91,4.45c0,2.65-1.78,4.59-4.09,4.59c-0.67,0-1.37-0.09-2.07-0.45v4.72h-2.52
		V43.71c0-0.83,0.11-1.33-0.81-1.28l-0.02-1.67c1.17-0.25,2.86-0.27,2.86,1.39C89.21,41.06,90.34,40.56,91.46,40.56z M89.13,47.06
		c0.56,0.32,1.12,0.41,1.64,0.41c1.21,0,2.05-0.95,2.05-2.47c0-1.21-0.61-2.23-1.89-2.23c-1.13,0.02-1.78,0.88-1.8,1.91V47.06z"/>
	<path class="st26" d="M99.61,36.24v9.81c0,1.33,0.52,1.6,1.73,1.4l0.09,1.89c-2.68,0.49-4.3-0.18-4.3-3.29v-9.81H99.61z"/>
	<path class="st26" d="M110.63,45.87h-5.87c0.16,1.42,1.37,1.64,2.3,1.73c1.08,0.05,2.18-0.11,3.22-0.54l0.29,1.78
		c-1.03,0.49-2.21,0.76-3.37,0.76c-2.99,0-4.97-1.69-4.97-4.63s2.32-4.41,4.56-4.41C109.96,40.56,111.29,42.92,110.63,45.87z
		 M104.76,44.3h3.87c0.13-1.13-0.65-1.91-1.84-1.91C105.53,42.39,104.97,43.26,104.76,44.3z"/>
	<path class="st26" d="M117.63,42.54h-1.6v-1.78h1.64l0.02-1.1c0-2.58,1.37-3.48,3.31-3.48c0.72,0,1.48,0.13,2.27,0.36l-0.25,1.8
		c-0.49-0.18-1.03-0.25-1.49-0.25c-0.85,0-1.44,0.45-1.44,1.62v1.04h2.74v1.78h-2.74v6.88h-2.45V42.54z"/>
	<path class="st26" d="M126.68,49.59c-2.02,0-3.15-1.06-3.15-2.59c0-1.46,1.15-2.81,3.37-2.81c0.79,0,1.6,0.11,2.3,0.4v-0.85
		c0-0.94-0.88-1.39-1.89-1.39c-1.1,0-2.11,0.29-2.68,0.5l-0.43-1.58c0.99-0.5,2.11-0.7,3.28-0.7c2.23,0,4.14,0.67,4.14,3.17v3.15
		c0,0.74-0.02,1.17,0.81,1.12l0.02,1.4c-1.31,0.29-2.75,0.22-2.75-1.33C129.17,49.16,127.8,49.59,126.68,49.59z M127.38,45.74
		c-0.9,0-1.37,0.45-1.37,1.12c0,0.43,0.38,0.88,1.17,0.88c0.83,0,1.93-0.49,2.02-1.67C128.82,45.89,128.09,45.74,127.38,45.74z"/>
	<path class="st26" d="M136.85,38.05c0,1.87-2.95,1.85-2.95,0C133.9,36.13,136.85,36.18,136.85,38.05z M136.64,49.42h-2.52v-8.64
		h2.52V49.42z"/>
	<path class="st26" d="M141.41,36.24v9.81c0,1.33,0.52,1.6,1.73,1.4l0.09,1.89c-2.68,0.49-4.3-0.18-4.3-3.29v-9.81H141.41z"/>
	<path class="st26" d="M152.42,45.87h-5.87c0.16,1.42,1.37,1.64,2.3,1.73c1.08,0.05,2.18-0.11,3.22-0.54l0.29,1.78
		c-1.03,0.49-2.21,0.76-3.37,0.76c-2.99,0-4.97-1.69-4.97-4.63s2.32-4.41,4.55-4.41C151.76,40.56,153.09,42.92,152.42,45.87z
		 M146.55,44.3h3.87c0.13-1.13-0.65-1.91-1.84-1.91C147.33,42.39,146.77,43.26,146.55,44.3z"/>
	<path class="st26" d="M157.97,49.59c-2.63,0.05-4.01-2.09-4.01-4.52c0-2.75,1.87-4.52,4.12-4.52c0.56,0,1.42,0.13,2.02,0.41v-4.72
		h2.52v10.28c0,0.85-0.11,1.31,0.81,1.26l0.02,1.64c-1.26,0.29-2.81,0.27-2.86-1.48C160.09,49.04,159.1,49.58,157.97,49.59z
		 M160.16,43.09c-0.54-0.32-1.12-0.4-1.62-0.4c-1.17,0.02-2.09,0.81-2.09,2.38c0,1.24,0.56,2.29,1.91,2.29c1.1,0,1.8-0.88,1.8-1.94
		V43.09z"/>
	<path class="st26" d="M172.15,36.24v9.81c0,1.33,0.52,1.6,1.73,1.4l0.09,1.89c-2.68,0.49-4.3-0.18-4.3-3.29v-9.81H172.15z"/>
	<path class="st26" d="M179.4,49.59c-2.3,0-4.63-1.51-4.63-4.55c0-3.01,2.27-4.47,4.56-4.48c2.32-0.02,4.65,1.42,4.65,4.48
		C183.98,48.08,181.69,49.59,179.4,49.59z M179.35,47.4c1.06,0.02,2.12-0.77,2.12-2.36c0-1.55-1.01-2.27-2.07-2.27
		c-1.06,0-2.12,0.7-2.12,2.27S178.31,47.4,179.35,47.4z"/>
	<path class="st26" d="M191.5,49.04c-0.77,0.36-1.53,0.52-2.23,0.54c-2.29,0.04-3.96-1.53-3.96-4.38c0-3.29,2.27-4.7,4.93-4.65
		c1.3,0,2.54,0.31,3.69,0.79v8.14c0,3.1-1.93,4.43-4.25,4.43c-1.22,0-2.54-0.32-3.76-0.97l0.32-1.95c0.94,0.5,2.12,0.9,3.13,0.9
		c1.19-0.02,2.12-0.59,2.12-2.32V49.04z M191.46,42.81c-0.49-0.13-0.99-0.18-1.48-0.18c-1.31,0-2.18,0.72-2.18,2.43
		c0,1.62,0.86,2.36,2.03,2.36c0.5,0,1.06-0.14,1.62-0.45V42.81z"/>
	<path class="st26" d="M198.99,38.05c0,1.87-2.95,1.85-2.95,0C196.03,36.13,198.99,36.18,198.99,38.05z M198.77,49.42h-2.52v-8.64
		h2.52V49.42z"/>
	<path class="st26" d="M207.41,49.42v-5.02c0.05-1.19-0.63-1.84-1.64-1.84c-0.96,0-1.84,0.67-1.84,1.89v4.97h-2.52v-6
		c0-0.86-0.04-1.22-0.83-1.13v-1.57c1.15-0.2,3.17-0.4,3.17,1.17c0.49-1.01,1.76-1.33,2.77-1.33c2.45,0,3.42,1.67,3.42,3.83v5.02
		H207.41z"/>
	<path class="st26" d="M78.2,74.17c-2.02,0-3.15-1.06-3.15-2.59c0-1.46,1.15-2.81,3.37-2.81c0.79,0,1.6,0.11,2.3,0.4v-0.85
		c0-0.94-0.88-1.39-1.89-1.39c-1.1,0-2.11,0.29-2.68,0.5l-0.43-1.58c0.99-0.5,2.11-0.7,3.28-0.7c2.23,0,4.14,0.67,4.14,3.17v3.15
		c0,0.74-0.02,1.17,0.81,1.12l0.02,1.4c-1.31,0.29-2.75,0.22-2.75-1.33C80.68,73.74,79.31,74.17,78.2,74.17z M78.9,70.32
		c-0.9,0-1.37,0.45-1.37,1.12c0,0.43,0.38,0.88,1.17,0.88c0.83,0,1.93-0.49,2.02-1.67C80.34,70.46,79.6,70.32,78.9,70.32z"/>
	<path class="st26" d="M88.8,65.33h2.83v1.89H88.8v3.22c0,1.8,1.49,1.89,2.93,1.37l0.23,1.91c-2.99,0.83-5.64,0.34-5.64-3.22v-3.28
		l-1.64-0.16v-1.73h1.82l0.27-2.7h2.02V65.33z"/>
	<path class="st26" d="M96.9,65.33h2.83v1.89H96.9v3.22c0,1.8,1.49,1.89,2.94,1.37l0.23,1.91c-2.99,0.83-5.64,0.34-5.64-3.22v-3.28
		l-1.64-0.16v-1.73h1.82l0.27-2.7h2.02V65.33z"/>
	<path class="st26" d="M109.56,70.44h-5.87c0.16,1.42,1.37,1.64,2.3,1.73c1.08,0.05,2.18-0.11,3.22-0.54l0.29,1.78
		c-1.03,0.49-2.21,0.76-3.37,0.76c-2.99,0-4.97-1.69-4.97-4.63s2.32-4.41,4.56-4.41C108.89,65.13,110.22,67.49,109.56,70.44z
		 M103.69,68.88h3.87c0.13-1.13-0.65-1.91-1.84-1.91C104.46,66.97,103.9,67.83,103.69,68.88z"/>
	<path class="st26" d="M123.07,73.99v-5.02c0.05-1.15-0.54-1.84-1.4-1.82c-0.88,0.02-1.58,0.68-1.6,1.84v5.01h-2.48v-5.01
		c0.02-1.17-0.58-1.85-1.49-1.84c-0.92,0.02-1.71,0.72-1.71,1.89v4.95h-2.5v-6.03c0-0.85-0.05-1.1-0.83-1.04v-1.53
		c1.13-0.32,3.13-0.61,3.13,1.12c0.47-0.99,1.71-1.37,2.79-1.37c1.51,0,2.23,0.5,2.65,1.57c0.52-1.06,1.8-1.57,3.01-1.57
		c2.47,0,3.04,1.73,2.99,3.83v5.02H123.07z"/>
	<path class="st26" d="M132.94,65.13c2.54,0,3.91,1.98,3.91,4.45c0,2.65-1.78,4.59-4.09,4.59c-0.67,0-1.37-0.09-2.07-0.45v4.72
		h-2.52V68.28c0-0.83,0.11-1.33-0.81-1.28l-0.02-1.67c1.17-0.25,2.86-0.27,2.86,1.39C130.69,65.64,131.82,65.13,132.94,65.13z
		 M130.61,71.63c0.56,0.32,1.12,0.41,1.64,0.41c1.21,0,2.05-0.95,2.05-2.47c0-1.21-0.61-2.23-1.89-2.23
		c-1.13,0.02-1.78,0.88-1.8,1.91V71.63z"/>
	<path class="st26" d="M141.88,65.33h2.83v1.89h-2.83v3.22c0,1.8,1.49,1.89,2.94,1.37l0.23,1.91c-2.99,0.83-5.64,0.34-5.64-3.22
		v-3.28l-1.64-0.16v-1.73h1.82l0.27-2.7h2.02V65.33z"/>
	<path class="st26" d="M148.65,71.29c0.02,0.72,0.7,1.08,1.42,1.06c0.74,0,1.48-0.25,1.5-1.03c0-0.65-0.63-0.72-1.24-0.81
		c-1.75-0.23-4.02-0.42-4.02-2.52c0-1.94,1.6-2.86,3.73-2.86c2.07,0,3.85,0.94,3.76,2.77h-2.38c-0.02-0.63-0.63-0.92-1.35-0.92
		c-0.77,0-1.33,0.36-1.33,0.94c0,0.65,0.69,0.68,1.24,0.74c1.94,0.23,4.16,0.32,4.1,2.65c-0.05,2.07-1.94,2.86-3.91,2.86
		s-3.96-0.58-4.05-2.88H148.65z"/>
	<path class="st26" d="M164.38,74.17c-2.3,0-4.63-1.51-4.63-4.55c0-3.01,2.27-4.47,4.55-4.48c2.32-0.02,4.65,1.42,4.65,4.48
		C168.96,72.66,166.67,74.17,164.38,74.17z M164.33,71.97c1.06,0.02,2.12-0.77,2.12-2.36c0-1.55-1.01-2.27-2.07-2.27
		s-2.12,0.7-2.12,2.27S163.28,71.97,164.33,71.97z"/>
	<path class="st26" d="M175.92,65.13c0.67-0.02,1.35,0.18,1.85,0.56l-0.56,2.11c-0.52-0.34-1.06-0.49-1.62-0.47
		c-1.1,0-2.03,0.72-2.03,2.05v4.61h-2.47v-6.03c0-0.72-0.07-1.19-0.86-1.06v-1.55c1.26-0.29,3.02-0.29,3.17,1.26
		C173.76,65.62,174.86,65.13,175.92,65.13z"/>
	<path class="st26" d="M66.52,89.89v6.09c0,0.81,0.04,1.1,0.81,1.04l0.02,1.53c-1.22,0.29-3.17,0.45-3.17-1.22
		c-0.49,1.01-1.75,1.42-2.77,1.42c-2.5,0-3.22-1.71-3.22-3.87v-4.99h2.54v4.99c0,1.39,0.61,1.89,1.49,1.89
		c1.01,0.02,1.78-0.77,1.78-1.94v-4.93H66.52z"/>
	<path class="st26" d="M75.45,98.57v-5.02c0.05-1.19-0.63-1.84-1.64-1.84c-0.95,0-1.84,0.67-1.84,1.89v4.97h-2.52v-6
		c0-0.86-0.04-1.22-0.83-1.13v-1.57c1.15-0.2,3.17-0.4,3.17,1.17c0.49-1.01,1.76-1.33,2.77-1.33c2.45,0,3.42,1.67,3.42,3.83v5.02
		H75.45z"/>
	<path class="st26" d="M88.46,89.89v6.09c0,0.81,0.04,1.1,0.81,1.04l0.02,1.53c-1.22,0.29-3.17,0.45-3.17-1.22
		c-0.49,1.01-1.75,1.42-2.77,1.42c-2.5,0-3.22-1.71-3.22-3.87v-4.99h2.54v4.99c0,1.39,0.61,1.89,1.49,1.89
		c1.01,0.02,1.78-0.77,1.78-1.94v-4.93H88.46z"/>
	<path class="st26" d="M93.08,95.86c0.02,0.72,0.7,1.08,1.42,1.06c0.74,0,1.48-0.25,1.49-1.03c0-0.65-0.63-0.72-1.24-0.81
		c-1.75-0.23-4.02-0.41-4.02-2.52c0-1.94,1.6-2.86,3.73-2.86c2.07,0,3.85,0.94,3.76,2.77h-2.38c-0.02-0.63-0.63-0.92-1.35-0.92
		c-0.77,0-1.33,0.36-1.33,0.94c0,0.65,0.68,0.68,1.24,0.74c1.94,0.23,4.16,0.32,4.1,2.65c-0.05,2.07-1.94,2.86-3.91,2.86
		c-1.96,0-3.96-0.58-4.05-2.88H93.08z"/>
	<path class="st26" d="M108.55,89.89v6.09c0,0.81,0.04,1.1,0.81,1.04l0.02,1.53c-1.22,0.29-3.17,0.45-3.17-1.22
		c-0.49,1.01-1.75,1.42-2.77,1.42c-2.5,0-3.22-1.71-3.22-3.87v-4.99h2.54v4.99c0,1.39,0.61,1.89,1.49,1.89
		c1.01,0.02,1.78-0.77,1.78-1.94v-4.93H108.55z"/>
	<path class="st26" d="M113.75,98.74c-2.02,0-3.15-1.06-3.15-2.59c0-1.46,1.15-2.81,3.37-2.81c0.79,0,1.6,0.11,2.3,0.4v-0.85
		c0-0.94-0.88-1.39-1.89-1.39c-1.1,0-2.11,0.29-2.68,0.5l-0.43-1.58c0.99-0.5,2.11-0.7,3.28-0.7c2.23,0,4.14,0.67,4.14,3.17v3.15
		c0,0.74-0.02,1.17,0.81,1.12l0.02,1.4c-1.31,0.29-2.75,0.22-2.75-1.33C116.23,98.31,114.86,98.74,113.75,98.74z M114.45,94.89
		c-0.9,0-1.37,0.45-1.37,1.12c0,0.43,0.38,0.88,1.17,0.88c0.83,0,1.93-0.49,2.02-1.67C115.89,95.04,115.15,94.89,114.45,94.89z"/>
	<path class="st26" d="M123.58,85.39v9.81c0,1.33,0.52,1.6,1.73,1.4l0.09,1.89c-2.68,0.49-4.3-0.18-4.3-3.29v-9.81H123.58z"/>
	<path class="st26" d="M133.24,85.39v9.81c0,1.33,0.52,1.6,1.73,1.4l0.09,1.89c-2.68,0.49-4.3-0.18-4.3-3.29v-9.81H133.24z"/>
	<path class="st26" d="M140.5,98.74c-2.3,0-4.63-1.51-4.63-4.55c0-3.01,2.27-4.47,4.55-4.48c2.32-0.02,4.65,1.42,4.65,4.48
		C145.07,97.23,142.78,98.74,140.5,98.74z M140.44,96.55c1.06,0.02,2.12-0.77,2.12-2.36c0-1.55-1.01-2.27-2.07-2.27
		s-2.12,0.7-2.12,2.27S139.4,96.55,140.44,96.55z"/>
	<path class="st26" d="M152.59,98.19c-0.77,0.36-1.53,0.52-2.23,0.54c-2.29,0.04-3.96-1.53-3.96-4.38c0-3.29,2.27-4.7,4.93-4.65
		c1.3,0,2.54,0.31,3.69,0.79v8.14c0,3.1-1.93,4.43-4.25,4.43c-1.22,0-2.54-0.32-3.76-0.97l0.32-1.95c0.94,0.5,2.12,0.9,3.13,0.9
		c1.19-0.02,2.12-0.59,2.12-2.32V98.19z M152.56,91.96c-0.49-0.13-0.99-0.18-1.48-0.18c-1.31,0-2.18,0.72-2.18,2.43
		c0,1.62,0.87,2.36,2.04,2.36c0.5,0,1.06-0.14,1.62-0.45V91.96z"/>
	<path class="st26" d="M161.43,98.74c-2.3,0-4.63-1.51-4.63-4.55c0-3.01,2.27-4.47,4.55-4.48c2.32-0.02,4.65,1.42,4.65,4.48
		C166,97.23,163.72,98.74,161.43,98.74z M161.38,96.55c1.06,0.02,2.12-0.77,2.12-2.36c0-1.55-1.01-2.27-2.07-2.27
		s-2.12,0.7-2.12,2.27S160.33,96.55,161.38,96.55z"/>
	<path class="st26" d="M176.07,89.89v6.09c0,0.81,0.04,1.1,0.81,1.04l0.02,1.53c-1.22,0.29-3.17,0.45-3.17-1.22
		c-0.49,1.01-1.75,1.42-2.77,1.42c-2.5,0-3.22-1.71-3.22-3.87v-4.99h2.54v4.99c0,1.39,0.61,1.89,1.5,1.89
		c1.01,0.02,1.78-0.77,1.78-1.94v-4.93H176.07z"/>
	<path class="st26" d="M182.02,89.9h2.83v1.89h-2.83v3.22c0,1.8,1.49,1.89,2.93,1.37l0.23,1.91c-2.99,0.83-5.63,0.34-5.63-3.22V91.8
		l-1.64-0.16V89.9h1.82l0.27-2.7h2.02V89.9z"/>
	<path class="st26" d="M188.79,95.86c0.02,0.72,0.7,1.08,1.42,1.06c0.74,0,1.48-0.25,1.49-1.03c0-0.65-0.63-0.72-1.24-0.81
		c-1.75-0.23-4.02-0.41-4.02-2.52c0-1.94,1.6-2.86,3.73-2.86c2.07,0,3.85,0.94,3.76,2.77h-2.38c-0.02-0.63-0.63-0.92-1.35-0.92
		c-0.77,0-1.33,0.36-1.33,0.94c0,0.65,0.68,0.68,1.24,0.74c1.94,0.23,4.16,0.32,4.11,2.65c-0.05,2.07-1.95,2.86-3.91,2.86
		c-1.96,0-3.96-0.58-4.05-2.88H188.79z"/>
</g>
</svg>
