<?xml version="1.0" encoding="utf-8"?>
<!-- Generator: Adobe Illustrator 23.0.0, SVG Export Plug-In . SVG Version: 6.00 Build 0)  -->
<svg version="1.1" id="Layer_1" xmlns="http://www.w3.org/2000/svg" xmlns:xlink="http://www.w3.org/1999/xlink" x="0px" y="0px"
	 viewBox="0 0 223.84 471.49" style="enable-background:new 0 0 223.84 471.49;" xml:space="preserve">
<style type="text/css">
	.st0{fill:#333333;}
	.st1{fill:#292929;}
	.st2{fill:#505353;}
	.st3{fill:#848384;}
	.st4{fill:#00A6CA;}
	.st5{fill:#33B8D5;}
	.st6{fill:#808083;}
	.st7{fill:#33A133;}
	.st8{fill:#008A00;}
	.st9{fill:#CBE3A0;}
	.st10{fill:#A9D161;}
	.st11{fill:#F2C69E;}
	.st12{fill:#EEB482;}
	.st13{fill:#0D0D0D;}
	.st14{fill:#FCD800;}
	.st15{fill:#FDE866;}
	.st16{fill:#F2C69F;}
	.st17{fill:#F16E00;}
	.st18{fill:#EB0000;}
	.st19{fill:#006800;}
	.st20{fill:#FFFFFF;}
	.st21{fill:#F4C7A0;}
	.st22{fill:#EDB888;}
	.st23{fill:#EFB582;}
	.st24{fill:#33859D;}
	.st25{fill:#006685;}
	.st26{fill:#494949;}
</style>
<g>
	<path d="M9.42,206.37c0.07,4.58,4.16,8.23,9.13,8.16l140.96-2.14c4.98-0.08,8.95-3.85,8.88-8.43l-2.87-189.31
		c-0.07-4.58-4.16-8.23-9.13-8.16L15.44,8.63c-4.98,0.08-8.95,3.85-8.88,8.43L9.42,206.37z"/>
	<path class="st0" d="M15.44,8.63L41.2,8.24l82.89,204.69l-105.53,1.6c-4.98,0.08-9.07-3.58-9.13-8.16L6.56,17.06
		C6.49,12.48,10.46,8.71,15.44,8.63z"/>
	
		<rect x="18.82" y="22.87" transform="matrix(0.9999 -0.0152 0.0152 0.9999 -1.6505 1.3377)" class="st8" width="137.29" height="173.47"/>
	<polygon class="st7" points="117.29,195.89 20.14,197.36 17.51,23.92 50.49,23.42 	"/>
	<path class="st6" d="M90.74,16.49c-0.02-1.11-1.01-2-2.22-1.98c-1.21,0.02-2.18,0.94-2.16,2.05c0.02,1.11,1.01,2,2.22,1.98
		C89.79,18.52,90.76,17.6,90.74,16.49z"/>
</g>
<g>
	<path d="M160.23,212.39l-18.97,0.29l11.03-17.31l5.98-0.09l-0.14-9.08l1.3-2.04l4.07-22.09l-0.68-45.04
		c0.16-2.81,1.73-5.39,4.15-6.87l1.42,93.82C168.47,208.55,164.81,212.32,160.23,212.39z"/>
	<polygon points="138.52,195.57 136.11,201.45 139.07,212.71 127.61,212.88 121.23,195.83 	"/>
	<path d="M117.57,210.46c-1.12-4.09-0.66-8.32,0.69-11.37l1.26-3.24l1.71-0.03l6.37,17.05l0,0l-9.32,0.14L117.57,210.46z"/>
	<polygon class="st19" points="152.29,195.36 158.14,186.19 158.27,195.27 	"/>
	<path class="st19" d="M119.52,195.86L119.52,195.86l1.81-0.03l-0.86-2.4l8.13-20.82c2.03-0.16,4.13,0.18,6.12,1.09
		c6.19,2.85,8.9,10.18,6.05,16.38l-2.25,5.49l-17.28,0.26L119.52,195.86z"/>
	<polygon class="st19" points="119.52,195.86 120.47,193.43 121.33,195.83 	"/>
</g>
<path class="st16" d="M122.48,196.88l10.34-26.49c2.03-0.16,4.13,0.18,6.12,1.09c6.19,2.85,8.9,10.18,6.05,16.38l-4.66,11.38
	l3.14,11.94l1.52,0.05l18.67-29.29l4.07-22.09l-0.68-45.04l0,0c0.2-3.6,2.73-6.83,6.39-7.86c4.61-1.29,9.39,1.41,10.68,6.02
	c0.19,0.67,0.28,1.33,0.31,2l0,0l0.51,42.93l0.19,9.78l31.82,30.6c1.65,1.75,2.47,4.61,1.45,7.99l-13.5,44.82
	c-0.95,3.2-2.93,9.69-8.08,9.87l0.32,21.72l-51,2.33l-2.4-27.38c-5.76-2.75-10.35-7.89-12.17-14.53l-9.78-34.84
	C120.68,204.16,121.13,199.92,122.48,196.88z"/>
<path class="st23" d="M163.66,181.93l4.07-22.09l-0.31-17.03l0.05-0.03l-0.42-27.99c0.2-3.6,2.73-6.83,6.39-7.86
	c1.58-0.44,3.17-0.41,4.64,0c-0.37,0.05-0.74,0.12-1.11,0.23c-3.67,1.02-6.19,4.26-6.39,7.86l0.58,38.12
	c-0.01,0-0.02,0.01-0.03,0.01l0.09,4.84l-4.07,22.09l-18.67,29.29l-3.48,1.84L163.66,181.93z"/>
<path class="st23" d="M122.48,196.88l10.34-26.49c0.9-0.07-6.87,24.64-6.87,24.64c-1.35,3.04-1.8,7.28-0.69,11.37l9.78,34.84
	c1.82,6.65,6.4,11.78,12.17,14.54l1.87,25.12l48.52,0.13l0.58,2.14l-52.21,0.9l-2.24-26.45c-5.76-2.75-10.35-7.89-12.17-14.53
	l-9.78-34.84C120.68,204.16,121.13,199.92,122.48,196.88z"/>
<polygon class="st7" points="204.3,471.49 143.1,471.49 142.78,275.61 204.07,275.61 "/>
<polygon class="st8" points="204.33,471.49 161.86,471.49 161.54,275.61 204.11,275.61 "/>
<g>
	<path class="st20" d="M43.18,50.47c0.08,1.15,1.35,1.61,2.57,1.58c1.12-0.02,2.41-0.3,2.38-1.62c-0.03-1.39-1.58-1.46-2.79-1.53
		c-2.29-0.15-4.61-0.78-4.67-3.39c-0.06-2.79,2.2-4.01,4.7-4.06c2.36-0.05,4.83,0.89,4.89,3.71l-2.52,0.05
		c-0.17-1.02-1.24-1.45-2.32-1.43c-1.1,0.02-2.13,0.64-2.11,1.61c0.02,1.12,1.12,1.25,2.44,1.37c2.67,0.18,4.97,0.65,5.03,3.6
		c0.06,2.97-2.49,3.92-4.97,4.03c-2.52,0.05-5.16-1.13-5.21-3.89L43.18,50.47z"/>
	<path class="st20" d="M60.73,45.23l0.13,6.08c0.02,0.81,0.06,1.1,0.83,1.03l0.05,1.53c-1.22,0.31-3.16,0.52-3.19-1.16
		c-0.46,1.02-1.72,1.46-2.74,1.48c-2.5,0.05-3.26-1.64-3.3-3.8l-0.11-4.99l2.54-0.05l0.11,4.99c0.03,1.39,0.65,1.88,1.54,1.86
		c1.01,0,1.77-0.81,1.74-1.98l-0.1-4.93L60.73,45.23z"/>
	<path class="st20" d="M65.48,51.11c0.03,0.72,0.72,1.07,1.44,1.03c0.74-0.02,1.47-0.28,1.47-1.06c-0.01-0.65-0.65-0.71-1.26-0.78
		c-1.75-0.2-4.02-0.33-4.07-2.44c-0.04-1.94,1.54-2.9,3.67-2.94c2.07-0.04,3.87,0.85,3.82,2.69l-2.38,0.05
		c-0.03-0.63-0.65-0.9-1.37-0.89c-0.77,0.02-1.32,0.39-1.31,0.96c0.01,0.65,0.7,0.67,1.26,0.71c1.95,0.19,4.17,0.24,4.16,2.56
		c-0.01,2.07-1.88,2.9-3.85,2.94s-3.97-0.49-4.11-2.79L65.48,51.11z"/>
	<path class="st20" d="M77.64,44.69c2.54-0.05,3.95,1.9,4,4.36c0.06,2.65-1.68,4.63-3.99,4.68c-0.67,0.01-1.37-0.06-2.08-0.41
		l0.1,4.72l-2.52,0.05l-0.21-10.15c-0.02-0.83,0.08-1.33-0.84-1.26l-0.05-1.67c1.17-0.28,2.86-0.33,2.89,1.33
		C75.4,45.24,76.53,44.72,77.64,44.69z M75.46,51.24c0.57,0.31,1.12,0.39,1.65,0.38c1.21-0.03,2.03-1,2-2.51
		c-0.03-1.21-0.66-2.22-1.94-2.19c-1.13,0.04-1.76,0.92-1.76,1.95L75.46,51.24z"/>
	<path class="st20" d="M86.08,42.01c0.04,1.87-2.91,1.92-2.95,0.06C83.09,40.15,86.04,40.14,86.08,42.01z M86.11,53.37l-2.52,0.05
		l-0.18-8.64l2.52-0.05L86.11,53.37z"/>
	<path class="st20" d="M94.34,47.65c-0.32-0.8-0.98-1.13-1.84-1.11c-1.19,0.03-2.18,0.82-2.15,2.37c0.03,1.57,1.06,2.43,2.25,2.4
		c0.79-0.02,1.54-0.52,1.82-1.44l2.39-0.05c-0.31,2.33-2.25,3.54-4.25,3.6c-2.29,0.07-4.66-1.4-4.72-4.46
		c-0.06-3.04,2.26-4.53,4.55-4.58c1.96-0.04,3.89,0.96,4.34,3.22L94.34,47.65z"/>
	<path class="st20" d="M101.13,41.69c0.04,1.87-2.91,1.92-2.95,0.06C98.14,39.83,101.09,39.82,101.13,41.69z M101.15,53.05
		l-2.52,0.05l-0.18-8.64l2.52-0.05L101.15,53.05z"/>
	<path class="st20" d="M107.62,53.1c-2.3,0.05-4.66-1.41-4.72-4.46c-0.06-3.01,2.17-4.51,4.46-4.58c2.32-0.07,4.67,1.32,4.74,4.38
		C112.16,51.49,109.9,53.05,107.62,53.1z M107.52,50.9c1.06,0,2.11-0.82,2.07-2.4c-0.03-1.55-1.06-2.25-2.12-2.22
		c-1.06,0.02-2.11,0.75-2.08,2.31S106.47,50.92,107.52,50.9z"/>
	<path class="st20" d="M122.06,43.93l0.13,6.08c0.02,0.81,0.06,1.1,0.83,1.03l0.05,1.53c-1.22,0.31-3.16,0.52-3.19-1.16
		c-0.47,1.02-1.72,1.46-2.74,1.48c-2.5,0.05-3.26-1.64-3.3-3.8l-0.11-4.99l2.54-0.05l0.11,4.99c0.03,1.39,0.65,1.88,1.53,1.86
		c1.01,0,1.77-0.81,1.74-1.98l-0.11-4.93L122.06,43.93z"/>
	<path class="st20" d="M126.81,49.81c0.03,0.72,0.73,1.07,1.44,1.03c0.74-0.02,1.47-0.28,1.47-1.06c-0.01-0.65-0.65-0.71-1.26-0.78
		c-1.75-0.2-4.02-0.33-4.07-2.44c-0.04-1.94,1.54-2.9,3.67-2.94c2.07-0.04,3.87,0.85,3.82,2.69l-2.38,0.05
		c-0.03-0.63-0.65-0.9-1.37-0.89c-0.77,0.02-1.32,0.39-1.31,0.96c0.01,0.65,0.7,0.67,1.26,0.71c1.95,0.19,4.17,0.24,4.16,2.56
		c-0.01,2.07-1.88,2.9-3.85,2.94c-1.96,0.04-3.97-0.49-4.11-2.79L126.81,49.81z"/>
	<path class="st20" d="M64.02,80.73c-2.63,0.11-4.06-2-4.11-4.43c-0.06-2.75,1.78-4.56,4.03-4.61c0.56-0.01,1.42,0.1,2.02,0.37
		l-0.1-4.72l2.52-0.05l0.22,10.28c0.02,0.85-0.08,1.32,0.84,1.24l0.05,1.64c-1.25,0.31-2.8,0.33-2.89-1.42
		C66.14,80.13,65.16,80.69,64.02,80.73z M66.08,74.19c-0.55-0.31-1.12-0.37-1.63-0.36c-1.17,0.04-2.07,0.85-2.04,2.42
		c0.03,1.24,0.61,2.27,1.96,2.25c1.1-0.02,1.78-0.92,1.76-1.98L66.08,74.19z"/>
	<path class="st20" d="M79.08,76.69l-5.87,0.12c0.19,1.42,1.4,1.61,2.34,1.68c1.08,0.03,2.18-0.15,3.21-0.61l0.33,1.78
		c-1.02,0.51-2.2,0.8-3.35,0.83c-2.99,0.06-5-1.59-5.07-4.52c-0.06-2.93,2.23-4.46,4.46-4.51C78.3,71.39,79.68,73.72,79.08,76.69z
		 M73.18,75.24l3.87-0.08c0.1-1.14-0.69-1.89-1.88-1.87C73.91,73.32,73.37,74.19,73.18,75.24z"/>
	<path class="st20" d="M84.25,80.25l-4.45-8.42l-0.01-0.29l2.7-0.06l1.08,2.34l1.1,2.75l0.04,0l1-2.8l0.98-2.38l2.68-0.06l0.01,0.29
		l-4.08,8.6L84.25,80.25z"/>
	<path class="st20" d="M93.38,68.57c0.04,1.87-2.91,1.92-2.95,0.06C90.39,66.7,93.34,66.69,93.38,68.57z M93.41,79.93l-2.52,0.05
		l-0.18-8.64l2.52-0.05L93.41,79.93z"/>
	<path class="st20" d="M101.64,74.21c-0.32-0.8-0.98-1.13-1.84-1.11c-1.19,0.03-2.18,0.82-2.15,2.37c0.03,1.57,1.06,2.43,2.25,2.4
		c0.79-0.02,1.54-0.52,1.82-1.44l2.39-0.05c-0.31,2.33-2.25,3.54-4.25,3.6c-2.29,0.07-4.66-1.4-4.72-4.46
		c-0.06-3.04,2.26-4.53,4.55-4.58c1.96-0.04,3.89,0.96,4.34,3.22L101.64,74.21z"/>
	<path class="st20" d="M113.7,75.95l-5.87,0.12c0.19,1.42,1.4,1.61,2.34,1.68c1.08,0.03,2.18-0.15,3.21-0.61l0.33,1.78
		c-1.01,0.51-2.2,0.8-3.35,0.83c-2.99,0.06-5-1.59-5.07-4.52c-0.06-2.93,2.23-4.46,4.46-4.51C112.93,70.65,114.31,72.98,113.7,75.95
		z M107.8,74.51l3.87-0.08c0.1-1.14-0.69-1.89-1.88-1.87C108.54,72.58,108,73.46,107.8,74.51z"/>
	<path class="st20" d="M31.08,102.41c-0.32-0.8-0.98-1.13-1.84-1.11c-1.19,0.03-2.18,0.82-2.15,2.37c0.03,1.57,1.06,2.43,2.25,2.4
		c0.79-0.02,1.54-0.52,1.82-1.44l2.39-0.05c-0.31,2.33-2.25,3.54-4.25,3.6c-2.29,0.07-4.66-1.4-4.72-4.46
		c-0.06-3.04,2.26-4.53,4.55-4.58c1.96-0.04,3.89,0.96,4.34,3.22L31.08,102.41z"/>
	<path class="st20" d="M39.46,107.96c-2.3,0.05-4.66-1.41-4.72-4.46c-0.06-3.01,2.17-4.51,4.46-4.58c2.32-0.07,4.67,1.32,4.74,4.38
		C44,106.35,41.74,107.92,39.46,107.96z M39.36,105.77c1.06,0,2.11-0.82,2.07-2.4c-0.03-1.55-1.06-2.25-2.12-2.22
		c-1.06,0.02-2.11,0.75-2.08,2.31S38.31,105.79,39.36,105.77z"/>
	<path class="st20" d="M52.12,107.52l-0.11-5.02c0.03-1.19-0.67-1.82-1.68-1.8c-0.96,0.02-1.82,0.71-1.8,1.93l0.1,4.97l-2.52,0.05
		l-0.13-6c-0.02-0.86-0.06-1.22-0.85-1.12l-0.03-1.57c1.15-0.22,3.16-0.46,3.19,1.1c0.46-1.02,1.74-1.37,2.74-1.39
		c2.45-0.05,3.46,1.6,3.5,3.76l0.11,5.02L52.12,107.52z"/>
	<path class="st20" d="M57.56,100.52l-1.6,0.03l-0.04-1.78l1.64-0.04l0-1.1c-0.05-2.57,1.29-3.5,3.24-3.54
		c0.72-0.02,1.48,0.09,2.28,0.31l-0.21,1.8c-0.49-0.17-1.03-0.23-1.5-0.22c-0.85,0.02-1.43,0.48-1.41,1.65l0.02,1.04l2.74-0.06
		l0.04,1.78L60,100.47l0.15,6.88l-2.45,0.05L57.56,100.52z"/>
	<path class="st20" d="M66.8,95.84c0.04,1.87-2.91,1.92-2.95,0.06C63.81,93.98,66.76,93.97,66.8,95.84z M66.82,107.2l-2.52,0.05
		l-0.18-8.64l2.52-0.05L66.82,107.2z"/>
	<path class="st20" d="M74.88,106.65c-0.77,0.38-1.52,0.55-2.22,0.59c-2.29,0.08-3.99-1.45-4.05-4.29
		c-0.07-3.29,2.17-4.75,4.83-4.75c1.3-0.03,2.54,0.25,3.71,0.71l0.17,8.14c0.07,3.1-1.83,4.47-4.15,4.52
		c-1.22,0.03-2.54-0.27-3.78-0.89l0.28-1.95c0.95,0.48,2.14,0.85,3.15,0.83c1.19-0.04,2.11-0.64,2.08-2.37L74.88,106.65z
		 M74.71,100.43c-0.49-0.12-0.99-0.16-1.48-0.15c-1.31,0.03-2.16,0.77-2.13,2.48c0.03,1.62,0.91,2.34,2.08,2.31
		c0.5-0.01,1.06-0.17,1.61-0.48L74.71,100.43z"/>
	<path class="st20" d="M87.68,98.08l0.13,6.08c0.02,0.81,0.06,1.1,0.83,1.03l0.05,1.53c-1.22,0.31-3.16,0.52-3.19-1.16
		c-0.46,1.02-1.72,1.46-2.74,1.48c-2.5,0.05-3.26-1.64-3.3-3.8l-0.11-4.99l2.54-0.05l0.11,4.99c0.03,1.39,0.65,1.88,1.53,1.86
		c1.01,0,1.77-0.81,1.74-1.98l-0.1-4.93L87.68,98.08z"/>
	<path class="st20" d="M95.47,97.74c0.67-0.03,1.35,0.15,1.87,0.52l-0.51,2.12c-0.53-0.33-1.07-0.46-1.63-0.43
		c-1.1,0.02-2.02,0.76-1.99,2.1l0.1,4.61l-2.47,0.05l-0.13-6.03c-0.02-0.72-0.1-1.18-0.89-1.04l-0.03-1.55
		c1.25-0.31,3.02-0.35,3.2,1.19C93.32,98.27,94.41,97.76,95.47,97.74z"/>
	<path class="st20" d="M101.24,106.65c-2.02,0.04-3.17-0.99-3.21-2.53c-0.03-1.46,1.09-2.83,3.31-2.88c0.79-0.02,1.6,0.07,2.31,0.35
		l-0.02-0.85c-0.02-0.94-0.91-1.37-1.92-1.34c-1.1,0.02-2.1,0.33-2.67,0.56l-0.47-1.58c0.98-0.52,2.09-0.75,3.26-0.77
		c2.23-0.05,4.15,0.58,4.21,3.08l0.07,3.15c0.02,0.74,0.01,1.17,0.83,1.1l0.05,1.4c-1.31,0.32-2.75,0.27-2.78-1.27
		C103.71,106.17,102.35,106.63,101.24,106.65z M101.86,102.79c-0.9,0.02-1.36,0.48-1.34,1.15c0.01,0.43,0.4,0.87,1.19,0.86
		c0.83-0.02,1.92-0.53,1.98-1.71C103.3,102.9,102.56,102.77,101.86,102.79z"/>
	<path class="st20" d="M111.65,97.59l2.83-0.06l0.04,1.89l-2.83,0.06l0.07,3.22c0.04,1.8,1.54,1.86,2.96,1.3l0.27,1.9
		c-2.97,0.89-5.63,0.46-5.7-3.1l-0.07-3.28l-1.64-0.13l-0.04-1.73l1.82-0.04l0.21-2.71l2.02-0.04L111.65,97.59z"/>
	<path class="st20" d="M119.13,94.73c0.04,1.87-2.91,1.92-2.95,0.06C116.14,92.87,119.09,92.86,119.13,94.73z M119.16,106.09
		l-2.52,0.05l-0.18-8.64l2.52-0.05L119.16,106.09z"/>
	<path class="st20" d="M125.62,106.14c-2.3,0.05-4.66-1.41-4.72-4.46c-0.06-3.01,2.17-4.51,4.46-4.58c2.32-0.07,4.67,1.32,4.74,4.38
		C130.16,104.53,127.91,106.09,125.62,106.14z M125.52,103.94c1.06,0,2.11-0.82,2.07-2.4c-0.03-1.55-1.06-2.25-2.12-2.22
		c-1.06,0.02-2.11,0.75-2.08,2.31S124.48,103.96,125.52,103.94z"/>
	<path class="st20" d="M138.29,105.69l-0.11-5.02c0.03-1.19-0.67-1.82-1.68-1.8c-0.95,0.02-1.82,0.71-1.8,1.93l0.11,4.97l-2.52,0.05
		l-0.13-6c-0.02-0.86-0.06-1.22-0.85-1.12l-0.03-1.57c1.15-0.22,3.16-0.46,3.19,1.1c0.46-1.02,1.74-1.37,2.74-1.39
		c2.45-0.05,3.46,1.6,3.5,3.76l0.11,5.02L138.29,105.69z"/>
	<path class="st20" d="M144.98,102.84c0.03,0.72,0.72,1.07,1.44,1.03c0.74-0.02,1.47-0.28,1.47-1.06c-0.01-0.65-0.65-0.71-1.26-0.78
		c-1.75-0.2-4.02-0.33-4.07-2.44c-0.04-1.94,1.54-2.9,3.67-2.94c2.07-0.04,3.87,0.85,3.82,2.69l-2.38,0.05
		c-0.03-0.63-0.65-0.9-1.37-0.89c-0.77,0.02-1.32,0.39-1.31,0.96c0.01,0.65,0.7,0.67,1.26,0.71c1.95,0.19,4.17,0.24,4.16,2.56
		c-0.01,2.07-1.88,2.9-3.84,2.94c-1.96,0.04-3.97-0.49-4.11-2.79L144.98,102.84z"/>
	<path class="st20" d="M42.77,121.24l0.21,9.81c0.03,1.33,0.56,1.59,1.76,1.37l0.13,1.89c-2.67,0.54-4.31-0.09-4.37-3.2l-0.21-9.81
		L42.77,121.24z"/>
	<path class="st20" d="M48.71,122.93c0.04,1.87-2.91,1.92-2.95,0.06C45.72,121.07,48.68,121.06,48.71,122.93z M48.74,134.3
		l-2.52,0.05l-0.18-8.64l2.52-0.05L48.74,134.3z"/>
	<path class="st20" d="M54.09,128.69c2-0.04,2.47-1.46,2.43-3.24l2.38-0.05c0.09,1.83-0.29,3.37-1.98,4.31l2.57,4.09l0,0.25
		l-2.54,0.05l-2.15-3.56c-0.21,0.08-0.45,0.12-0.72,0.12l-0.58,0.01l0.07,3.49l-2.5,0.05l-0.28-13.14l2.5-0.05l0.16,7.67
		L54.09,128.69z"/>
	<path class="st20" d="M68.77,130.33l-5.87,0.12c0.19,1.42,1.4,1.61,2.34,1.68c1.08,0.03,2.18-0.16,3.21-0.61l0.33,1.78
		c-1.02,0.51-2.2,0.8-3.35,0.83c-2.99,0.06-5-1.59-5.07-4.52s2.23-4.46,4.46-4.51C67.99,125.03,69.37,127.36,68.77,130.33z
		 M62.87,128.88l3.87-0.08c0.1-1.14-0.69-1.89-1.88-1.87C63.6,126.96,63.06,127.83,62.87,128.88z"/>
	<path class="st20" d="M80.17,124.77c2.54-0.05,3.95,1.9,4,4.36c0.06,2.65-1.68,4.63-3.99,4.68c-0.67,0.01-1.37-0.06-2.08-0.41
		l0.1,4.72l-2.52,0.05l-0.21-10.15c-0.02-0.83,0.08-1.33-0.84-1.26l-0.05-1.67c1.17-0.28,2.86-0.33,2.89,1.33
		C77.93,125.32,79.06,124.79,80.17,124.77z M77.99,131.32c0.57,0.31,1.12,0.39,1.65,0.38c1.21-0.03,2.03-1,2-2.51
		c-0.03-1.21-0.66-2.22-1.94-2.19c-1.13,0.04-1.76,0.92-1.76,1.95L77.99,131.32z"/>
	<path class="st20" d="M91.06,124.54c0.67-0.03,1.35,0.15,1.87,0.52l-0.51,2.12c-0.53-0.33-1.07-0.46-1.63-0.43
		c-1.1,0.02-2.02,0.76-1.99,2.1l0.1,4.61l-2.47,0.05l-0.13-6.03c-0.02-0.72-0.1-1.18-0.89-1.04l-0.03-1.55
		c1.25-0.31,3.02-0.35,3.2,1.19C88.91,125.07,90,124.56,91.06,124.54z"/>
	<path class="st20" d="M98.34,133.43c-2.3,0.05-4.66-1.41-4.72-4.46c-0.06-3.01,2.17-4.51,4.46-4.58c2.32-0.07,4.67,1.32,4.74,4.38
		C102.88,131.82,100.63,133.38,98.34,133.43z M98.24,131.23c1.06,0,2.11-0.82,2.07-2.4c-0.03-1.55-1.06-2.25-2.12-2.22
		c-1.06,0.02-2.11,0.75-2.08,2.31S97.2,131.25,98.24,131.23z"/>
	<path class="st20" d="M107.99,129.98l-0.99,1.75l-0.91,1.35l-2.52,0.05l-0.01-0.29l2.91-4.38l-2.65-3.74l-0.01-0.27l2.41-0.05
		l0.8,1.12l0.86,1.44l0.05,0l0.78-1.49l0.73-1.13l2.57-0.05l0.01,0.29l-2.58,3.93l3.02,4.17l0.01,0.29l-2.43,0.05l-1-1.38
		l-1.01-1.63L107.99,129.98z"/>
	<path class="st20" d="M116.47,121.5c0.04,1.87-2.91,1.92-2.95,0.06C113.48,119.63,116.43,119.62,116.47,121.5z M116.49,132.86
		l-2.52,0.05l-0.18-8.64l2.52-0.05L116.49,132.86z"/>
	<path class="st20" d="M126.64,129.1l-5.87,0.12c0.19,1.42,1.4,1.61,2.34,1.68c1.08,0.03,2.18-0.15,3.21-0.61l0.33,1.78
		c-1.02,0.51-2.2,0.8-3.35,0.83c-2.99,0.06-5-1.59-5.07-4.52s2.23-4.46,4.46-4.51C125.86,123.8,127.25,126.13,126.64,129.1z
		 M120.74,127.66l3.87-0.08c0.1-1.14-0.69-1.89-1.88-1.87C121.47,125.73,120.93,126.61,120.74,127.66z"/>
	<path class="st20" d="M130.67,129.86c0.03,0.72,0.72,1.07,1.44,1.03c0.74-0.02,1.47-0.28,1.47-1.06c-0.01-0.65-0.65-0.71-1.26-0.78
		c-1.75-0.2-4.02-0.33-4.07-2.44c-0.04-1.94,1.54-2.9,3.67-2.94c2.07-0.04,3.87,0.85,3.82,2.69l-2.38,0.05
		c-0.03-0.63-0.65-0.91-1.37-0.89c-0.77,0.02-1.32,0.39-1.31,0.96c0.01,0.65,0.7,0.67,1.26,0.71c1.95,0.19,4.17,0.24,4.16,2.56
		c-0.01,2.07-1.88,2.9-3.85,2.94c-1.96,0.04-3.97-0.49-4.11-2.79L130.67,129.86z"/>
	<path class="st20" d="M59.65,160.96c-2.3,0.05-4.66-1.41-4.72-4.46c-0.06-3.01,2.17-4.51,4.46-4.58c2.32-0.07,4.67,1.32,4.74,4.38
		C64.19,159.35,61.93,160.91,59.65,160.96z M59.55,158.76c1.06,0,2.11-0.82,2.07-2.4c-0.03-1.55-1.06-2.25-2.12-2.22
		c-1.06,0.02-2.11,0.75-2.08,2.31S58.5,158.78,59.55,158.76z"/>
	<path class="st20" d="M70.99,151.68c0.67-0.03,1.35,0.15,1.87,0.52l-0.51,2.12c-0.53-0.33-1.07-0.46-1.63-0.43
		c-1.1,0.02-2.02,0.76-1.99,2.1l0.1,4.61l-2.47,0.05l-0.13-6.03c-0.02-0.72-0.1-1.19-0.89-1.04l-0.03-1.55
		c1.25-0.31,3.02-0.35,3.19,1.19C68.84,152.21,69.93,151.7,70.99,151.68z"/>
	<path class="st20" d="M82.53,155.79l1.25-4.06l1.61-4.1l2.86-0.06l0.01,0.4l-5.1,12.43l-1.12,0.02l-5.68-12.2l-0.01-0.4l2.86-0.06
		l1.78,4.01l1.49,4.02L82.53,155.79z"/>
	<path class="st20" d="M90.09,160.11l-0.27-12.6c1.8-0.06,3.58-0.08,5.38-0.11c2.93-0.06,4.53,2.12,4.58,4.5
		c0.05,2.34-1.51,4.48-4.39,4.54l-2.68,0.06l0.08,3.56L90.09,160.11z M95.35,154.13c1.15-0.02,1.89-1.05,1.86-2.25
		c-0.02-1.17-0.76-2.15-1.95-2.12c-0.92,0-1.82,0.04-2.74,0.06l0.09,4.37L95.35,154.13z"/>
	<path class="st20" d="M104.39,152.62l0.15,7.2l-2.68,0.06l-0.27-12.66l0.85-0.02l7.23,7.05l-0.15-7.15l2.7-0.06l0.27,12.64
		l-0.81,0.02L104.39,152.62z"/>
	<path class="st20" d="M116.9,156.86c0.03,0.72,0.72,1.07,1.44,1.03c0.74-0.02,1.47-0.28,1.47-1.06c-0.01-0.65-0.65-0.71-1.26-0.78
		c-1.75-0.2-4.02-0.33-4.07-2.44c-0.04-1.94,1.54-2.9,3.67-2.94c2.07-0.04,3.87,0.86,3.82,2.69l-2.38,0.05
		c-0.03-0.63-0.65-0.9-1.37-0.89c-0.77,0.02-1.32,0.39-1.31,0.96c0.01,0.65,0.7,0.67,1.26,0.71c1.95,0.19,4.17,0.24,4.16,2.56
		c-0.01,2.07-1.88,2.9-3.85,2.94c-1.96,0.04-3.97-0.49-4.11-2.79L116.9,156.86z"/>
</g>
</svg>
